<svg xmlns="http://www.w3.org/2000/svg" xmlns:xlink="http://www.w3.org/1999/xlink" preserveAspectRatio="xMidYMid meet" width="142" height="142" viewBox="0 0 142 142" style="width:100%;height:100%"><defs><animate repeatCount="indefinite" dur="1s" begin="0s" xlink:href="#_R_G_L_1_G" fill="freeze" attributeName="opacity" from="0" to="0" keyTimes="0;0.2;0.4;0.6;1" values="0;1;1;0;0" keySplines="0.167 0.167 0.833 0.833;0.167 0.167 0.833 0.833;0.167 0.167 0.833 0.833;0 0 0 0" calcMode="spline"/><animateMotion repeatCount="indefinite" dur="1s" begin="0s" xlink:href="#_R_G_L_1_G" fill="freeze" keyTimes="0;0.2;0.6;1" path="M71 55.25 C71,57.46 71,61.96 71,68.5 C71,75.04 71,90.17 71,94.5 C71,94.5 71,94.5 71,94.5 " keyPoints="0;0.34;1;1" keySplines="0.167 0.167 0.833 0.833;0.167 0.167 0.833 0.833;0 0 0 0" calcMode="spline"/><animateTransform repeatCount="indefinite" dur="1s" begin="0s" xlink:href="#_R_G_L_1_G" fill="freeze" attributeName="transform" from="-71 -71" to="-71 -71" type="translate" additive="sum" keyTimes="0;1" values="-71 -71;-71 -71" keySplines="0 0 1 1" calcMode="spline"/><animateTransform repeatCount="indefinite" dur="1s" begin="0s" xlink:href="#_R_G_L_0_G" fill="freeze" attributeName="transform" from="0" to="0" type="rotate" additive="sum" keyTimes="0;0.32;0.6;0.92;1" values="0;-1;1;0;0" keySplines="0.167 0.167 0.833 0.833;0.167 0.167 0.833 0.833;0.167 0.167 0.833 0.833;0 0 0 0" calcMode="spline"/><animateTransform repeatCount="indefinite" dur="1s" begin="0s" xlink:href="#_R_G_L_0_G" fill="freeze" attributeName="transform" from="-71.5 -40" to="-71.5 -40" type="translate" additive="sum" keyTimes="0;1" values="-71.5 -40;-71.5 -40" keySplines="0 0 1 1" calcMode="spline"/><animate attributeType="XML" attributeName="opacity" dur="1s" from="0" to="1" xlink:href="#time_group"/></defs><g id="_R_G"><g id="_R_G_L_1_G"><path id="_R_G_L_1_G_D_0_P_0" fill="#007fdf" fill-opacity="1" fill-rule="nonzero" d=" M56.71 104.52 C49.22,104.52 46.16,99 45.59,96.08 C45.46,95.34 44.48,89.17 47.57,85.49 C48.99,83.8 51.01,82.91 53.42,82.91 C53.42,82.91 53.42,88.55 53.42,88.55 C52.49,88.55 52.13,88.84 51.89,89.12 C50.78,90.44 50.9,93.75 51.13,95.06 C51.26,95.62 52.22,98.88 56.71,98.88 C60.85,98.88 62.06,95.73 62.35,94.64 C62.35,94.64 62.35,71.53 62.35,71.53 C62.35,71.53 67.99,71.53 67.99,71.53 C67.99,71.53 67.99,95.24 67.99,95.24 C67.99,95.24 67.94,95.51 67.94,95.51 C67.33,98.63 64.21,104.52 56.71,104.52z "/><path id="_R_G_L_1_G_D_1_P_0" fill="#007fdf" fill-opacity="1" fill-rule="nonzero" d=" M88.78 104 C96.28,104 99.33,98.48 99.9,95.56 C100.03,94.82 101.01,88.65 97.92,84.97 C96.5,83.28 94.48,82.39 92.07,82.39 C92.07,82.39 92.07,88.03 92.07,88.03 C93,88.03 93.37,88.31 93.6,88.6 C94.71,89.92 94.59,93.23 94.36,94.54 C94.23,95.1 93.27,98.36 88.78,98.36 C84.64,98.36 83.43,95.21 83.14,94.12 C83.14,94.12 83.14,71 83.14,71 C83.14,71 77.5,71 77.5,71 C77.5,71 77.5,94.72 77.5,94.72 C77.5,94.72 77.55,94.98 77.55,94.98 C78.16,98.1 81.28,104 88.78,104z "/></g><g id="_R_G_L_0_G" transform=" translate(71.5, 40)"><path id="_R_G_L_0_G_D_0_P_0" fill="#007fdf" fill-opacity="1" fill-rule="nonzero" d=" M106.8 37.21 C106.8,37.21 37.6,37.21 37.6,37.21 C35.87,37.21 34.47,38.61 34.47,40.34 C34.47,40.34 34.47,62.9 34.47,62.9 C34.47,64.63 35.87,66.03 37.6,66.03 C37.6,66.03 106.8,66.03 106.8,66.03 C108.53,66.03 109.93,64.63 109.93,62.9 C109.93,62.9 109.93,40.34 109.93,40.34 C109.93,38.61 108.53,37.21 106.8,37.21z  M101.85 58.48 C101.85,58.48 43.59,58.48 43.59,58.48 C43.59,58.48 43.59,54.58 43.59,54.58 C43.59,54.58 101.85,54.58 101.85,54.58 C101.85,54.58 101.85,58.48 101.85,58.48z "/></g></g><g id="time_group"/></svg>