<svg xmlns="http://www.w3.org/2000/svg" xmlns:xlink="http://www.w3.org/1999/xlink" preserveAspectRatio="xMidYMid meet" width="500" height="500" viewBox="0 0 500 500" style="width:100%;height:100%"><defs><animateMotion repeatCount="indefinite" dur="17s" begin="0s" xlink:href="#_R_G_L_0_G" fill="freeze" keyTimes="0;0.1176471;0.2352941;0.3529412;0.6470588;0.8235294;1" path="M136.5 481.5 C145.5,467 173,432.83 190.5,394.5 C208,356.17 227.71,310.13 241.5,251.5 C255.29,192.88 273.25,42.75 273.25,42.75 C273.25,42.75 255.29,192.88 241.5,251.5 C227.71,310.13 208,356.17 190.5,394.5 C173,432.83 145.5,467 136.5,481.5 " keyPoints="0;0.11;0.27;0.5;0.73;0.89;1" keySplines="0.333 0 0.667 1;0.333 0 0.667 1;0.333 0 0.667 1;0.333 0 0.667 1;0.333 0 0.667 1;0.333 0 0.667 1" calcMode="spline"/><animateTransform repeatCount="indefinite" dur="17s" begin="0s" xlink:href="#_R_G_L_0_G" fill="freeze" attributeName="transform" from="7" to="7" type="rotate" additive="sum" keyTimes="0;0.1176471;0.2352941;0.3529412;0.3647059;0.4117647;0.6470588;0.8235294;1" values="7;0;-8;-23;-23;-26;-15;0;7" keySplines="0.333 0 0.667 1;0.333 0 0.667 1;0.333 0 0.833 1;0.167 0 0.833 1;0.167 0 0.833 1;0.167 0 0.833 1;0.167 0 0.667 1;0.333 0 0.667 1" calcMode="spline"/><animateTransform repeatCount="indefinite" dur="17s" begin="0s" xlink:href="#_R_G_L_0_G" fill="freeze" attributeName="transform" from="0.1729 0.1729" to="0.1729 0.1729" type="scale" additive="sum" keyTimes="0;0.1176471;0.2352941;0.3529412;0.3647059;0.4117647;0.6470588;0.8235294;1" values="0.1729 0.1729;0.3729 0.3729;0.5829 0.5829;0.2429 0.2429;0.2429 0.2429;-0.2429 -0.2429;-0.5829 -0.5829;-0.3729 -0.3729;0.1729 0.1729" keySplines="0.333 0 0.667 1;0.333 0 0.667 1;0.333 0 0.833 1;0.167 0 0.833 1;0.167 0 0.833 1;0.167 0 0.667 1;0.333 0 0.667 1;0.333 0 0.667 1" calcMode="spline"/><animateTransform repeatCount="indefinite" dur="17s" begin="0s" xlink:href="#_R_G_L_0_G" fill="freeze" attributeName="transform" from="-250 -250" to="-250 -250" type="translate" additive="sum" keyTimes="0;1" values="-250 -250;-250 -250" keySplines="0 0 1 1" calcMode="spline"/><animate attributeType="XML" attributeName="opacity" dur="17s" from="0" to="1" xlink:href="#time_group"/></defs><g id="_R_G"><g id="_R_G_L_1_G"><path id="_R_G_L_1_G_D_0_P_0" fill="#116bf0" fill-opacity="1" fill-rule="nonzero" d=" M146.14 470.27 C146.14,470.27 143.15,467.61 143.15,467.61 C143.16,467.6 144.52,466.07 146.9,463.08 C146.9,463.08 150.03,465.57 150.03,465.57 C147.57,468.66 146.19,470.21 146.14,470.27z "/><path id="_R_G_L_1_G_D_1_P_0" fill="#116bf0" fill-opacity="1" fill-rule="nonzero" d=" M157.29 455.99 C157.29,455.99 154.05,453.64 154.05,453.64 C156.29,450.55 158.58,447.28 160.86,443.91 C160.86,443.91 164.18,446.15 164.18,446.15 C161.87,449.56 159.55,452.87 157.29,455.99z  M170.76 436.13 C170.76,436.13 167.39,433.98 167.39,433.98 C169.48,430.7 171.58,427.3 173.65,423.87 C173.65,423.87 177.08,425.93 177.08,425.93 C174.99,429.39 172.87,432.82 170.76,436.13z  M183.14 415.6 C183.14,415.6 179.66,413.61 179.66,413.61 C181.6,410.22 183.55,406.73 185.45,403.22 C185.45,403.22 188.97,405.13 188.97,405.13 C187.05,408.66 185.09,412.18 183.14,415.6z  M194.56 394.54 C194.56,394.54 191.01,392.71 191.01,392.71 C192.82,389.21 194.61,385.63 196.36,382.08 C196.36,382.08 199.95,383.84 199.95,383.84 C198.19,387.42 196.38,391.01 194.56,394.54z  M205.12 373.04 C205.12,373.04 201.49,371.35 201.49,371.35 C203.16,367.79 204.82,364.15 206.43,360.52 C206.43,360.52 210.08,362.15 210.08,362.15 C208.46,365.8 206.79,369.46 205.12,373.04z  M214.84 351.17 C214.84,351.17 211.16,349.61 211.16,349.61 C212.68,346 214.21,342.3 215.69,338.61 C215.69,338.61 219.41,340.1 219.41,340.1 C217.91,343.81 216.38,347.54 214.84,351.17z  M223.77 328.96 C223.77,328.96 220.04,327.53 220.04,327.53 C221.45,323.84 222.84,320.09 224.19,316.38 C224.19,316.38 227.95,317.74 227.95,317.74 C226.6,321.48 225.19,325.25 223.77,328.96z  M231.94 306.46 C231.94,306.46 228.16,305.16 228.16,305.16 C229.44,301.44 230.71,297.65 231.94,293.87 C231.94,293.87 235.75,295.11 235.75,295.11 C234.51,298.91 233.23,302.72 231.94,306.46z  M239.37 283.71 C239.37,283.71 235.54,282.53 235.54,282.53 C236.71,278.76 237.86,274.92 238.97,271.13 C238.97,271.13 242.81,272.25 242.81,272.25 C241.7,276.06 240.54,279.92 239.37,283.71z  M246.07 260.74 C246.07,260.74 242.21,259.68 242.21,259.68 C243.25,255.9 244.29,252.03 245.28,248.18 C245.28,248.18 249.15,249.18 249.15,249.18 C248.15,253.05 247.11,256.94 246.07,260.74z  M252.07 237.58 C252.07,237.58 248.18,236.64 248.18,236.64 C249.11,232.81 250.03,228.92 250.91,225.05 C250.91,225.05 254.81,225.94 254.81,225.94 C253.92,229.82 253,233.74 252.07,237.58z  M257.38 214.26 C257.38,214.26 253.46,213.42 253.46,213.42 C254.29,209.56 255.09,205.64 255.86,201.76 C255.86,201.76 259.78,202.54 259.78,202.54 C259.01,206.43 258.2,210.37 257.38,214.26z  M262.02 190.79 C262.02,190.79 258.08,190.07 258.08,190.07 C258.8,186.19 259.49,182.25 260.15,178.34 C260.15,178.34 264.09,179.01 264.09,179.01 C263.43,182.93 262.73,186.9 262.02,190.79z  M266.01 167.21 C266.01,167.21 262.06,166.59 262.06,166.59 C262.66,162.69 263.25,158.73 263.8,154.82 C263.8,154.82 267.76,155.38 267.76,155.38 C267.21,159.31 266.62,163.29 266.01,167.21z  M269.36 143.53 C269.36,143.53 265.39,143.02 265.39,143.02 C265.89,139.11 266.38,135.13 266.83,131.2 C266.83,131.2 270.8,131.65 270.8,131.65 C270.35,135.6 269.86,139.6 269.36,143.53z  M272.09 119.77 C272.09,119.77 268.11,119.36 268.11,119.36 C268.51,115.43 268.89,111.45 269.24,107.51 C269.24,107.51 273.23,107.86 273.23,107.86 C272.88,111.82 272.49,115.82 272.09,119.77z  M274.22 95.95 C274.22,95.95 270.23,95.64 270.23,95.64 C270.53,91.71 270.81,87.71 271.07,83.76 C271.07,83.76 275.06,84.02 275.06,84.02 C274.8,87.98 274.52,92 274.22,95.95z  M275.76 72.08 C275.76,72.08 271.76,71.87 271.76,71.87 C271.96,67.96 272.15,63.95 272.31,59.98 C272.31,59.98 276.31,60.14 276.31,60.14 C276.15,64.13 275.96,68.15 275.76,72.08z  M276.72 48.19 C276.72,48.19 272.72,48.08 272.72,48.08 C272.83,44.17 272.93,40.16 273,36.17 C273,36.17 276.99,36.24 276.99,36.24 C276.93,40.25 276.83,44.27 276.72,48.19z "/><path id="_R_G_L_1_G_D_2_P_0" fill="#116bf0" fill-opacity="1" fill-rule="nonzero" d=" M277.13 24.29 C277.13,24.29 273.13,24.26 273.13,24.26 C273.14,22.27 273.15,20.28 273.15,18.27 C273.15,18.27 277.15,18.27 277.15,18.27 C277.15,20.29 277.14,22.29 277.13,24.29z "/></g><g id="_R_G_L_0_G"><path id="_R_G_L_0_G_D_0_P_0" fill="#116bf0" fill-opacity="1" fill-rule="nonzero" d=" M254.06 331.86 C251.73,329.56 249.58,327.42 247.41,325.3 C244.36,322.3 241.29,319.32 238.24,316.31 C235.82,313.92 233.45,311.48 231.02,309.09 C225.57,303.73 220.09,298.4 214.62,293.05 C213.52,291.97 212.45,290.86 211.31,289.83 C211.06,289.6 210.52,289.49 210.19,289.59 C204.87,291.22 199.56,292.87 194.26,294.55 C189.59,296.03 184.92,297.55 180.25,299.03 C172.13,301.6 164.01,304.16 155.73,306.57 C203.81,256.4 251.88,206.24 300.18,155.85 C300.06,157.01 299.98,157.88 299.9,158.75 C299.39,164.22 298.88,169.68 298.36,175.14 C297.93,179.63 297.46,184.1 297.03,188.59 C296.56,193.58 296.13,198.58 295.66,203.57 C295.03,210.2 294.39,216.82 293.76,223.45 C293.25,228.77 292.74,234.08 292.23,239.4 C291.54,246.65 290.83,253.91 290.14,261.16 C290.03,262.25 289.89,263.34 289.86,264.44 C289.85,265.09 289.53,265.34 288.99,265.5 C285.14,266.66 281.29,267.82 277.44,268.99 C275.31,269.65 273.17,270.3 271.06,271.02 C270.77,271.12 270.48,271.55 270.39,271.88 C269.34,275.58 268.31,279.28 267.3,282.99 C265.62,289.17 263.95,295.36 262.28,301.54 C261.02,306.2 259.76,310.86 258.49,315.52 C257.04,320.88 255.58,326.24 254.06,331.86z  M284.32 260.87 C286.97,233.29 289.63,205.67 292.29,178.06 C292.22,178.05 292.16,178.04 292.09,178.03 C274.65,210.1 257.2,242.17 239.62,274.49 C254.67,269.9 269.46,265.4 284.32,260.87z  M176.62 293.49 C176.67,293.54 176.71,293.59 176.76,293.64 C179.28,292.88 181.79,292.12 184.31,291.36 C191.42,289.21 198.54,287.09 205.62,284.87 C207.74,284.2 210.23,284.04 211.32,281.52 C211.5,281.09 211.83,280.73 212.1,280.34 C216.12,274.57 220.14,268.82 224.14,263.05 C227.7,257.9 231.22,252.73 234.78,247.59 C240.14,239.86 245.52,232.14 250.9,224.43 C254.26,219.6 257.67,214.8 261.03,209.97 C263.53,206.37 265.99,202.73 268.47,199.11 C269.7,197.31 270.94,195.52 272.18,193.72 C272.13,193.67 272.07,193.63 272.02,193.58 C240.22,226.88 208.42,260.18 176.62,293.49z  M215.48 285.7 C225.15,295.22 234.71,304.64 244.27,314.06 C244.34,314 244.41,313.94 244.48,313.88 C242.64,309.34 240.78,304.8 238.95,300.26 C236.26,293.6 233.61,286.92 230.88,280.28 C230.54,279.45 230.67,278.81 231.05,278.12 C232.28,275.88 233.54,273.65 234.76,271.4 C237.93,265.55 241.09,259.68 244.26,253.83 C246.56,249.59 248.88,245.36 251.18,241.13 C253.54,236.78 255.87,232.43 258.23,228.09 C260.4,224.1 262.59,220.13 264.76,216.15 C265.65,214.53 266.49,212.9 267.35,211.27 C267.3,211.24 267.24,211.2 267.18,211.17 C249.95,236 232.73,260.84 215.48,285.7z  M251.88 316.78 C251.97,316.79 252.07,316.81 252.16,316.83 C256.08,302.33 260.01,287.82 263.98,273.16 C255.07,275.88 246.36,278.54 237.56,281.22 C242.37,293.16 247.12,304.97 251.88,316.78z "/><path id="_R_G_L_0_G_D_1_P_0" fill="#ffffff" fill-opacity="1" fill-rule="nonzero" d=" M284.32 260.87 C269.46,265.4 254.67,269.9 239.62,274.49 C257.2,242.17 274.65,210.1 292.09,178.03 C292.16,178.04 292.22,178.06 292.29,178.06 C289.63,205.68 286.97,233.29 284.32,260.87z "/><path id="_R_G_L_0_G_D_2_P_0" fill="#ffffff" fill-opacity="1" fill-rule="nonzero" d=" M176.62 293.49 C208.42,260.18 240.22,226.88 272.02,193.58 C272.07,193.63 272.12,193.67 272.18,193.72 C270.94,195.52 269.7,197.31 268.47,199.11 C265.99,202.73 263.53,206.37 261.03,209.97 C257.67,214.8 254.26,219.6 250.9,224.43 C245.51,232.15 240.14,239.86 234.78,247.59 C231.22,252.73 227.7,257.91 224.14,263.05 C220.14,268.82 216.12,274.57 212.1,280.34 C211.83,280.73 211.5,281.1 211.32,281.52 C210.23,284.04 207.74,284.2 205.62,284.87 C198.53,287.09 191.41,289.21 184.31,291.36 C181.79,292.12 179.28,292.88 176.76,293.64 C176.71,293.59 176.67,293.54 176.62,293.49z "/><path id="_R_G_L_0_G_D_3_P_0" fill="#ffffff" fill-opacity="1" fill-rule="nonzero" d=" M215.48 285.7 C232.73,260.84 249.95,236 267.18,211.17 C267.24,211.2 267.29,211.24 267.35,211.27 C266.49,212.9 265.64,214.53 264.76,216.15 C262.59,220.13 260.4,224.1 258.23,228.09 C255.87,232.43 253.53,236.78 251.18,241.13 C248.88,245.36 246.56,249.59 244.26,253.83 C241.08,259.68 237.93,265.55 234.75,271.4 C233.53,273.65 232.28,275.88 231.05,278.12 C230.67,278.81 230.54,279.45 230.88,280.28 C233.61,286.92 236.26,293.6 238.95,300.26 C240.78,304.8 242.64,309.34 244.48,313.88 C244.41,313.94 244.34,314 244.27,314.06 C234.71,304.64 225.15,295.22 215.48,285.7z "/><path id="_R_G_L_0_G_D_4_P_0" fill="#ffffff" fill-opacity="1" fill-rule="nonzero" d=" M251.88 316.78 C247.12,304.97 242.37,293.16 237.56,281.22 C246.36,278.54 255.07,275.88 263.97,273.16 C260.01,287.82 256.08,302.33 252.16,316.83 C252.07,316.81 251.97,316.79 251.88,316.78z "/></g></g><g id="time_group"/></svg>