<svg xmlns="http://www.w3.org/2000/svg" xmlns:xlink="http://www.w3.org/1999/xlink" preserveAspectRatio="xMidYMid meet" width="142" height="142" viewBox="0 0 142 142" style="width:100%;height:100%"><defs><animate repeatCount="indefinite" dur="2s" begin="0s" xlink:href="#_R_G_L_1_G" fill="freeze" attributeName="opacity" from="0" to="0" keyTimes="0;0.06;0.12;0.2;0.26;0.32;0.4;0.46;0.52;0.6;0.66;0.72;0.76;0.8;0.84;0.88;1" values="0;1;0;0;1;0;0;1;0;0;1;0;1;0;1;0;0" keySplines="0.167 0.167 0.833 0.833;0.167 0.167 0.833 0.833;0.167 0.167 0.833 0.833;0.167 0.167 0.833 0.833;0.167 0.167 0.833 0.833;0.167 0.167 0.833 0.833;0.167 0.167 0.833 0.833;0.167 0.167 0.833 0.833;0.167 0.167 0.833 0.833;0.167 0.167 0.833 0.833;0.167 0.167 0.833 0.833;0.167 0.167 0.833 0.833;0.167 0.167 0.833 0.833;0.167 0.167 0.833 0.833;0.167 0.167 0.833 0.833;0 0 0 0" calcMode="spline"/><animateMotion repeatCount="indefinite" dur="2s" begin="0s" xlink:href="#_R_G_L_1_G" fill="freeze" keyTimes="0;0.12;0.2;0.32;0.4;0.52;0.6;1" path="M71 71 C71,71 71,71 71,71 C68.51,71.65 58.55,74.23 56.06,74.88 C56.06,74.88 56.06,74.88 56.06,74.88 C56.07,78.11 56.12,91.07 56.13,94.31 C56.13,94.31 56.13,94.31 56.13,94.31 C58.63,94.96 68.63,97.54 71.13,98.19 C71.13,98.19 71.13,98.19 71.13,98.19 " keyPoints="0;0;0.31;0.31;0.69;0.69;1;1" keySplines="0.167 0.167 0.833 0.833;0.167 0.167 0.833 0.833;0.167 0.167 0.833 0.833;0.167 0.167 0.833 0.833;0.167 0.167 0.833 0.833;0.167 0.167 0.833 0.833;0 0 0 0" calcMode="spline"/><animateTransform repeatCount="indefinite" dur="2s" begin="0s" xlink:href="#_R_G_L_1_G" fill="freeze" attributeName="transform" from="-71 -71" to="-71 -71" type="translate" additive="sum" keyTimes="0;1" values="-71 -71;-71 -71" keySplines="0 0 1 1" calcMode="spline"/><animate attributeType="XML" attributeName="opacity" dur="2s" from="0" to="1" xlink:href="#time_group"/></defs><g id="_R_G"><g id="_R_G_L_1_G"><path id="_R_G_L_1_G_D_0_P_0" fill="#007fdf" fill-opacity="1" fill-rule="nonzero" d=" M52.11 55.53 C52.11,57.13 50.81,58.43 49.21,58.43 C47.6,58.43 46.3,57.13 46.3,55.53 C46.3,53.92 47.6,52.62 49.21,52.62 C50.81,52.62 52.11,53.92 52.11,55.53z "/></g><g id="_R_G_L_0_G"><path id="_R_G_L_0_G_D_0_P_0" fill="#007fdf" fill-opacity="1" fill-rule="nonzero" d=" M46.92 52.14 C46.01,52.76 45.4,53.69 45.2,54.76 C45.15,55.01 45.12,55.27 45.12,55.53 C45.12,57.48 46.52,59.16 48.43,59.53 C49.51,59.74 50.59,59.51 51.5,58.91 C51.73,58.75 51.94,58.56 52.14,58.36 C53.43,59.27 57.28,61.8 62.45,63.73 C62.45,63.73 62.45,66.99 62.45,66.99 C51.28,66.98 40.37,61.35 38.41,60.28 C38.45,60.06 38.47,59.84 38.47,59.62 C38.47,57.67 37.09,55.99 35.17,55.61 C34.09,55.41 33.01,55.64 32.11,56.24 C31.2,56.86 30.59,57.78 30.38,58.85 C30.34,59.11 30.32,59.37 30.32,59.63 C30.32,61.58 31.71,63.26 33.63,63.63 C34.7,63.84 35.78,63.61 36.69,63 C37.09,62.73 37.43,62.38 37.71,61.99 C39.07,62.73 43.03,64.76 48.34,66.45 C52.21,67.68 57.23,68.82 62.45,68.82 C62.45,68.82 62.45,69.63 62.45,69.63 C57.23,69.63 52.21,70.78 48.34,72 C43.03,73.69 39.07,75.72 37.71,76.46 C37.43,76.07 37.09,75.72 36.69,75.45 C35.78,74.84 34.7,74.62 33.63,74.81 C31.71,75.19 30.32,76.87 30.32,78.82 C30.32,79.08 30.34,79.34 30.38,79.6 C30.59,80.67 31.2,81.59 32.11,82.2 C33.01,82.82 34.09,83.04 35.17,82.83 C37.09,82.46 38.47,80.78 38.47,78.83 C38.47,78.61 38.45,78.39 38.41,78.17 C40.37,77.1 51.28,71.47 62.45,71.47 C62.45,71.47 62.45,74.71 62.45,74.71 C57.28,76.65 53.43,79.18 52.14,80.09 C51.94,79.89 51.73,79.71 51.5,79.55 C50.59,78.94 49.51,78.71 48.43,78.92 C46.52,79.29 45.12,80.97 45.12,82.92 C45.12,83.18 45.15,83.44 45.2,83.69 C45.4,84.76 46.01,85.69 46.92,86.3 C47.82,86.92 48.91,87.14 49.98,86.93 C51.89,86.56 53.29,84.88 53.29,82.93 C53.29,82.67 53.26,82.41 53.21,82.16 C53.18,81.99 53.13,81.84 53.07,81.68 C54.07,80.98 57.62,78.62 62.45,76.72 C62.45,76.72 62.45,79.38 62.45,79.38 C62.45,79.96 62.91,80.43 63.49,80.43 C63.49,80.43 82.31,80.43 82.31,80.43 C82.88,80.43 83.34,79.96 83.34,79.38 C83.34,79.38 83.34,75.36 83.34,75.36 C83.34,75.36 92.92,75.36 92.92,75.36 C93.24,75.36 93.49,75.11 93.49,74.8 C93.49,74.8 93.49,63.88 93.49,63.88 C93.49,63.57 93.24,63.31 92.92,63.31 C92.92,63.31 83.34,63.31 83.34,63.31 C83.34,63.31 83.34,59.29 83.34,59.29 C83.34,58.72 82.88,58.26 82.31,58.26 C82.31,58.26 63.49,58.26 63.49,58.26 C62.91,58.26 62.45,58.72 62.45,59.29 C62.45,59.29 62.45,61.74 62.45,61.74 C57.62,59.83 54.07,57.47 53.07,56.77 C53.13,56.61 53.18,56.46 53.21,56.3 C53.26,56.04 53.29,55.78 53.29,55.52 C53.29,53.57 51.89,51.89 49.98,51.51 C48.91,51.32 47.82,51.54 46.92,52.14z  M32.16 59.63 C32.16,59.49 32.17,59.34 32.19,59.2 C32.31,58.62 32.65,58.11 33.13,57.76 C33.63,57.43 34.23,57.31 34.82,57.42 C36.01,57.65 36.83,58.81 36.6,60.05 C36.49,60.63 36.14,61.14 35.65,61.48 C35.16,61.81 34.56,61.94 33.97,61.82 C32.92,61.62 32.16,60.7 32.16,59.63z  M34.82 81.03 C34.23,81.14 33.63,81.01 33.13,80.68 C32.65,80.34 32.31,79.84 32.19,79.25 C32.17,79.11 32.16,78.96 32.16,78.82 C32.16,77.75 32.92,76.83 33.97,76.63 C34.56,76.51 35.16,76.64 35.65,76.97 C36.14,77.31 36.49,77.82 36.6,78.4 C36.83,79.64 36.01,80.79 34.82,81.03z  M51.4 82.5 C51.64,83.74 50.82,84.9 49.63,85.12 C49.04,85.24 48.44,85.12 47.95,84.78 C47.45,84.44 47.12,83.94 47.01,83.35 C46.98,83.21 46.97,83.06 46.97,82.92 C46.97,81.85 47.73,80.93 48.78,80.72 C49.37,80.61 49.97,80.73 50.46,81.07 C50.96,81.41 51.29,81.91 51.4,82.5z  M51.4 55.95 C51.29,56.53 50.96,57.04 50.46,57.38 C49.97,57.71 49.37,57.84 48.78,57.72 C47.73,57.52 46.97,56.6 46.97,55.53 C46.97,55.39 46.98,55.25 47.01,55.1 C47.12,54.51 47.45,54.01 47.95,53.67 C48.44,53.33 49.04,53.21 49.63,53.33 C50.82,53.56 51.64,54.72 51.4,55.95z "/></g></g><g id="time_group"/></svg>