<svg xmlns="http://www.w3.org/2000/svg" xmlns:xlink="http://www.w3.org/1999/xlink" preserveAspectRatio="xMidYMid meet" width="500" height="500" viewBox="0 0 500 500" style="width:100%;height:100%"><defs><animateMotion repeatCount="indefinite" dur="8s" begin="0s" xlink:href="#_R_G_L_1_G" fill="freeze" keyTimes="0;0.33;0.455;0.63;0.75;0.87;1" path="M250 250 C250,250 250,250 250,250 C250,195.83 250,-18.33 250,-75 C250,-131.67 250,-90 250,-90 C250,-90 250,-131.67 250,-75 C250,-18.33 250,195.83 250,250 C250,250 250,250 250,250 " keyPoints="0;0;0.44;0.5;0.56;1;1" keySplines="0.333 0.333 0.667 0.667;0.333 0 0.667 1;0.333 0 0.667 1;0.167 0 0.667 1;0.333 0 0.667 1;0 0 0 0" calcMode="spline"/><animateTransform repeatCount="indefinite" dur="8s" begin="0s" xlink:href="#_R_G_L_1_G" fill="freeze" attributeName="transform" from="0" to="0" type="rotate" additive="sum" keyTimes="0;0.125;0.255;0.33;1" values="0;4;-5;0;0" keySplines="0.333 0 0.667 1;0.333 0 0.667 1;0.333 0 0.667 1;0 0 0 0" calcMode="spline"/><animateTransform repeatCount="indefinite" dur="8s" begin="0s" xlink:href="#_R_G_L_1_G" fill="freeze" attributeName="transform" from="-250 -250" to="-250 -250" type="translate" additive="sum" keyTimes="0;1" values="-250 -250;-250 -250" keySplines="0 0 1 1" calcMode="spline"/><animate attributeType="XML" attributeName="opacity" dur="8s" from="0" to="1" xlink:href="#time_group"/></defs><g id="_R_G"><g id="_R_G_L_2_G"><path id="_R_G_L_2_G_D_0_P_0" fill="#11a8d1" fill-opacity="1" fill-rule="nonzero" d=" M357.72 254.71 C357.72,254.71 118.6,254.71 118.6,254.71 C118.6,254.71 118.6,395.75 118.6,395.75 C118.6,395.75 357.72,395.75 357.72,395.75 C357.72,395.75 357.72,254.71 357.72,254.71z "/></g><g id="_R_G_L_1_G"><path id="_R_G_L_1_G_D_0_P_0" fill="#116bf0" fill-opacity="1" fill-rule="nonzero" d=" M247.84 59.45 C247.84,54.82 244.76,50.89 240.54,49.6 C240.54,49.6 240.54,-756.55 240.54,-756.55 C240.54,-756.55 234.54,-756.55 234.54,-756.55 C234.54,-756.55 234.54,49.6 234.54,49.6 C230.32,50.89 227.25,54.82 227.25,59.45 C227.25,64.5 230.91,68.71 235.72,69.57 C236.36,79.34 235.96,104.6 226.69,109.86 C213.26,117.48 213.6,129.96 213.62,130.41 C213.62,130.41 213.62,135.67 213.62,135.67 C213.62,135.67 217.62,135.67 217.62,135.67 C217.62,135.67 217.62,130.33 217.62,130.33 C217.61,130.23 217.33,119.77 228.67,113.34 C241.38,106.12 240.01,74.3 239.72,69.51 C244.35,68.51 247.84,64.38 247.84,59.45z  M237.54 65.75 C234.07,65.75 231.25,62.92 231.25,59.45 C231.25,55.98 234.07,53.15 237.54,53.15 C241.01,53.15 243.84,55.98 243.84,59.45 C243.84,62.92 241.01,65.75 237.54,65.75z "/><path id="_R_G_L_1_G_D_1_P_0" fill="#f1f1f1" fill-opacity="1" fill-rule="nonzero" d=" M126.61 355.08 C126.61,355.08 349.05,355.08 349.05,355.08 C349.05,355.08 349.05,132.63 349.05,132.63 C349.05,132.63 126.61,132.63 126.61,132.63 C126.61,132.63 126.61,355.08 126.61,355.08z  M244.78 160.63 C241.67,160.63 239.15,158.11 239.15,155 C239.15,151.89 241.67,149.38 244.78,149.38 C247.89,149.38 250.41,151.89 250.41,155 C250.41,158.11 247.89,160.63 244.78,160.63z "/><path id="_R_G_L_1_G_D_2_P_0" fill="#007fdf" fill-opacity="1" fill-rule="nonzero" d=" M218.21 207.76 C217.24,207.36 216.24,207.03 215.22,206.76 C214.47,206.57 213.73,206.34 213.01,206.06 C212.51,205.87 212.06,205.58 211.69,205.19 C211.34,204.81 211.15,204.31 211.17,203.79 C211.12,203.05 211.43,202.33 212,201.86 C212.61,201.39 213.37,201.15 214.14,201.18 C214.98,201.14 215.81,201.4 216.48,201.91 C217.05,202.32 217.41,202.96 217.48,203.66 C217.48,203.66 220.84,203.66 220.84,203.66 C220.77,202.2 220.07,200.84 218.92,199.94 C217.64,199 216.07,198.52 214.48,198.59 C213.35,198.57 212.22,198.78 211.18,199.23 C210.24,199.6 209.43,200.23 208.85,201.06 C208.3,201.9 208.02,202.88 208.04,203.88 C207.99,204.87 208.28,205.85 208.85,206.66 C209.37,207.34 210.06,207.87 210.85,208.2 C211.82,208.61 212.82,208.94 213.84,209.2 C214.61,209.39 215.37,209.62 216.11,209.9 C216.63,210.09 217.1,210.41 217.48,210.81 C217.84,211.23 218.03,211.77 218,212.32 C218.04,213.09 217.71,213.82 217.13,214.32 C216.42,214.86 215.55,215.14 214.66,215.09 C213.8,215.14 212.95,214.86 212.29,214.31 C211.73,213.79 211.39,213.07 211.34,212.31 C211.34,212.31 208.06,212.31 208.06,212.31 C208.05,213.32 208.35,214.3 208.92,215.13 C209.52,215.95 210.33,216.6 211.28,216.99 C212.33,217.42 213.46,217.62 214.6,217.59 C215.79,217.62 216.98,217.36 218.04,216.83 C218.96,216.38 219.72,215.69 220.27,214.84 C220.77,214.03 221.03,213.11 221.03,212.16 C221.08,211.15 220.8,210.15 220.21,209.33 C219.69,208.64 219,208.1 218.21,207.76z "/><path id="_R_G_L_1_G_D_3_P_0" fill="#007fdf" fill-opacity="1" fill-rule="nonzero" d=" M238.05 199.81 C235.06,198.18 231.45,198.18 228.46,199.81 C227.02,200.6 225.82,201.78 224.99,203.2 C224.14,204.69 223.7,206.38 223.73,208.1 C223.7,209.82 224.14,211.52 224.99,213.02 C225.81,214.45 227.01,215.63 228.46,216.42 C228.46,216.42 228.4,216.42 228.4,216.42 C231.39,218.05 235,218.05 237.99,216.42 C239.43,215.63 240.62,214.45 241.43,213.02 C242.29,211.52 242.72,209.82 242.7,208.1 C242.72,206.38 242.29,204.69 241.43,203.2 C240.63,201.78 239.46,200.61 238.05,199.81z  M238.77 211.7 C238.28,212.72 237.5,213.57 236.54,214.15 C236.54,214.15 236.51,214.12 236.51,214.12 C234.46,215.25 231.97,215.25 229.91,214.12 C228.94,213.55 228.15,212.71 227.65,211.7 C227.08,210.58 226.8,209.33 226.83,208.07 C226.8,206.82 227.08,205.58 227.65,204.46 C228.15,203.46 228.94,202.63 229.91,202.07 C231.97,200.97 234.45,200.97 236.51,202.07 C237.48,202.63 238.26,203.46 238.77,204.46 C239.33,205.58 239.61,206.82 239.59,208.07 C239.62,209.33 239.33,210.58 238.77,211.7z "/><path id="_R_G_L_1_G_D_4_P_0" fill="#007fdf" fill-opacity="1" fill-rule="nonzero" d=" M253.19 209.71 C253.19,209.71 260.18,209.71 260.18,209.71 C260.02,211.17 259.35,212.52 258.27,213.52 C257.15,214.48 255.7,214.97 254.23,214.91 C253.07,214.93 251.94,214.64 250.93,214.08 C249.96,213.52 249.18,212.69 248.66,211.7 C248.09,210.59 247.81,209.35 247.84,208.1 C247.82,206.87 248.09,205.66 248.65,204.56 C249.17,203.58 249.95,202.76 250.92,202.21 C251.92,201.64 253.06,201.35 254.22,201.37 C255.26,201.35 256.29,201.59 257.21,202.08 C258.08,202.57 258.77,203.3 259.21,204.19 C259.21,204.19 262.86,204.19 262.86,204.19 C262.23,202.47 261.04,201.02 259.5,200.04 C256.42,198.19 252.59,198.1 249.42,199.8 C247.99,200.6 246.8,201.78 245.97,203.2 C245.11,204.69 244.67,206.38 244.7,208.1 C244.67,209.82 245.11,211.52 245.97,213.01 C246.8,214.43 247.99,215.6 249.42,216.4 C250.89,217.22 252.55,217.64 254.23,217.62 C255.78,217.64 257.3,217.27 258.66,216.53 C261.27,215.13 263.05,212.56 263.45,209.63 C263.45,209.63 263.45,207.24 263.45,207.24 C263.45,207.24 253.19,207.24 253.19,207.24 C253.19,207.24 253.19,209.71 253.19,209.71z "/><path id="_R_G_L_1_G_D_5_P_0" fill="#007fdf" fill-opacity="1" fill-rule="nonzero" d=" M279.72 199.81 C276.73,198.18 273.12,198.18 270.12,199.81 C268.68,200.6 267.49,201.78 266.67,203.2 C265.81,204.69 265.36,206.38 265.39,208.1 C265.38,209.83 265.83,211.53 266.71,213.02 C267.52,214.45 268.72,215.63 270.16,216.42 C270.16,216.42 270.12,216.42 270.12,216.42 C273.12,218.05 276.73,218.05 279.72,216.42 C281.16,215.63 282.36,214.45 283.17,213.02 C284.02,211.52 284.45,209.82 284.42,208.1 C284.45,206.38 284.02,204.69 283.17,203.2 C282.35,201.77 281.16,200.6 279.72,199.81z  M280.51 211.7 C280.01,212.72 279.22,213.57 278.25,214.15 C278.25,214.15 278.25,214.12 278.25,214.12 C276.19,215.25 273.7,215.25 271.65,214.12 C270.68,213.55 269.89,212.71 269.38,211.7 C268.82,210.58 268.54,209.35 268.56,208.1 C268.54,206.85 268.82,205.61 269.38,204.49 C269.89,203.48 270.67,202.64 271.65,202.07 C273.71,200.97 276.18,200.97 278.25,202.07 C279.22,202.63 280,203.46 280.51,204.46 C281.08,205.58 281.36,206.82 281.33,208.07 C281.36,209.33 281.08,210.58 280.51,211.7z "/><path id="_R_G_L_1_G_D_6_P_0" fill="#007fdf" fill-opacity="1" fill-rule="nonzero" d=" M299.16 209.29 C298.63,208.6 297.95,208.07 297.16,207.72 C296.19,207.32 295.19,206.99 294.17,206.72 C293.42,206.53 292.68,206.3 291.96,206.02 C291.46,205.84 291.01,205.54 290.64,205.15 C290.29,204.77 290.1,204.27 290.11,203.75 C290.07,203.01 290.38,202.3 290.94,201.82 C291.56,201.35 292.32,201.11 293.09,201.14 C293.93,201.1 294.75,201.36 295.42,201.87 C295.99,202.28 296.35,202.92 296.42,203.62 C296.42,203.62 299.8,203.62 299.8,203.62 C299.73,202.16 299.03,200.8 297.88,199.9 C296.6,198.96 295.03,198.48 293.44,198.55 C292.29,198.52 291.15,198.74 290.09,199.18 C289.18,199.57 288.39,200.22 287.84,201.04 C287.29,201.88 287.01,202.86 287.04,203.86 C286.99,204.85 287.27,205.83 287.84,206.64 C288.36,207.32 289.05,207.85 289.83,208.18 C290.8,208.59 291.81,208.93 292.83,209.18 C293.79,209.44 294.54,209.67 295.09,209.88 C295.61,210.08 296.08,210.39 296.46,210.79 C296.84,211.21 297.03,211.76 297.01,212.32 C297.04,213.09 296.71,213.82 296.12,214.32 C295.42,214.87 294.55,215.14 293.66,215.09 C292.8,215.14 291.95,214.86 291.28,214.31 C290.7,213.8 290.35,213.08 290.28,212.31 C290.28,212.31 287.01,212.31 287.01,212.31 C286.99,213.32 287.29,214.3 287.87,215.13 C288.47,215.96 289.28,216.6 290.22,216.99 C291.28,217.4 292.41,217.59 293.54,217.55 C294.73,217.58 295.91,217.32 296.98,216.79 C297.89,216.35 298.66,215.65 299.21,214.8 C299.7,213.99 299.97,213.07 299.97,212.12 C300.02,211.11 299.73,210.12 299.16,209.29z "/><path id="_R_G_L_1_G_D_7_P_0" fill="#007fdf" fill-opacity="1" fill-rule="nonzero" d=" M189.76 213.56 C189.76,213.56 192.32,210.98 192.32,210.98 C192.32,210.98 194.9,208.42 194.9,208.42 C194.9,208.42 192.32,205.84 192.32,205.84 C192.32,205.84 189.76,203.28 189.76,203.28 C189.76,203.28 187.18,205.84 187.18,205.84 C187.18,205.84 189.76,208.42 189.76,208.42 C189.76,208.42 187.18,210.98 187.18,210.98 C187.18,210.98 184.62,213.56 184.62,213.56 C184.62,213.56 179.48,208.42 179.48,208.42 C179.48,208.42 182.04,205.84 182.04,205.84 C182.04,205.84 184.62,203.28 184.62,203.28 C184.62,203.28 187.18,200.7 187.18,200.7 C187.18,200.7 189.76,198.14 189.76,198.14 C189.76,198.14 192.32,195.56 192.32,195.56 C192.32,195.56 189.76,193 189.76,193 C189.76,193 187.18,195.56 187.18,195.56 C187.18,195.56 184.62,198.14 184.62,198.14 C184.62,198.14 182.04,200.7 182.04,200.7 C182.04,200.7 179.48,203.28 179.48,203.28 C179.48,203.28 176.9,205.84 176.9,205.84 C176.9,205.84 174.33,208.42 174.33,208.42 C174.33,208.42 176.9,210.98 176.9,210.98 C176.9,210.98 179.48,213.56 179.48,213.56 C179.48,213.56 182.04,216.12 182.04,216.12 C182.04,216.12 184.62,218.69 184.62,218.69 C184.62,218.69 187.18,216.12 187.18,216.12 C187.18,216.12 189.76,213.56 189.76,213.56z "/><path id="_R_G_L_1_G_D_8_P_0" fill="#007fdf" fill-opacity="1" fill-rule="nonzero" d=" M200.04 203.28 C200.04,203.28 197.46,200.7 197.46,200.7 C197.46,200.7 194.9,198.14 194.9,198.14 C194.9,198.14 192.32,200.7 192.32,200.7 C192.32,200.7 200.04,208.42 200.04,208.42 C200.04,208.42 197.46,210.98 197.46,210.98 C197.46,210.98 194.9,213.56 194.9,213.56 C194.9,213.56 192.32,216.13 192.32,216.13 C192.32,216.13 189.76,218.69 189.76,218.69 C189.76,218.69 187.18,221.26 187.18,221.26 C187.18,221.26 189.76,223.84 189.76,223.84 C189.76,223.84 192.32,221.26 192.32,221.26 C192.32,221.26 200.04,213.56 200.04,213.56 C200.04,213.56 202.6,210.98 202.6,210.98 C202.6,210.98 205.18,208.42 205.18,208.42 C205.18,208.42 202.6,205.84 202.6,205.84 C202.6,205.84 200.04,203.28 200.04,203.28z "/><path id="_R_G_L_1_G_D_9_P_0" fill="#116bf0" fill-opacity="1" fill-rule="nonzero" d=" M257.42 118.38 C257.42,118.38 257.43,118.37 257.43,118.37 C257.43,118.37 248.45,108.76 248.45,108.76 C248.31,108.61 248.06,108.74 248.1,108.95 C248.63,111.25 249.96,118.61 247.91,127.86 C247.91,127.86 247.38,131.58 255.32,121.74 C255.32,121.74 255.73,121.09 255.73,121.09 C257.36,123.37 259.2,127.67 259.04,135.38 C258.77,148.92 240.48,153.58 240.3,153.62 C239.49,153.82 239,154.63 239.2,155.44 C239.36,156.12 239.98,156.58 240.65,156.58 C240.77,156.58 240.89,156.57 241.01,156.54 C241.85,156.33 261.72,151.3 262.04,135.44 C262.23,125.97 259.61,120.93 257.42,118.38z "/></g><g id="_R_G_L_0_G"><path id="_R_G_L_0_G_D_0_P_0" fill="#116bf0" fill-opacity="1" fill-rule="nonzero" d=" M118.6 254.71 C118.6,254.71 220.39,326.71 220.39,326.71 C220.39,326.71 118.6,395.75 118.6,395.75 C118.6,395.75 118.6,254.71 118.6,254.71z "/><path id="_R_G_L_0_G_D_1_P_0" fill="#116bf0" fill-opacity="1" fill-rule="nonzero" d=" M357.72 254.71 C357.72,254.71 255.93,326.71 255.93,326.71 C255.93,326.71 357.72,395.75 357.72,395.75 C357.72,395.75 357.72,254.71 357.72,254.71z "/><path id="_R_G_L_0_G_D_2_P_0" fill="#116bf0" fill-opacity="1" fill-rule="nonzero" d=" M126.61 395.52 C126.61,395.52 222.03,326.41 222.03,326.41 C222.03,326.41 253.63,326.41 253.63,326.41 C253.63,326.41 349.05,395.52 349.05,395.52 C349.05,395.52 126.61,395.52 126.61,395.52z "/></g></g><g id="time_group"/></svg>