<svg xmlns="http://www.w3.org/2000/svg" xmlns:xlink="http://www.w3.org/1999/xlink" preserveAspectRatio="xMidYMid meet" width="400" height="400" viewBox="0 0 400 400" style="width:100%;height:100%"><defs><animateMotion repeatCount="indefinite" dur="5s" begin="0s" xlink:href="#_R_G_L_9_G" fill="freeze" keyTimes="0;0.416;1" path="M200 200 C200,197.5 200,185 200,185 C200,185 200,197.5 200,200 " keyPoints="0;0.5;1" keySplines="0.167 0.167 0.833 0.833;0.167 0.167 0.833 0.833" calcMode="spline"/><animateTransform repeatCount="indefinite" dur="5s" begin="0s" xlink:href="#_R_G_L_9_G" fill="freeze" attributeName="transform" from="-200 -200" to="-200 -200" type="translate" additive="sum" keyTimes="0;1" values="-200 -200;-200 -200" keySplines="0 0 1 1" calcMode="spline"/><animate repeatCount="indefinite" dur="5s" begin="0s" xlink:href="#_R_G_L_7_G" fill="freeze" attributeName="opacity" from="0" to="0" keyTimes="0;0.416;1" values="0;1;0" keySplines="0.167 0.167 0.833 0.833;0.167 0.167 0.833 0.833" calcMode="spline"/><animate repeatCount="indefinite" dur="5s" begin="0s" xlink:href="#_R_G_L_6_G" fill="freeze" attributeName="opacity" from="1" to="1" keyTimes="0;0.416;1" values="1;0;1" keySplines="0.167 0.167 0.833 0.833;0.167 0.167 0.833 0.833" calcMode="spline"/><animateMotion repeatCount="indefinite" dur="5s" begin="0s" xlink:href="#_R_G_L_0_G" fill="freeze" keyTimes="0;0.416;1" path="M260 237 C260,237.67 260,241 260,241 C260,241 260,237.67 260,237 " keyPoints="0;0.5;1" keySplines="0.167 0.167 0.833 0.833;0.167 0.167 0.833 0.833" calcMode="spline"/><animateTransform repeatCount="indefinite" dur="5s" begin="0s" xlink:href="#_R_G_L_0_G" fill="freeze" attributeName="transform" from="0" to="0" type="rotate" additive="sum" keyTimes="0;0.416;1" values="0;15;0" keySplines="0.167 0.167 0.833 0.833;0.167 0.167 0.833 0.833" calcMode="spline"/><animateTransform repeatCount="indefinite" dur="5s" begin="0s" xlink:href="#_R_G_L_0_G" fill="freeze" attributeName="transform" from="-1 0.99291" to="-1 0.99291" type="scale" additive="sum" keyTimes="0;1" values="-1 0.99291;-1 0.99291" keySplines="0 0 1 1" calcMode="spline"/><animateTransform repeatCount="indefinite" dur="5s" begin="0s" xlink:href="#_R_G_L_0_G" fill="freeze" attributeName="transform" from="-260 -232.5" to="-260 -232.5" type="translate" additive="sum" keyTimes="0;1" values="-260 -232.5;-260 -232.5" keySplines="0 0 1 1" calcMode="spline"/><animate attributeType="XML" attributeName="opacity" dur="5s" from="0" to="1" xlink:href="#time_group"/></defs><g id="_R_G"><g id="_R_G_L_9_G"><path id="_R_G_L_9_G_D_0_P_0" fill="#2279ea" fill-opacity="1" fill-rule="nonzero" d=" M112.98 36.24 C112.98,36.24 112.42,20.06 130.28,20.06 C130.28,20.06 133.87,20.63 133.87,20.63 C133.87,20.63 225.91,73.32 225.91,73.32 C225.91,73.32 239.98,84.18 239.98,96.91 C239.98,96.91 239.98,332.35 239.98,332.35 C239.98,332.35 239.98,346.13 239.98,346.13 C239.98,346.13 239.98,352.24 233.87,357.05 C227.76,361.87 216.24,359.02 216.24,359.02 C216.24,359.02 112.98,36.24 112.98,36.24z "/><path id="_R_G_L_9_G_D_1_P_0" fill="#ffffff" fill-opacity="1" fill-rule="nonzero" d=" M112.98 36.24 C112.98,36.24 113.02,28.11 121.11,28.11 C121.11,28.11 123.87,27.95 127.05,29.8 C127.05,29.8 215.09,81.02 215.09,81.02 C215.09,81.02 228.09,90.52 228.09,101.46 C228.09,101.46 228.09,351.24 228.09,351.24 C228.09,351.24 228.31,360.2 220.35,360.2 C220.35,360.2 216.24,359.02 216.24,359.02 C216.24,359.02 125.24,306.35 125.24,306.35 C125.24,306.35 112.98,298.41 112.98,285.18 C112.98,285.18 112.98,36.24 112.98,36.24z "/><path id="_R_G_L_9_G_D_2_P_0" stroke="#0464d4" stroke-linecap="round" stroke-linejoin="round" fill="none" stroke-width="1" stroke-opacity="1" d=" M112.98 36.24 C112.98,36.24 113.02,28.11 121.11,28.11 C121.11,28.11 123.87,27.95 127.05,29.8 C127.05,29.8 215.09,81.02 215.09,81.02 C215.09,81.02 228.09,90.52 228.09,101.46 C228.09,101.46 228.09,351.24 228.09,351.24 C228.09,351.24 228.31,360.2 220.35,360.2 C220.35,360.2 216.24,359.02 216.24,359.02 C216.24,359.02 125.24,306.35 125.24,306.35 C125.24,306.35 112.98,298.41 112.98,285.18 C112.98,285.18 112.98,36.24 112.98,36.24z "/></g><g id="_R_G_L_8_G"><path id="_R_G_L_8_G_D_0_P_0" fill="#3199f0" fill-opacity="1" fill-rule="nonzero" d=" M89.97 53.69 C89.97,53.69 89.97,192.3 89.97,192.3 C89.97,193.21 90.17,194.11 90.55,194.94 C92.45,199.01 95.55,202.4 99.42,204.67 C99.42,204.67 177.79,250.58 177.79,250.58 C177.91,250.65 178.03,250.72 178.16,250.78 C178.16,250.78 181.69,252.55 181.69,252.55 C183.49,253.45 185.64,253.46 187.4,252.48 C189.17,251.49 190.97,249.73 190.97,246.69 C190.97,246.69 190.97,112.69 190.97,112.69 C190.97,112.69 191.94,99.09 180.48,94.87 C180.15,94.74 179.82,94.6 179.51,94.42 C179.51,94.42 99.76,48.3 99.76,48.3 C97.68,47.1 95.1,47.17 93.13,48.54 C91.5,49.66 89.97,51.35 89.97,53.69z "/></g><g id="_R_G_L_7_G"><path id="_R_G_L_7_G_D_0_P_0" fill="#ffffff" fill-opacity="1" fill-rule="nonzero" d=" M127.35 130.36 C127.83,130.65 128.34,131.07 128.83,131.49 C129.25,131.85 129.7,132.11 130.14,132.43 C130.46,132.66 130.77,132.93 131.09,133.13 C131.42,133.32 131.67,133.4 131.91,133.51 C132.08,133.74 132.24,134.05 132.43,134.2 C133.31,134.91 133.95,135.76 134.09,136.85 C134.82,137.27 135.48,137.65 136.24,138.09 C136.11,138.27 136.03,138.38 135.92,138.54 C137.9,140.48 138.13,142.58 138.26,144.6 C138.35,146.01 138.3,147.35 138.21,148.66 C138.1,150.42 137.89,152.11 137.72,153.87 C138.36,154.27 138.54,154.99 138.57,155.74 C138.59,156.03 138.6,156.34 138.55,156.57 C138.26,157.84 137.94,159.1 137.62,160.35 C137.47,160.96 136.99,160.85 136.43,160.52 C136.39,161.01 136.35,161.45 136.31,161.89 C136.2,163.2 135.77,164.17 135.08,164.91 C134.83,165.18 134.66,165.64 134.64,166.13 C134.6,167.38 134.61,168.66 134.7,169.98 C134.74,170.48 134.99,171.2 135.31,171.7 C136.65,173.83 138.22,175.61 139.9,177.26 C142.43,179.74 144.92,182.3 147.44,184.81 C148.79,186.16 149.72,187.74 150.18,189.58 C150.65,191.45 151.12,193.32 151.62,195.33 C136.06,186.34 120.68,177.46 105.21,168.53 C105.69,166.52 106.16,164.57 107.29,163.28 C107.58,162.95 108.06,162.77 108.54,162.83 C111.2,163.13 113.87,163.44 116.57,163.91 C118.42,164.23 120.15,164.3 121.61,163.66 C121.85,163.55 122.05,163.21 122.08,162.85 C122.18,161.64 122.19,160.37 122.22,159.12 C122.24,158.47 122.09,157.81 121.71,157.07 C120.8,155.26 120.56,153.57 120.47,151.92 C120.46,151.73 120.44,151.54 120.43,151.35 C119.39,150.48 119.07,149.78 118.87,148.06 C118.78,147.21 118.57,146.33 118.45,145.47 C118.38,144.96 118.33,144.43 118.34,143.95 C118.36,143.27 118.58,142.83 119.39,143.3 C118.7,140.96 118.77,139.01 118.75,137.04 C118.74,135.07 118.97,133.27 119.6,131.83 C120.17,130.49 121.32,129.94 122.67,129.81 C123.13,129.76 123.54,129.52 124.04,129.65 C124.78,129.85 125.49,130.1 126.19,130.03 C126.55,130 126.95,130.13 127.35,130.36z "/></g><g id="_R_G_L_6_G"><path id="_R_G_L_6_G_D_0_P_0" fill="#ffffff" fill-opacity="1" fill-rule="nonzero" d=" M142.35 145.99 C142.49,146.07 142.65,146.24 142.83,146.48 C146.74,152.01 149.27,157.82 150.35,163.87 C150.62,165.39 150.74,166.87 150.92,168.36 C150.92,168.36 150.85,168.34 150.85,168.34 C150.85,168.68 150.85,169.03 150.84,169.38 C150.84,169.88 150.63,170.06 150.28,169.86 C149.94,169.66 149.72,169.23 149.73,168.73 C149.75,166.75 149.53,164.67 149.07,162.49 C147.94,157.21 145.69,152.18 142.34,147.39 C142.34,147.39 142.16,147.14 142.16,147.14 C141.81,146.63 141.73,146.22 141.93,146.01 C142.04,145.9 142.19,145.9 142.35,145.99z "/><path id="_R_G_L_6_G_D_1_P_0" fill="#ffffff" fill-opacity="1" fill-rule="nonzero" d=" M121.85 161.36 C121.89,161.38 121.93,161.41 121.97,161.44 C122.25,161.67 122.41,161.97 122.43,162.36 C122.42,162.42 122.4,162.52 122.36,162.6 C121.58,164.39 120.38,165.6 118.77,166.21 C118.62,166.26 118.47,166.24 118.33,166.16 C118.18,166.07 118.04,165.91 117.93,165.7 C117.71,165.27 117.76,164.92 118.07,164.8 C119.11,164.4 119.98,163.73 120.65,162.75 C120.9,162.36 121.11,161.92 121.34,161.5 C121.45,161.29 121.61,161.22 121.85,161.36z "/><path id="_R_G_L_6_G_D_2_P_0" fill="#ffffff" fill-opacity="1" fill-rule="nonzero" d=" M117.59 149.91 C117.94,150.1 118.12,150.5 118.17,150.99 C118.26,151.93 118.37,152.87 118.46,153.8 C118.51,154.3 118.54,154.79 118.58,155.13 C118.5,157.8 117.68,159.47 116.04,160.26 C115.98,160.29 115.91,160.32 115.84,160.34 C115.72,160.37 115.6,160.35 115.49,160.28 C115.35,160.2 115.21,160.05 115.09,159.84 C114.87,159.46 114.89,159.1 115.12,158.96 C115.4,158.78 115.71,158.66 115.96,158.45 C117.23,157.36 117.68,155.56 117.32,153.05 C117.18,152.15 117.12,151.28 117.05,150.41 C117.02,149.89 117.24,149.71 117.59,149.91z "/><path id="_R_G_L_6_G_D_3_P_0" fill="#ffffff" fill-opacity="1" fill-rule="nonzero" d=" M128.36 168.07 C128.4,168.09 128.45,168.12 128.49,168.15 C128.78,168.38 128.91,168.69 128.95,169.07 C128.92,169.16 128.89,169.27 128.85,169.37 C127.91,171.53 126.55,173.14 124.8,174.21 C124.63,174.32 124.46,174.31 124.29,174.21 C124.16,174.14 124.04,174.01 123.93,173.83 C123.69,173.43 123.69,173.04 123.98,172.87 C125.66,171.84 126.94,170.29 127.84,168.23 C127.94,168 128.11,167.92 128.36,168.07z "/><path id="_R_G_L_6_G_D_4_P_0" fill="#ffffff" fill-opacity="1" fill-rule="nonzero" d=" M115.01 138.03 C115.14,138.1 115.33,138.34 115.44,138.51 C115.64,138.85 115.58,139.1 115.46,139.3 C114.81,140.38 114.31,141.62 113.98,143.02 C113.32,145.82 113.31,149.01 113.96,152.57 C113.98,152.66 114,152.75 114.01,152.84 C114.06,153.26 113.9,153.47 113.6,153.38 C113.55,153.36 113.5,153.34 113.45,153.31 C113.2,153.17 112.98,152.86 112.93,152.49 C112.75,151.27 112.57,150.04 112.44,148.84 C112.36,148.15 112.37,147.49 112.36,147.16 C112.38,143.39 113.07,140.51 114.43,138.21 C114.53,138.05 114.74,137.97 114.95,138 C114.96,138.01 114.99,138.01 115.01,138.03z "/><path id="_R_G_L_6_G_D_5_P_0" fill="#ffffff" fill-opacity="1" fill-rule="nonzero" d=" M127.23 157.11 C127.53,157.28 127.73,157.65 127.78,158.18 C128.35,164.97 126.59,169.45 122.57,171.69 C122.42,171.77 122.25,171.76 122.09,171.67 C121.95,171.59 121.81,171.44 121.7,171.24 C121.47,170.82 121.49,170.48 121.81,170.32 C124.43,168.93 126.04,166.35 126.6,162.54 C126.71,161.74 126.75,160.88 126.82,160.11 C126.76,159.26 126.72,158.49 126.67,157.71 C126.63,157.13 126.78,156.9 127.13,157.06 C127.17,157.07 127.2,157.09 127.23,157.11z "/><path id="_R_G_L_6_G_D_6_P_0" fill="#ffffff" fill-opacity="1" fill-rule="nonzero" d=" M140.23 176.13 C140.25,176.14 140.28,176.16 140.31,176.18 C140.5,176.34 140.66,176.67 140.82,176.92 C140.86,176.98 140.85,177.07 140.86,177.16 C140.82,177.32 140.77,177.5 140.72,177.67 C140.23,179.38 139.59,180.93 138.8,182.33 C138.73,182.46 138.59,182.61 138.45,182.57 C138.41,182.55 138.36,182.53 138.31,182.5 C138.16,182.41 137.98,182.26 137.86,182.1 C137.63,181.77 137.66,181.48 137.77,181.25 C138.16,180.44 138.57,179.65 138.92,178.8 C139.24,178.03 139.48,177.19 139.74,176.37 C139.82,176.12 139.98,175.98 140.23,176.13z "/><path id="_R_G_L_6_G_D_7_P_0" fill="#ffffff" fill-opacity="1" fill-rule="nonzero" d=" M136.51 168.32 C136.52,168.33 136.53,168.34 136.55,168.35 C136.87,168.56 137.07,168.96 137.05,169.42 C136.86,171.2 136.5,172.88 135.98,174.45 C135.23,176.67 134.19,178.56 132.86,180.11 C132.8,180.19 132.73,180.25 132.67,180.32 C132.51,180.49 132.31,180.51 132.12,180.4 C132.01,180.34 131.91,180.24 131.81,180.1 C131.54,179.72 131.52,179.35 131.75,179.07 C132.2,178.48 132.68,177.9 133.09,177.27 C134.6,174.95 135.54,172.08 135.94,168.71 C135.99,168.27 136.19,168.14 136.51,168.32z "/><path id="_R_G_L_6_G_D_8_P_0" fill="#ffffff" fill-opacity="1" fill-rule="nonzero" d=" M131.62 157.36 C131.88,157.51 132.11,157.86 132.16,158.26 C132.27,159.07 132.39,159.87 132.45,160.65 C132.53,161.59 132.55,162.49 132.59,163.14 C132.5,169.5 130.72,173.88 127.23,176.52 C127.06,176.65 126.87,176.66 126.7,176.56 C126.57,176.49 126.46,176.36 126.35,176.19 C126.09,175.78 126.1,175.4 126.4,175.19 C129.19,173.09 130.85,169.76 131.33,165.16 C131.56,163.04 131.48,160.74 131.13,158.31 C131.11,158.16 131.09,158.01 131.07,157.86 C131.01,157.41 131.2,157.19 131.53,157.32 C131.56,157.33 131.59,157.35 131.62,157.36z "/><path id="_R_G_L_6_G_D_9_P_0" fill="#ffffff" fill-opacity="1" fill-rule="nonzero" d=" M124.28 142.7 C124.38,142.76 124.49,142.86 124.61,143.02 C124.83,143.34 124.9,143.65 124.79,143.87 C124.71,144 124.56,144.06 124.43,144.12 C122.9,144.73 121.79,145.93 121.12,147.72 C120.46,149.5 120.32,151.63 120.68,154.1 C121.38,158.89 120.26,161.94 117.36,163.25 C117.29,163.28 117.22,163.32 117.14,163.33 C117.03,163.35 116.91,163.32 116.8,163.25 C116.64,163.16 116.49,163 116.39,162.8 C116.2,162.42 116.21,162.09 116.43,161.95 C116.5,161.9 116.59,161.88 116.67,161.84 C118.69,160.98 119.72,159.01 119.8,155.61 C119.71,154.86 119.54,153.72 119.45,152.62 C119.03,147.38 120.5,144.09 123.79,142.68 C123.94,142.61 124.1,142.6 124.28,142.7z "/><path id="_R_G_L_6_G_D_10_P_0" fill="#ffffff" fill-opacity="1" fill-rule="nonzero" d=" M131.61 154.66 C132.95,155.44 134.14,157.17 134.43,158.9 C134.56,159.63 134.66,160.37 134.71,161.08 C134.81,162.32 134.87,163.53 134.91,164.24 C134.83,170.86 133.18,175.48 129.93,178.53 C129.88,178.58 129.83,178.63 129.77,178.67 C129.64,178.75 129.48,178.75 129.33,178.66 C129.21,178.59 129.1,178.48 128.99,178.32 C128.75,177.97 128.71,177.57 128.9,177.37 C129.21,177.04 129.55,176.75 129.85,176.4 C133.32,172.36 134.5,166.45 133.36,158.67 C133.19,157.53 132.47,156.45 131.62,155.96 C131.5,155.89 131.37,155.83 131.25,155.78 C130.28,155.43 129.67,156.15 129.87,157.44 C130.37,160.67 130.36,163.59 129.83,166.22 C129.77,166.52 129.64,166.75 129.33,166.57 C129.12,166.45 128.89,166.14 128.76,165.89 C128.68,165.71 128.71,165.46 128.75,165.28 C129.17,163.1 129.24,160.7 128.91,158.07 C128.86,157.69 128.79,157.29 128.74,156.9 C128.48,154.98 129.51,153.86 131.03,154.4 C131.23,154.46 131.42,154.55 131.61,154.66z "/><path id="_R_G_L_6_G_D_11_P_0" fill="#ffffff" fill-opacity="1" fill-rule="nonzero" d=" M131.61 151.97 C133.93,153.31 136.15,156.37 136.69,159.58 C136.99,161.38 137.1,163.12 137.31,164.88 C137.31,164.88 137.25,164.86 137.25,164.86 C137.25,165.19 137.25,165.5 137.25,165.82 C137.24,166.33 137.03,166.49 136.67,166.29 C136.33,166.08 136.14,165.69 136.11,165.19 C136.05,163.91 135.98,162.62 135.89,161.32 C135.84,160.68 135.73,160.02 135.63,159.36 C135.24,156.96 133.61,154.46 131.68,153.3 C131.66,153.29 131.63,153.27 131.6,153.25 C129.74,152.18 128.1,152.7 127.6,154.52 C127.54,154.73 127.4,154.9 127.22,154.94 C127.18,154.95 127.11,154.93 127.05,154.89 C126.92,154.81 126.76,154.67 126.7,154.55 C126.57,154.31 126.47,153.94 126.51,153.75 C126.78,152.41 127.48,151.63 128.56,151.35 C129.5,151.11 130.56,151.36 131.61,151.97z "/><path id="_R_G_L_6_G_D_12_P_0" fill="#ffffff" fill-opacity="1" fill-rule="nonzero" d=" M131.91 149.48 C132,149.53 132.08,149.58 132.16,149.64 C132.53,149.89 132.76,150.3 132.72,150.67 C132.69,151 132.47,151.09 132.13,150.89 C131.95,150.78 131.81,150.69 131.68,150.62 C130.68,150.04 129.72,149.73 128.8,149.71 C126.16,149.65 124.76,152.2 125.27,155.81 C126.24,162.6 124.65,166.96 120.63,168.98 C120.44,169.08 120.26,169.07 120.1,168.98 C119.98,168.91 119.87,168.79 119.76,168.62 C119.48,168.2 119.52,167.8 119.82,167.61 C120.48,167.2 121.19,166.86 121.76,166.3 C124.1,163.98 124.94,160.36 124.18,155.44 C123.27,149.54 126.83,146.55 131.58,149.3 C131.69,149.36 131.8,149.42 131.91,149.48z "/><path id="_R_G_L_6_G_D_13_P_0" fill="#ffffff" fill-opacity="1" fill-rule="nonzero" d=" M135.01 152.29 C135.13,152.35 135.25,152.47 135.38,152.63 C136.16,153.58 136.84,154.62 137.41,155.74 C138.34,157.55 138.87,159.34 139.11,161.13 C139.41,163.29 139.57,165.39 139.57,167.54 C139.53,173.19 138.26,177.89 135.75,181.49 C135.54,181.79 135.33,181.87 135.11,181.74 C135.02,181.7 134.94,181.62 134.85,181.51 C134.5,181.09 134.49,180.71 134.79,180.28 C137.7,176.06 138.88,170.41 138.3,163.33 C138.21,162.31 138.09,161.27 137.93,160.22 C137.57,157.9 136.57,155.7 134.99,153.62 C134.99,153.62 134.81,153.39 134.81,153.39 C134.48,152.96 134.38,152.55 134.56,152.33 C134.66,152.19 134.82,152.18 135.01,152.29z "/><path id="_R_G_L_6_G_D_14_P_0" fill="#ffffff" fill-opacity="1" fill-rule="nonzero" d=" M145.96 167.94 C146.26,168.11 146.5,168.47 146.5,168.85 C146.52,169.88 146.5,170.88 146.5,171.9 C146.54,175.22 146.14,178.24 145.41,181.01 C145.36,181.19 145.28,181.42 145.15,181.43 C145.05,181.43 144.91,181.38 144.78,181.3 C144.68,181.25 144.59,181.18 144.52,181.1 C144.25,180.82 144.22,180.49 144.29,180.21 C144.46,179.47 144.64,178.75 144.79,177.99 C145.35,175.13 145.57,172.06 145.42,168.75 C145.41,168.59 145.4,168.43 145.4,168.28 C145.41,167.89 145.62,167.76 145.93,167.92 C145.94,167.92 145.95,167.93 145.96,167.94z "/><path id="_R_G_L_6_G_D_15_P_0" fill="#ffffff" fill-opacity="1" fill-rule="nonzero" d=" M131.61 146.63 C136.48,149.44 140.53,155.68 141.41,161.93 C141.73,164.28 141.92,166.58 141.91,168.78 C141.91,168.78 142.01,168.84 142.01,168.84 C141.84,170.59 141.68,172.35 141.51,174.09 C141.47,174.53 141.24,174.65 140.93,174.47 C140.53,174.2 140.33,173.73 140.4,173.27 C140.68,171.45 140.82,169.53 140.79,167.5 C140.75,165.12 140.58,162.67 140.04,160.08 C139.03,155.21 135.51,150.15 131.69,147.94 C131.54,147.85 131.39,147.77 131.23,147.69 C127.09,145.56 123.66,147.03 122.96,151.26 C122.77,152.42 122.78,153.68 123,155.06 C123.25,156.58 123.3,158 123.17,159.32 C123.12,159.7 122.92,159.83 122.61,159.65 C122.27,159.45 122.02,159.02 122.06,158.63 C122.21,157.11 121.97,155.4 121.78,153.71 C121.07,147.16 125.05,143.62 130.39,146 C130.81,146.19 131.21,146.39 131.61,146.63z "/><path id="_R_G_L_6_G_D_16_P_0" fill="#ffffff" fill-opacity="1" fill-rule="nonzero" d=" M141.11 154.94 C141.29,155.04 141.45,155.26 141.55,155.52 C142.05,156.83 142.59,158.15 143,159.47 C143.64,161.54 143.84,163.49 144.01,165.42 C144.15,167 144.21,168.56 144.3,170.12 C144.23,174.66 143.52,178.68 142.12,182.16 C142.12,182.16 142.1,182.23 142.1,182.23 C141.95,182.58 141.76,182.69 141.51,182.54 C141.44,182.51 141.37,182.45 141.3,182.38 C140.96,182.04 140.87,181.62 141.05,181.18 C143.22,175.72 143.7,169.13 142.44,161.39 C142.14,159.58 141.53,157.73 140.71,155.88 C140.61,155.65 140.5,155.33 140.54,155.18 C140.58,155 140.76,154.88 140.93,154.88 C140.99,154.88 141.05,154.9 141.11,154.94z "/><path id="_R_G_L_6_G_D_17_P_0" fill="#ffffff" fill-opacity="1" fill-rule="nonzero" d=" M131.67 143.9 C134.48,145.62 136.98,148.06 139.18,151.31 C139.25,151.4 139.31,151.5 139.38,151.6 C139.62,152.01 139.65,152.39 139.47,152.55 C139.36,152.65 139.21,152.64 139.05,152.55 C138.93,152.48 138.79,152.35 138.66,152.17 C137.99,151.28 137.36,150.35 136.65,149.53 C135.01,147.64 133.36,146.22 131.68,145.25 C130.25,144.42 128.8,143.92 127.34,143.75 C127.23,143.74 127.13,143.73 127.01,143.72 C126.92,143.7 126.84,143.67 126.75,143.63 C126.53,143.5 126.34,143.26 126.25,142.96 C126.12,142.55 126.23,142.23 126.57,142.3 C127.46,142.45 128.36,142.59 129.27,142.87 C130.05,143.11 130.87,143.55 131.67,143.9z "/><path id="_R_G_L_6_G_D_18_P_0" fill="#ffffff" fill-opacity="1" fill-rule="nonzero" d=" M131.65 138.59 C132.32,138.98 132.99,139.41 133.67,139.89 C133.78,139.97 133.88,140.04 133.99,140.14 C134.28,140.41 134.43,140.74 134.39,141.07 C134.35,141.38 134.15,141.48 133.84,141.3 C133.58,141.15 133.31,140.93 133.05,140.76 C132.6,140.46 132.15,140.18 131.7,139.92 C124.25,135.62 117.87,137.7 116.2,145.24 C115.95,146.34 115.89,147.6 115.74,148.74 C115.87,150.05 115.95,151.28 116.12,152.54 C116.41,154.67 116.06,156.21 114.94,157.09 C114.82,157.18 114.62,157.25 114.47,157.16 C114.29,157.05 114.05,156.78 113.94,156.55 C113.75,156.18 113.84,155.93 114.03,155.81 C114.64,155.39 115.03,154.71 115.07,153.7 C115.1,152.92 114.97,152.04 114.88,151.19 C113.7,141.07 118.56,134.92 126.46,136.54 C128.16,136.89 129.89,137.58 131.65,138.59z "/><path id="_R_G_L_6_G_D_19_P_0" fill="#ffffff" fill-opacity="1" fill-rule="nonzero" d=" M130.73 140.75 C138.44,145.2 144.76,154.4 145.99,163.57 C146.06,164.06 146.13,164.56 146.19,165.05 C146.26,165.59 146.1,165.82 145.75,165.69 C145.71,165.68 145.66,165.66 145.62,165.63 C145.34,165.47 145.14,165.11 145.08,164.63 C144.88,162.97 144.63,161.29 144.13,159.54 C142.08,152.37 137.04,145.67 131.65,142.56 C131.33,142.37 131,142.2 130.67,142.03 C124.36,138.93 119.49,141.5 118.39,147.5 C118.34,147.81 118.26,148.06 117.94,147.97 C117.89,147.96 117.83,147.94 117.78,147.91 C117.44,147.71 117.2,147.19 117.27,146.76 C117.53,145.26 117.97,143.94 118.67,142.88 C121.48,138.6 125.87,138.2 130.66,140.71 C130.68,140.72 130.71,140.74 130.73,140.75z "/><path id="_R_G_L_6_G_D_20_P_0" fill="#ffffff" fill-opacity="1" fill-rule="nonzero" d=" M136.61 142.36 C136.68,142.4 136.76,142.45 136.83,142.52 C137.35,143.02 137.86,143.52 138.36,144.07 C143.91,150.2 147.21,157.06 148.31,164.61 C148.73,167.43 148.92,170.17 148.97,172.84 C148.86,174.48 148.75,176.13 148.64,177.77 C148.64,177.77 148.62,177.92 148.62,177.92 C148.55,178.29 148.35,178.39 148.06,178.23 C148.03,178.21 148,178.19 147.97,178.17 C147.65,177.94 147.47,177.52 147.5,177.1 C147.59,176.11 147.7,175.14 147.74,174.12 C147.91,170.39 147.73,166.49 146.88,162.3 C145.44,155.26 142.02,149.1 136.8,143.84 C136.69,143.74 136.58,143.64 136.48,143.54 C136.14,143.19 136,142.79 136.1,142.49 C136.18,142.27 136.37,142.22 136.61,142.36z "/><path id="_R_G_L_6_G_D_21_P_0" fill="#ffffff" fill-opacity="1" fill-rule="nonzero" d=" M131.79 136.01 C132.24,136.26 132.7,136.54 133.16,136.84 C135.55,138.38 137.82,140.45 139.98,142.9 C140.18,143.14 140.33,143.46 140.43,143.63 C140.43,144.15 140.18,144.29 139.86,144.1 C139.77,144.05 139.67,143.97 139.57,143.86 C138.77,143.02 137.97,142.15 137.15,141.35 C135.37,139.66 133.54,138.27 131.71,137.21 C126.09,133.97 120.56,133.82 117.14,137.16 C117.09,137.21 117.03,137.27 116.98,137.31 C116.86,137.38 116.7,137.37 116.55,137.28 C116.43,137.22 116.32,137.11 116.22,136.97 C115.99,136.64 115.92,136.23 116.1,136.04 C116.38,135.75 116.67,135.47 116.99,135.23 C120.99,132.35 125.94,132.63 131.79,136.01z "/></g><g id="_R_G_L_5_G"><path id="_R_G_L_5_G_D_0_P_0" fill="#ffffff" fill-opacity="1" fill-rule="nonzero" d=" M80.43 118.19 C80.43,118.19 80.43,79.69 80.43,79.69 C80.43,79.69 85.43,76.69 85.43,76.69 C85.43,76.69 118.43,95.69 118.43,95.69 C118.43,95.69 118.43,105.19 118.43,105.19 C118.43,105.19 114.93,107.19 114.93,107.19 C114.93,107.19 92.93,95.19 92.93,95.19 C92.93,95.19 92.93,119.19 92.93,119.19 C92.93,119.19 88.93,122.19 88.93,122.19 C88.93,122.19 80.43,118.19 80.43,118.19z "/><path id="_R_G_L_5_G_D_1_P_0" fill="#cde8fd" fill-opacity="1" fill-rule="nonzero" d=" M92.91 119.69 C92.91,119.69 88.65,122.19 88.65,122.19 C88.65,122.19 88.43,92.69 88.43,92.69 C88.43,92.69 92.93,95.46 92.93,95.46 C92.93,95.46 92.91,119.69 92.91,119.69z "/><path id="_R_G_L_5_G_D_2_P_0" fill="#cde8fd" fill-opacity="1" fill-rule="nonzero" d=" M81.04 79.31 C81.04,79.31 113.84,98.36 113.84,98.36 C113.84,98.36 118.42,95.68 118.42,95.68 C118.42,95.68 85.42,76.68 85.42,76.68 C85.42,76.68 81.04,79.31 81.04,79.31z "/><path id="_R_G_L_5_G_D_3_P_0" fill="#cde8fd" fill-opacity="1" fill-rule="nonzero" d=" M113.66 106.49 C113.66,106.49 113.66,98.36 113.66,98.36 C113.66,98.36 118.43,95.68 118.43,95.68 C118.43,95.68 118.43,105.18 118.43,105.18 C118.43,105.18 114.92,107.18 114.92,107.18 C114.92,107.18 113.66,106.49 113.66,106.49z "/><path id="_R_G_L_5_G_D_4_P_0" fill="#ffffff" fill-opacity="1" fill-rule="nonzero" d=" M139.83 113.98 C139.83,113.98 173.31,132.65 173.31,132.65 C173.31,132.65 173.31,171.09 173.31,171.09 C173.31,171.09 165.61,166.94 165.61,166.94 C165.61,166.94 165.61,137.02 165.61,137.02 C165.61,137.02 139.83,122.18 139.83,122.18 C139.83,122.18 139.83,113.98 139.83,113.98z "/><path id="_R_G_L_5_G_D_5_P_0" fill="#cde8fd" fill-opacity="1" fill-rule="nonzero" d=" M139.83 113.98 C139.83,113.98 144.65,110.87 144.65,110.87 C144.65,110.87 177.68,129.98 177.68,129.98 C177.68,129.98 177.81,168.35 177.81,168.35 C177.81,168.35 173.31,171.09 173.31,171.09 C173.31,171.09 173.31,132.65 173.31,132.65 C173.31,132.65 139.83,113.98 139.83,113.98z "/><path id="_R_G_L_5_G_D_6_P_0" fill="#ffffff" fill-opacity="1" fill-rule="nonzero" d=" M80.54 147.41 C80.54,147.41 88.93,151.63 88.93,151.63 C88.93,151.63 88.93,181.3 88.93,181.3 C88.93,181.3 114.43,196.07 114.43,196.07 C114.43,196.07 114.43,204.8 114.43,204.8 C114.43,204.8 80.54,185.52 80.54,185.52 C80.54,185.52 80.54,147.41 80.54,147.41z "/><path id="_R_G_L_5_G_D_7_P_0" fill="#cde8fd" fill-opacity="1" fill-rule="nonzero" d=" M80.54 147.41 C80.54,147.41 88.93,151.63 88.93,151.63 C88.93,151.63 88.93,181.3 88.93,181.3 C88.93,181.3 114.43,196.07 114.43,196.07 C114.43,196.07 114.43,204.8 114.43,204.8 C114.43,204.8 118.81,202.3 118.81,202.3 C118.81,202.3 118.81,193.63 118.81,193.63 C118.81,193.63 92.87,179.41 92.87,179.41 C92.87,179.41 92.87,149.18 92.87,149.18 C92.87,149.18 84.93,144.96 84.93,144.96 C84.93,144.96 80.54,147.41 80.54,147.41z "/><path id="_R_G_L_5_G_D_8_P_0" fill="#ffffff" fill-opacity="1" fill-rule="nonzero" d=" M140.48 219.63 C140.48,219.63 140.48,211.18 140.48,211.18 C140.48,211.18 165.65,226.07 165.65,226.07 C165.65,226.07 165.65,196.3 165.65,196.3 C165.65,196.3 173.48,200.63 173.48,200.63 C173.48,200.63 173.48,238.57 173.48,238.57 C173.48,238.57 140.48,219.63 140.48,219.63z "/><path id="_R_G_L_5_G_D_9_P_0" fill="#cde8fd" fill-opacity="1" fill-rule="nonzero" d=" M170.28 193.76 C170.28,193.76 165.65,196.3 165.65,196.3 C165.65,196.3 173.48,200.63 173.48,200.63 C173.48,200.63 173.48,238.57 173.48,238.57 C173.48,238.57 177.46,236.13 177.46,236.13 C177.46,236.13 177.46,197.87 177.46,197.87 C177.46,197.87 170.28,193.76 170.28,193.76z "/><path id="_R_G_L_5_G_D_10_P_0" fill="#cde8fd" fill-opacity="1" fill-rule="nonzero" d=" M140.48 211.19 C140.48,211.19 144.98,208.72 144.98,208.72 C144.98,208.72 165.65,221.24 165.65,221.24 C165.65,221.24 165.65,226.07 165.65,226.07 C165.65,226.07 140.48,211.19 140.48,211.19z "/></g><g id="_R_G_L_4_G"><path id="_R_G_L_4_G_D_0_P_0" fill="#ffffff" fill-opacity="1" fill-rule="nonzero" d=" M53.71 235.8 C53.71,235.8 51.23,231.77 51.23,231.77 C50.63,230.81 50.31,229.69 50.31,228.56 C50.31,228.56 50.31,209.26 50.31,209.26 C50.31,208.9 50.37,208.55 50.49,208.22 C50.49,208.22 50.56,208.04 50.56,208.04 C50.92,207.03 51.79,206.28 52.85,206.07 C53.58,205.93 54.33,206.05 54.97,206.43 C54.97,206.43 160.73,267.36 160.73,267.36 C160.73,267.36 199.92,289.95 199.92,289.95 C201.71,290.98 203.24,292.41 204.39,294.14 C205.86,296.34 206.65,298.93 206.65,301.58 C206.65,301.58 206.65,319.34 206.65,319.34 C206.65,319.99 206.39,320.61 205.93,321.07 C205.16,321.84 203.96,322 203,321.46 C203,321.46 55.9,237.9 55.9,237.9 C55,237.4 54.25,236.67 53.71,235.8z "/><path id="_R_G_L_4_G_D_1_P_0" stroke="#2357cf" stroke-linecap="round" stroke-linejoin="round" fill="none" stroke-width="1" stroke-opacity="1" d=" M53.71 235.8 C53.71,235.8 51.23,231.77 51.23,231.77 C50.63,230.81 50.31,229.69 50.31,228.56 C50.31,228.56 50.31,209.26 50.31,209.26 C50.31,208.9 50.37,208.55 50.49,208.22 C50.49,208.22 50.56,208.04 50.56,208.04 C50.92,207.03 51.79,206.28 52.85,206.07 C53.58,205.93 54.33,206.05 54.97,206.43 C54.97,206.43 160.73,267.36 160.73,267.36 C160.73,267.36 199.92,289.95 199.92,289.95 C201.71,290.98 203.24,292.41 204.39,294.14 C205.86,296.34 206.65,298.93 206.65,301.58 C206.65,301.58 206.65,319.34 206.65,319.34 C206.65,319.99 206.39,320.61 205.93,321.07 C205.16,321.84 203.96,322 203,321.46 C203,321.46 55.9,237.9 55.9,237.9 C55,237.4 54.25,236.67 53.71,235.8z "/><path id="_R_G_L_4_G_D_2_P_0" stroke="#2357cf" stroke-linecap="round" stroke-linejoin="round" fill="none" stroke-width="1" stroke-opacity="1" d=" M160.74 297.46 C160.74,297.46 160.74,267.36 160.74,267.36 "/></g><g id="_R_G_L_3_G"><path id="_R_G_L_3_G_D_0_P_0" fill="#2357cf" fill-opacity="1" fill-rule="nonzero" d=" M62.89 223.14 C64.58,224.12 65.95,226.48 65.95,228.43 C65.94,230.37 64.56,231.16 62.87,230.18 C61.18,229.2 59.82,226.83 59.82,224.89 C59.83,222.95 61.2,222.17 62.89,223.14z "/><path id="_R_G_L_3_G_D_1_P_0" fill="#2357cf" fill-opacity="1" fill-rule="nonzero" d=" M79.71 233.07 C81.4,234.05 82.76,236.41 82.76,238.35 C82.75,240.3 81.38,241.08 79.68,240.1 C77.99,239.13 76.63,236.76 76.64,234.82 C76.64,232.87 78.01,232.09 79.71,233.07z "/><path id="_R_G_L_3_G_D_2_P_0" fill="#2357cf" fill-opacity="1" fill-rule="nonzero" d=" M96.67 242.77 C98.36,243.75 99.73,246.11 99.72,248.06 C99.72,250 98.34,250.79 96.65,249.81 C94.96,248.83 93.59,246.46 93.6,244.52 C93.61,242.58 94.98,241.8 96.67,242.77z "/><path id="_R_G_L_3_G_D_3_P_0" fill="#2357cf" fill-opacity="1" fill-rule="nonzero" d=" M113.41 252.33 C115.1,253.31 116.47,255.67 116.46,257.61 C116.46,259.56 115.08,260.34 113.39,259.36 C111.7,258.39 110.34,256.02 110.34,254.08 C110.35,252.13 111.72,251.35 113.41,252.33z "/><path id="_R_G_L_3_G_D_4_P_0" fill="#2357cf" fill-opacity="1" fill-rule="nonzero" d=" M130.22 262.33 C131.92,263.31 133.28,265.67 133.28,267.61 C133.27,269.56 131.9,270.34 130.2,269.36 C128.51,268.39 127.15,266.02 127.16,264.08 C127.16,262.13 128.53,261.35 130.22,262.33z "/><path id="_R_G_L_3_G_D_5_P_0" fill="#2357cf" fill-opacity="1" fill-rule="nonzero" d=" M146.82 271.47 C148.51,272.44 149.88,274.81 149.87,276.75 C149.87,278.69 148.49,279.48 146.8,278.5 C145.1,277.52 143.74,275.16 143.75,273.21 C143.75,271.27 145.13,270.49 146.82,271.47z "/></g><g id="_R_G_L_2_G"><path id="_R_G_L_2_G_D_0_P_0" fill="#227ae8" fill-opacity="1" fill-rule="nonzero" d=" M249.15 270.02 C249.15,270.02 249.15,282.19 249.15,282.19 C249.15,282.19 259.92,292.63 270.15,282.19 C270.15,282.19 270.15,270.02 270.15,270.02 C270.15,270.02 249.15,270.02 249.15,270.02z "/><path id="_R_G_L_2_G_D_1_P_0" fill="#0464d4" fill-opacity="1" fill-rule="nonzero" d=" M269.93 270.02 C269.93,273.45 265.32,276.24 259.65,276.24 C253.97,276.24 249.37,273.45 249.37,270.02 C249.37,266.58 253.97,263.79 259.65,263.79 C265.32,263.79 269.93,266.58 269.93,270.02z "/><path id="_R_G_L_2_G_D_2_P_0" fill="#0464d4" fill-opacity="1" fill-rule="nonzero" d=" M255.81 269.91 C260.2,274.18 263.76,269.91 263.76,269.91 C263.76,269.91 263.76,229.74 263.76,229.74 C263.76,229.74 255.59,234.63 255.59,234.63 C255.59,234.63 255.81,269.91 255.81,269.91z "/></g><g id="_R_G_L_1_G"><path id="_R_G_L_1_G_D_0_P_0" fill="#227ae8" fill-opacity="1" fill-rule="nonzero" d=" M293.15 224.29 C293.15,224.29 293.15,224.29 293.15,224.29 C293.15,223.69 293.39,223.11 293.81,222.69 C293.81,222.69 294.18,222.32 294.18,222.32 C294.34,222.16 294.53,222.02 294.73,221.91 C294.73,221.91 303.13,217.47 303.13,217.47 C303.83,217.1 304.67,217.12 305.35,217.52 C305.35,217.52 332.36,233.46 332.36,233.46 C332.69,233.65 332.97,233.94 333.17,234.27 C333.17,234.27 335.01,237.45 335.01,237.45 C335.21,237.8 335.31,238.19 335.31,238.59 C335.31,238.59 335.31,268.63 335.31,268.63 C335.31,269.48 334.84,270.26 334.08,270.65 C334.08,270.65 324.95,275.35 324.95,275.35 C324.95,275.35 311.26,242.19 311.26,242.19 C311.1,241.81 310.84,241.48 310.51,241.24 C310.51,241.24 295.91,230.34 295.91,230.34 C295.59,230.11 295.34,229.79 295.18,229.43 C295.18,229.43 293.34,225.2 293.34,225.2 C293.21,224.92 293.15,224.61 293.15,224.29z "/><path id="_R_G_L_1_G_D_1_P_0" fill="#9ecefc" fill-opacity="1" fill-rule="nonzero" d=" M296.65 222.75 C296.65,222.75 324.19,238.45 324.19,238.45 C324.58,238.67 324.88,239.03 325.04,239.45 C325.04,239.45 326.37,242.98 326.37,242.98 C326.46,243.2 326.5,243.44 326.5,243.67 C326.5,243.67 326.5,273.87 326.5,273.87 C326.5,274.62 326.07,275.3 325.4,275.62 C324.83,275.9 324.17,275.88 323.62,275.58 C323.62,275.58 294.15,259.4 294.15,259.4 C293.53,259.06 293.15,258.41 293.15,257.7 C293.15,257.7 293.15,224.98 293.15,224.98 C293.15,224.43 293.38,223.9 293.79,223.53 C293.79,223.53 294.38,223 294.38,223 C295.01,222.44 295.92,222.34 296.65,222.75z "/><path id="_R_G_L_1_G_D_2_P_0" fill="#0464d4" fill-opacity="1" fill-rule="nonzero" d=" M308.65 245.83 C308.65,245.83 268.42,268.72 268.42,268.72 C268.42,268.72 268.94,277.54 268.94,277.54 C268.94,277.54 312.42,252.06 312.42,252.06 C312.42,252.06 314.13,247.31 308.65,245.83z "/></g><g id="_R_G_L_0_G"><path id="_R_G_L_0_G_D_0_P_0" fill="#ffffff" fill-opacity="1" fill-rule="nonzero" d=" M210.36 217.24 C211.56,212.71 214.68,207.56 222.65,207.69 C222.65,207.69 245.52,223.76 240.19,239.83 C240.19,239.83 237.76,248.35 229.42,246.24 C229.42,246.24 216.16,244.42 210.9,228.73 C209.66,225.02 209.35,221.02 210.36,217.24z "/><path id="_R_G_L_0_G_D_1_P_0" stroke="#0464d4" stroke-linecap="round" stroke-linejoin="round" fill="none" stroke-width="1" stroke-opacity="1" d=" M210.36 217.24 C211.56,212.71 214.68,207.56 222.65,207.69 C222.65,207.69 245.52,223.76 240.19,239.83 C240.19,239.83 237.76,248.35 229.42,246.24 C229.42,246.24 216.16,244.42 210.9,228.73 C209.66,225.02 209.35,221.02 210.36,217.24z "/><path id="_R_G_L_0_G_D_2_P_0" fill="#3199f0" fill-opacity="1" fill-rule="nonzero" d=" M223.33 217.03 C229.05,220.34 233.69,228.36 233.67,234.95 C233.65,241.53 228.99,244.18 223.26,240.88 C217.53,237.57 212.89,229.54 212.91,222.96 C212.93,216.38 217.59,213.72 223.33,217.03z "/><path id="_R_G_L_0_G_D_3_P_0" fill="#0464d4" fill-opacity="1" fill-rule="nonzero" d=" M222.67 220.54 C226.71,222.87 229.98,228.54 229.96,233.18 C229.95,237.82 226.66,239.7 222.62,237.37 C218.57,235.03 215.31,229.37 215.32,224.73 C215.34,220.08 218.62,218.2 222.67,220.54z "/><path id="_R_G_L_0_G_D_4_P_0" stroke="#0464d4" stroke-linecap="round" stroke-linejoin="round" fill="none" stroke-width="1" stroke-opacity="1" d=" M227.66 245.83 C227.66,245.83 237.24,245.73 238.13,236.06 C239.02,226.38 230.53,214.54 230.53,214.54 C230.53,214.54 225.38,210.8 225.38,210.8 C225.38,210.8 213.04,209.46 209.81,220.57 "/><path id="_R_G_L_0_G_D_5_P_0" fill="#9ecefc" fill-opacity="1" fill-rule="nonzero" d=" M289.09 195.57 C289.09,195.57 296.3,207.74 287.87,216.17 C287.87,216.17 263.76,229.74 263.76,229.74 C263.76,229.74 236.43,245.57 236.43,245.57 C236.43,245.57 245.76,237.98 237.76,224.78 C237.76,224.78 289.09,195.57 289.09,195.57z "/><path id="_R_G_L_0_G_D_6_P_0" fill="#ffffff" fill-opacity="1" fill-rule="nonzero" d=" M223.91 224.78 C223.91,225.75 223.12,226.54 222.15,226.54 C221.18,226.54 220.39,225.75 220.39,224.78 C220.39,223.81 221.18,223.02 222.15,223.02 C223.12,223.02 223.91,223.81 223.91,224.78z "/><path id="_R_G_L_0_G_D_7_P_0" fill="#3199f0" fill-opacity="1" fill-rule="nonzero" d=" M292.62 189.44 C292.62,189.44 267.59,210.88 267.59,210.88 C267.59,210.88 232.97,223.55 232.97,223.55 C224.5,209.09 213.91,208.73 213.91,208.73 C213.91,208.73 203.98,214.36 203.98,214.36 C201.22,214.36 202.18,212.38 203.62,210.61 C204.93,209 206.55,207.68 208.34,206.65 C208.34,206.65 268.8,171.84 268.8,171.84 C280.38,171.84 288.14,181.44 292.62,189.44z "/><path id="_R_G_L_0_G_D_8_P_0" fill="#227ae8" fill-opacity="1" fill-rule="nonzero" d=" M297.32 200.05 C297.32,200.05 237.76,234.2 237.76,234.2 C236.32,229.99 234.69,226.48 232.96,223.54 C232.96,223.54 252.3,214.28 252.3,214.28 C261.22,210 269.81,205.05 277.98,199.45 C277.98,199.45 292.62,189.43 292.62,189.43 C295.81,195.15 297.32,200.05 297.32,200.05z "/></g></g><g id="time_group"/></svg>