<svg xmlns="http://www.w3.org/2000/svg" xmlns:xlink="http://www.w3.org/1999/xlink" preserveAspectRatio="xMidYMid meet" width="142" height="142" viewBox="0 0 142 142" style="width:100%;height:100%"><defs><animate repeatCount="indefinite" dur="4s" begin="0s" xlink:href="#_R_G_L_4_G" fill="freeze" attributeName="opacity" from="0" to="0" keyTimes="0;0.07;0.25;0.33;0.44;0.52;1" values="0;0;0;0.99;0.99;0;0" keySplines="0.167 0.167 0.833 0.833;0.167 0.167 0.833 0.833;0.167 0.167 0.833 0.833;0.167 0.167 0.833 0.833;0.167 0.167 0.833 0.833;0 0 0 0" calcMode="spline"/><animate repeatCount="indefinite" dur="4s" begin="0s" xlink:href="#_R_G_L_3_G" fill="freeze" attributeName="opacity" from="0" to="0" keyTimes="0;0.07;0.25;0.52;0.7;1" values="0;0;1;1;0;0" keySplines="0.167 0.167 0.833 0.833;0.167 0.167 0.833 0.833;0.167 0.167 0.833 0.833;0.167 0.167 0.833 0.833;0 0 0 0" calcMode="spline"/><animate repeatCount="indefinite" dur="4s" begin="0s" xlink:href="#_R_G_L_2_G" fill="freeze" attributeName="opacity" from="1" to="1" keyTimes="0;0.25;0.75;0.82;0.9;0.99;1" values="1;1;1;0;0;1;1" keySplines="0.167 0.167 0.833 0.833;0.167 0.167 0.833 0.833;0.167 0.167 0.833 0.833;0.167 0.167 0.833 0.833;0.167 0.167 0.833 0.833;0 0 0 0" calcMode="spline"/><animateMotion repeatCount="indefinite" dur="4s" begin="0s" xlink:href="#_R_G_L_1_G" fill="freeze" keyTimes="0;0.2;0.3;0.44;0.61;1" path="M71 71 C71.08,71 71.5,71 71.5,71 C71.5,71 70.59,71 70.55,71 C70.49,71 70.93,71 71,71 C71,71 71.03,71 71,71 C71,71 71,71 71,71 " keyPoints="0;0.26;0.75;0.99;1;1" keySplines="0.167 0.167 0.833 0.833;0.167 0.167 0.833 0.833;0.167 0.167 0.833 0.833;0.167 0.167 0.833 0.833;0 0 0 0" calcMode="spline"/><animateTransform repeatCount="indefinite" dur="4s" begin="0s" xlink:href="#_R_G_L_1_G" fill="freeze" attributeName="transform" from="-71 -71" to="-71 -71" type="translate" additive="sum" keyTimes="0;1" values="-71 -71;-71 -71" keySplines="0 0 1 1" calcMode="spline"/><animate attributeType="XML" attributeName="opacity" dur="4s" from="0" to="1" xlink:href="#time_group"/></defs><g id="_R_G"><g id="_R_G_L_4_G"><path id="_R_G_L_4_G_D_0_P_0" stroke="#007fdf" stroke-linecap="round" stroke-linejoin="round" fill="none" stroke-width="2" stroke-opacity="1" d=" M57.08 34.74 C60.49,24.06 71.9,18.16 82.58,21.57 C93.26,24.97 99.15,36.39 95.75,47.07 "/></g><g id="_R_G_L_3_G"><path id="_R_G_L_3_G_D_0_P_0" stroke="#007fdf" stroke-linecap="round" stroke-linejoin="round" fill="none" stroke-width="2" stroke-opacity="1" d=" M60.53 37.53 C63.25,29.03 72.33,24.34 80.83,27.05 C89.33,29.76 94.03,38.85 91.31,47.35 "/></g><g id="_R_G_L_2_G"><path id="_R_G_L_2_G_D_0_P_0" stroke="#007fdf" stroke-linecap="round" stroke-linejoin="round" fill="none" stroke-width="2" stroke-opacity="1" d=" M64.8 39.44 C66.73,33.38 73.2,30.04 79.26,31.97 C85.32,33.9 88.67,40.38 86.73,46.44 "/></g><g id="_R_G_L_1_G"><path id="_R_G_L_1_G_D_0_P_0" fill="#007fdf" fill-opacity="1" fill-rule="nonzero" d=" M103.56 100.31 C101.47,100.31 99.78,102 99.78,104.09 C99.78,106.17 101.47,107.87 103.56,107.87 C105.65,107.87 107.34,106.17 107.34,104.09 C107.34,102 105.65,100.31 103.56,100.31z  M102.74 104.47 C101.88,104.47 101.19,103.78 101.19,102.92 C101.19,102.06 101.88,101.35 102.74,101.35 C103.61,101.35 104.31,102.06 104.31,102.92 C104.31,103.78 103.61,104.47 102.74,104.47z "/></g><g id="_R_G_L_0_G"><path id="_R_G_L_0_G_D_0_P_0" fill="#007fdf" fill-opacity="1" fill-rule="nonzero" d=" M103.56 82.44 C91.88,82.44 82.36,91.95 82.36,103.64 C82.36,115.32 91.88,124.83 103.56,124.83 C115.25,124.83 124.76,115.32 124.76,103.64 C124.76,91.95 115.25,82.44 103.56,82.44z  M103.56 122.1 C93.38,122.1 85.09,113.82 85.09,103.64 C85.09,93.45 93.38,85.17 103.56,85.17 C113.74,85.17 122.02,93.45 122.02,103.64 C122.02,113.82 113.74,122.1 103.56,122.1z "/><path id="_R_G_L_0_G_D_1_P_0" fill="#007fdf" fill-opacity="1" fill-rule="nonzero" d=" M117.71 103.05 C114.79,98.01 109.36,94.87 103.56,94.87 C97.75,94.87 92.32,98.01 89.41,103.05 C89.19,103.41 89.19,103.86 89.41,104.23 C92.32,109.28 97.75,112.4 103.56,112.4 C109.36,112.4 114.79,109.28 117.71,104.23 C117.92,103.86 117.92,103.41 117.71,103.05z  M91.3 103.64 C93.2,100.7 96.08,98.6 99.36,97.61 C97.38,98.94 96.07,101.21 96.07,103.78 C96.07,106.05 97.09,108.1 98.71,109.46 C95.7,108.39 93.07,106.38 91.3,103.64z  M103.49 109.68 C100.24,109.68 97.58,107.04 97.58,103.78 C97.58,100.52 100.24,97.87 103.49,97.87 C106.74,97.87 109.39,100.52 109.39,103.78 C109.39,107.04 106.74,109.68 103.49,109.68z  M108.17 109.53 C109.85,108.17 110.92,106.1 110.92,103.78 C110.92,101.14 109.53,98.83 107.46,97.51 C110.85,98.46 113.86,100.61 115.81,103.64 C114,106.44 111.28,108.48 108.17,109.53z "/><path id="_R_G_L_0_G_D_2_P_0" fill="#007fdf" fill-opacity="1" fill-rule="nonzero" d=" M27.03 78.97 C27.03,78.97 31.52,88.19 31.52,88.19 C31.52,88.19 41.79,83.7 41.79,83.7 C41.79,83.7 33.22,76.39 33.22,76.39 C33.22,76.39 27.03,78.97 27.03,78.97z "/><path id="_R_G_L_0_G_D_3_P_0" fill="#007fdf" fill-opacity="1" fill-rule="nonzero" d=" M103.56 79.7 C104.07,79.7 104.56,79.75 105.05,79.78 C105.05,79.78 105.05,75.75 105.05,75.75 C105.05,73.32 103.09,71.36 100.66,71.36 C98.24,71.36 96.27,73.32 96.27,75.75 C96.27,75.75 96.27,77.57 96.27,77.57 C95.99,77.54 95.73,77.49 95.44,77.49 C95.44,77.49 74.31,77.49 74.31,77.49 C73.59,77.49 72.94,77.63 72.3,77.83 C71.88,75.71 70.65,73.88 68.96,72.67 C68.96,72.67 85.53,64.62 85.53,64.62 C86.53,64.13 87.02,62.98 86.65,61.92 C86.65,61.92 81.26,46.42 81.26,46.42 C81.2,46.26 81.13,46.11 81.03,45.96 C80.92,45.79 78.3,41.81 73.12,41.81 C68.69,41.81 65.66,43.05 65.41,43.17 C65.41,43.17 17.59,66.97 17.59,66.97 C16.93,67.29 16.48,67.9 16.38,68.61 C16.27,69.33 16.53,70.05 17.07,70.54 C17.07,70.54 22.9,75.94 22.9,75.94 C23.52,76.51 24.42,76.67 25.21,76.36 C25.21,76.36 34.58,72.62 34.58,72.62 C34.58,72.62 45.61,82.48 45.61,82.48 C46.02,82.84 46.54,83.04 47.08,83.04 C47.4,83.04 47.72,82.97 48.03,82.81 C48.03,82.81 55.76,79.07 55.76,79.07 C55.75,79.19 55.72,79.32 55.72,79.46 C55.72,84.07 59.47,87.83 64.09,87.83 C65.61,87.83 67.02,87.39 68.24,86.67 C69.26,89.03 71.59,90.68 74.31,90.68 C74.31,90.68 83.47,90.68 83.47,90.68 C87.74,84.08 95.13,79.7 103.56,79.7z  M64.09 83.44 C61.89,83.44 60.11,81.65 60.11,79.46 C60.11,77.26 61.89,75.47 64.09,75.47 C66.28,75.47 68.08,77.26 68.08,79.46 C68.08,81.65 66.28,83.44 64.09,83.44z "/></g></g><g id="time_group"/></svg>