<svg xmlns="http://www.w3.org/2000/svg" xmlns:xlink="http://www.w3.org/1999/xlink" preserveAspectRatio="xMidYMid meet" width="142" height="142" viewBox="0 0 142 142" style="width:100%;height:100%"><defs><animate repeatCount="indefinite" dur="0.6s" begin="0s" xlink:href="#_R_G_L_3_G" fill="freeze" attributeName="opacity" from="0" to="0" keyTimes="0;0.6;0.7333333;0.8666667;1" values="0;0;1;1;0" keySplines="0.167 0.167 0.833 0.833;0.167 0.167 0.833 0.833;0.167 0.167 0.833 0.833;0.167 0.167 0.833 0.833" calcMode="spline"/><animate repeatCount="indefinite" dur="0.6s" begin="0s" xlink:href="#_R_G_L_2_G" fill="freeze" attributeName="opacity" from="0" to="0" keyTimes="0;0.2;0.3333333;0.4666667;0.6;1" values="0;0;1;1;0;0" keySplines="0.167 0.167 0.833 0.833;0.167 0.167 0.833 0.833;0.167 0.167 0.833 0.833;0.167 0.167 0.833 0.833;0 0 0 0" calcMode="spline"/><animate repeatCount="indefinite" dur="0.6s" begin="0s" xlink:href="#_R_G_L_1_G" fill="freeze" attributeName="opacity" from="0" to="0" keyTimes="0;0.1333333;0.2666667;0.4;1" values="0;1;1;0;0" keySplines="0.167 0.167 0.833 0.833;0.167 0.167 0.833 0.833;0.167 0.167 0.833 0.833;0 0 0 0" calcMode="spline"/><animate attributeType="XML" attributeName="opacity" dur="1s" from="0" to="1" xlink:href="#time_group"/></defs><g id="_R_G"><g id="_R_G_L_3_G"><path id="_R_G_L_3_G_D_0_P_0" fill="#007fdf" fill-opacity="1" fill-rule="nonzero" d=" M56.93 83.34 C56.47,84.19 55.97,84.99 55.48,85.81 C54.97,86.62 54.45,87.42 53.92,88.22 C53.92,88.22 53.58,87.56 53.58,87.56 C55.91,87.43 58.24,87.37 60.57,87.35 C60.57,87.35 61.51,87.34 61.51,87.34 C61.51,87.34 60.97,88.1 60.97,88.1 C59.43,90.27 57.83,92.39 56.08,94.41 C57.33,92.05 58.72,89.78 60.18,87.56 C60.18,87.56 60.59,88.31 60.59,88.31 C58.26,88.39 55.93,88.43 53.6,88.39 C53.6,88.39 52.75,88.38 52.75,88.38 C52.75,88.38 53.25,87.73 53.25,87.73 C53.84,86.99 54.44,86.24 55.05,85.51 C55.67,84.78 56.28,84.04 56.93,83.34z "/></g><g id="_R_G_L_2_G"><path id="_R_G_L_2_G_D_0_P_0" fill="#007fdf" fill-opacity="1" fill-rule="nonzero" d=" M90.88 57.69 C90.42,58.53 89.91,59.34 89.42,60.16 C88.92,60.97 88.4,61.77 87.87,62.56 C87.87,62.56 87.53,61.91 87.53,61.91 C89.85,61.77 92.18,61.71 94.51,61.69 C94.51,61.69 95.46,61.69 95.46,61.69 C95.46,61.69 94.92,62.44 94.92,62.44 C93.38,64.61 91.77,66.73 90.03,68.76 C91.28,66.39 92.67,64.12 94.13,61.9 C94.13,61.9 94.53,62.65 94.53,62.65 C92.21,62.73 89.88,62.77 87.54,62.73 C87.54,62.73 86.7,62.72 86.7,62.72 C86.7,62.72 87.2,62.08 87.2,62.08 C87.79,61.33 88.39,60.58 89,59.85 C89.62,59.13 90.23,58.39 90.88,57.69z "/></g><g id="_R_G_L_1_G"><path id="_R_G_L_1_G_D_0_P_0" fill="#007fdf" fill-opacity="1" fill-rule="nonzero" d=" M56.93 44.42 C56.47,45.26 55.97,46.07 55.48,46.89 C54.97,47.7 54.45,48.5 53.92,49.3 C53.92,49.3 53.58,48.64 53.58,48.64 C55.91,48.51 58.24,48.45 60.57,48.43 C60.57,48.43 61.51,48.42 61.51,48.42 C61.51,48.42 60.97,49.18 60.97,49.18 C59.43,51.35 57.83,53.47 56.08,55.49 C57.33,53.13 58.72,50.86 60.18,48.64 C60.18,48.64 60.59,49.39 60.59,49.39 C58.26,49.47 55.93,49.5 53.6,49.47 C53.6,49.47 52.75,49.46 52.75,49.46 C52.75,49.46 53.25,48.81 53.25,48.81 C53.84,48.06 54.44,47.32 55.05,46.58 C55.67,45.86 56.28,45.12 56.93,44.42z "/></g><g id="_R_G_L_0_G"><path id="_R_G_L_0_G_D_0_P_0" fill="#007fdf" fill-opacity="1" fill-rule="nonzero" d=" M37.2 63.72 C37.69,62.57 38.57,62.12 39.82,62.18 C41.07,62.25 42.33,62.23 43.59,62.19 C44.76,62.15 45.58,62.6 45.96,63.68 C46.3,63.6 46.62,63.46 46.94,63.46 C50.29,63.45 53.63,63.44 56.98,63.47 C57.31,63.47 57.63,63.65 57.99,63.76 C63.12,52.38 79.54,51.7 85.37,63.75 C85.75,63.65 86.1,63.47 86.45,63.47 C89.78,63.44 93.1,63.45 96.42,63.46 C96.73,63.46 97.04,63.58 97.43,63.66 C97.83,62.42 98.88,62.12 100.18,62.18 C101.43,62.24 102.69,62.19 103.95,62.2 C105.3,62.21 106.19,63.04 106.19,64.27 C106.18,65.49 105.29,66.31 103.93,66.31 C102.51,66.32 101.1,66.32 99.68,66.31 C98.34,66.31 97.68,65.78 97.37,64.49 C97.37,64.49 85.66,64.49 85.66,64.49 C87.17,68.5 87.12,72.42 85.51,76.36 C85.77,76.37 85.96,76.39 86.15,76.39 C89.56,76.39 92.98,76.39 96.39,76.4 C96.72,76.4 97.05,76.52 97.43,76.6 C97.8,75.51 98.69,75.08 99.94,75.13 C101.28,75.18 102.63,75.13 103.98,75.14 C105.29,75.15 106.17,75.97 106.19,77.17 C106.2,78.4 105.31,79.25 103.96,79.26 C102.57,79.27 101.18,79.26 99.79,79.26 C98.34,79.26 97.72,78.78 97.34,77.39 C97.02,77.44 96.7,77.52 96.38,77.52 C93.01,77.53 89.64,77.53 86.28,77.51 C85.91,77.51 85.55,77.31 85.14,77.2 C79.42,88.36 63.87,88.26 58.22,77.16 C57.87,77.29 57.55,77.5 57.23,77.51 C53.77,77.53 50.32,77.53 46.86,77.52 C46.6,77.52 46.34,77.43 46.08,77.38 C45.5,78.97 45.08,79.26 43.32,79.26 C42.15,79.26 40.98,79.21 39.81,79.27 C38.56,79.35 37.69,78.89 37.2,77.73 C37.2,77.73 37.2,76.66 37.2,76.66 C37.7,75.51 38.56,75.05 39.82,75.13 C41.03,75.2 42.24,75.19 43.45,75.13 C44.7,75.07 45.59,75.51 45.96,76.59 C46.34,76.52 46.68,76.4 47.01,76.4 C50.44,76.39 53.87,76.39 57.31,76.39 C57.47,76.39 57.64,76.37 57.88,76.36 C56.26,72.42 56.22,68.5 57.72,64.49 C57.72,64.49 46.03,64.49 46.03,64.49 C45.68,65.81 45.05,66.31 43.65,66.31 C42.38,66.32 41.09,66.26 39.82,66.33 C38.56,66.4 37.7,65.94 37.2,64.8 C37.2,64.8 37.2,63.72 37.2,63.72z  M71.68 82.8 C78.5,82.82 84.08,77.18 84.1,70.27 C84.11,63.36 78.57,57.72 71.74,57.69 C64.92,57.66 59.31,63.29 59.29,70.19 C59.27,77.14 64.82,82.79 71.68,82.8z "/><path id="_R_G_L_0_G_D_1_P_0" fill="#007fdf" fill-opacity="1" fill-rule="nonzero" d=" M37.2 89.59 C37.71,88.45 38.58,88 39.83,88.07 C41.06,88.14 42.3,88.12 43.53,88.08 C44.73,88.03 45.58,88.46 45.96,89.58 C46.3,89.49 46.62,89.34 46.94,89.34 C63.44,89.33 79.94,89.33 96.44,89.34 C96.75,89.34 97.06,89.47 97.42,89.56 C97.8,88.42 98.73,88.02 99.99,88.07 C101.34,88.13 102.69,88.08 104.03,88.09 C105.29,88.1 106.17,88.93 106.19,90.1 C106.2,91.31 105.33,92.19 104.04,92.2 C102.61,92.23 101.17,92.21 99.74,92.21 C98.34,92.2 97.68,91.67 97.37,90.38 C97.37,90.38 46.04,90.38 46.04,90.38 C45.59,91.83 45.07,92.21 43.44,92.21 C42.23,92.21 41.01,92.16 39.81,92.22 C38.55,92.29 37.69,91.83 37.2,90.67 C37.2,90.67 37.2,89.59 37.2,89.59z "/><path id="_R_G_L_0_G_D_2_P_0" fill="#007fdf" fill-opacity="1" fill-rule="nonzero" d=" M37.2 50.79 C37.69,49.62 38.56,49.17 39.81,49.23 C41.06,49.29 42.32,49.27 43.58,49.24 C44.75,49.21 45.58,49.64 45.95,50.74 C46.29,50.66 46.61,50.52 46.93,50.52 C63.44,50.51 79.94,50.51 96.44,50.52 C96.75,50.52 97.06,50.64 97.43,50.72 C97.8,49.58 98.74,49.19 100,49.24 C101.32,49.29 102.65,49.24 103.97,49.25 C105.31,49.26 106.2,50.12 106.19,51.34 C106.17,52.54 105.28,53.36 103.97,53.37 C102.58,53.38 101.19,53.37 99.8,53.37 C98.34,53.37 97.71,52.89 97.35,51.55 C97.35,51.55 46.03,51.55 46.03,51.55 C45.99,51.68 45.94,51.91 45.84,52.13 C45.47,52.95 44.83,53.36 43.93,53.37 C42.59,53.37 41.24,53.31 39.9,53.39 C38.63,53.46 37.72,53.04 37.2,51.86 C37.2,51.86 37.2,50.79 37.2,50.79z "/><path id="_R_G_L_0_G_D_3_P_0" fill="#007fdf" fill-opacity="1" fill-rule="nonzero" d=" M71.7 58.84 C77.92,58.85 82.98,63.96 82.98,70.25 C82.98,76.54 77.91,81.66 71.69,81.66 C65.47,81.66 60.41,76.53 60.41,70.25 C60.41,63.96 65.47,58.84 71.7,58.84z  M73.1 63.78 C73.05,63.77 73.01,63.75 72.96,63.74 C71.15,66.13 69.34,68.53 67.42,71.08 C67.42,71.08 71.68,71.08 71.68,71.08 C71.35,73.02 71.04,74.86 70.72,76.7 C70.76,76.72 70.81,76.74 70.85,76.76 C73.13,74.24 75.4,71.73 77.8,69.08 C77.8,69.08 73.1,69.08 73.1,69.08 C73.1,69.08 73.1,63.78 73.1,63.78z "/></g></g><g id="time_group"/></svg>