<svg xmlns="http://www.w3.org/2000/svg" xmlns:xlink="http://www.w3.org/1999/xlink" preserveAspectRatio="xMidYMid meet" width="142" height="142" viewBox="0 0 142 142" style="width:100%;height:100%"><defs><animateMotion repeatCount="indefinite" dur="2s" begin="0s" xlink:href="#_R_G_L_2_G" fill="freeze" keyTimes="0;0.08;0.16;1" path="M71 71 C70.67,70.67 69,69 69,69 C69,69 70.67,70.67 71,71 C71,71 71,71 71,71 " keyPoints="0;0.5;1;1" keySplines="0.167 0.167 0.833 0.833;0.167 0.167 0.833 0.833;0 0 0 0" calcMode="spline"/><animateTransform repeatCount="indefinite" dur="2s" begin="0s" xlink:href="#_R_G_L_2_G" fill="freeze" attributeName="transform" from="1 1" to="1 1" type="scale" additive="sum" keyTimes="0;0.08;0.16;1" values="1 1;1.12 1.12;1 1;1 1" keySplines="0.167 0.167 0.833 0.833;0.167 0.167 0.833 0.833;0 0 0 0" calcMode="spline"/><animateTransform repeatCount="indefinite" dur="2s" begin="0s" xlink:href="#_R_G_L_2_G" fill="freeze" attributeName="transform" from="-71 -71" to="-71 -71" type="translate" additive="sum" keyTimes="0;1" values="-71 -71;-71 -71" keySplines="0 0 1 1" calcMode="spline"/><animate repeatCount="indefinite" dur="2s" begin="0s" xlink:href="#_R_G_L_1_G" fill="freeze" attributeName="opacity" from="0" to="0" keyTimes="0;0.16;0.36;0.56;0.7;0.8;1" values="0;0;0;1;1;0;0" keySplines="0.167 0.167 0.833 0.833;0.167 0.167 0.833 0.833;0.167 0.167 0.833 0.833;0.167 0.167 0.833 0.833;0.167 0.167 0.833 0.833;0 0 0 0" calcMode="spline"/><animate repeatCount="indefinite" dur="2s" begin="0s" xlink:href="#_R_G_L_0_G" fill="freeze" attributeName="opacity" from="0" to="0.01" keyTimes="0;0.16;0.36;0.84;1" values="0;0;1;1;0.01" keySplines="0.167 0.167 0.833 0.833;0.167 0.167 0.833 0.833;0.167 0.167 0.833 0.833;0.167 0.167 0.833 0.833" calcMode="spline"/><animate attributeType="XML" attributeName="opacity" dur="2s" from="0" to="1" xlink:href="#time_group"/></defs><g id="_R_G"><g id="_R_G_L_3_G"><path id="_R_G_L_3_G_D_0_P_0" fill="#007fdf" fill-opacity="1" fill-rule="nonzero" d=" M108.42 53.59 C108.42,53.59 72.93,26.76 72.93,26.76 C71.86,25.95 70.38,25.95 69.31,26.76 C69.31,26.76 33.58,53.79 33.58,53.79 C32.55,54.56 32.13,55.91 32.54,57.13 C32.95,58.36 34.1,59.18 35.38,59.18 C35.38,59.18 43.55,59.18 43.55,59.18 C43.55,59.18 43.55,83.82 43.55,83.82 C43.55,85.47 44.9,86.81 46.56,86.81 C46.56,86.81 81.58,86.81 81.58,86.81 C81.58,86.81 81.58,75.12 81.58,75.12 C81.58,72.01 84.1,69.49 87.22,69.49 C90.32,69.49 92.85,72.01 92.85,75.12 C92.85,75.12 92.85,79.38 92.85,79.38 C95.5,79.6 97.7,81.49 98.38,84 C98.47,83.99 98.57,84 98.67,84 C98.68,83.94 98.7,83.88 98.7,83.82 C98.7,83.82 98.7,59.18 98.7,59.18 C98.7,59.18 106.85,59.18 106.85,59.18 C106.85,59.18 106.89,59.18 106.89,59.18 C108.54,59.18 109.89,57.83 109.89,56.18 C109.89,55.08 109.3,54.12 108.42,53.59z  M71.12 79.06 C68.64,79.06 66.63,77.05 66.63,74.57 C66.63,72.09 68.64,70.08 71.12,70.08 C73.61,70.08 75.61,72.09 75.61,74.57 C75.61,77.05 73.61,79.06 71.12,79.06z  M80.85 68.06 C80.5,68.41 80.04,68.59 79.6,68.59 C79.14,68.59 78.68,68.41 78.34,68.06 C76.41,66.13 73.85,65.07 71.13,65.07 C68.4,65.07 65.83,66.13 63.9,68.06 C63.21,68.75 62.09,68.75 61.4,68.06 C60.71,67.38 60.71,66.26 61.4,65.56 C64,62.97 67.45,61.54 71.13,61.54 C74.79,61.54 78.24,62.97 80.85,65.56 C81.53,66.26 81.53,67.38 80.85,68.06z  M83.58 61.63 C83.23,61.97 82.78,62.15 82.34,62.15 C81.88,62.15 81.43,61.97 81.09,61.63 C75.59,56.14 66.65,56.14 61.17,61.63 C60.47,62.32 59.35,62.32 58.67,61.63 C57.97,60.94 57.97,59.82 58.67,59.13 C65.53,52.26 76.71,52.26 83.58,59.13 C84.27,59.82 84.27,60.94 83.58,61.63z  M87.43 55.07 C87.08,55.42 86.63,55.58 86.19,55.58 C85.73,55.58 85.28,55.42 84.94,55.07 C77.32,47.46 64.92,47.46 57.32,55.07 C56.63,55.76 55.5,55.76 54.81,55.07 C54.13,54.38 54.13,53.27 54.81,52.58 C63.81,43.58 78.44,43.58 87.43,52.58 C88.12,53.27 88.12,54.38 87.43,55.07z "/></g><g id="_R_G_L_2_G"><path id="_R_G_L_2_G_D_0_P_0" fill="#007fdf" fill-opacity="1" fill-rule="nonzero" d=" M93.47 115.58 C90.18,115.58 87.51,114.53 87,114.33 C86.36,114.06 85.82,113.62 85.43,113.04 C85.43,113.04 74,96.2 74,96.2 C73.03,94.75 73.24,92.83 74.51,91.62 C75.74,90.47 77.75,90.36 79.1,91.39 C79.1,91.39 83.92,95.07 83.92,95.07 C83.92,95.07 83.92,76.77 83.92,76.77 C83.92,74.81 85.51,73.22 87.47,73.22 C89.43,73.22 91.02,74.81 91.02,76.77 C91.02,76.77 91.02,82.39 91.02,82.39 C91.38,82.3 91.76,82.24 92.13,82.24 C94.42,82.24 96.28,84.11 96.28,86.39 C96.28,86.39 96.28,86.91 96.28,86.91 C96.93,86.59 97.67,86.43 98.46,86.48 C100.37,86.63 101.9,88.08 102.23,89.89 C103.12,89.55 104.2,89.59 105.09,90.02 C106.57,90.74 107.35,92.38 106.99,93.98 C106.99,93.98 103.43,109.82 103.43,109.82 C103.32,110.32 103.11,110.79 102.8,111.2 C100.64,114.06 97.41,115.58 93.47,115.58z  M76.95 92.95 C76.63,92.95 76.31,93.07 76.09,93.3 C75.63,93.73 75.55,94.41 75.9,94.92 C75.9,94.92 87.32,111.76 87.32,111.76 C87.46,111.96 87.66,112.11 87.88,112.21 C88.15,112.32 90.55,113.29 93.47,113.29 C96.66,113.29 99.27,112.08 100.98,109.81 C101.09,109.66 101.16,109.5 101.2,109.33 C101.2,109.33 104.76,93.48 104.76,93.48 C104.89,92.91 104.61,92.33 104.09,92.07 C103.57,91.82 102.91,91.96 102.56,92.4 C102.56,92.4 101.9,93.19 101.9,93.19 C101.59,93.56 101.05,93.7 100.59,93.51 C100.14,93.32 99.84,92.86 99.88,92.37 C99.88,92.37 100,90.76 100,90.76 C100.08,89.74 99.3,88.84 98.27,88.76 C98.27,88.76 98.13,88.76 98.13,88.76 C97.16,88.76 96.36,89.5 96.28,90.49 C96.28,90.49 96.28,90.6 96.28,90.6 C96.23,91.23 95.67,91.7 95.09,91.67 C94.48,91.66 93.99,91.15 93.99,90.53 C93.99,90.53 93.99,86.39 93.99,86.39 C93.99,85.37 93.16,84.53 92.13,84.53 C91.6,84.53 91.1,84.75 90.74,85.17 C90.43,85.54 89.92,85.67 89.48,85.49 C89.03,85.32 88.73,84.89 88.73,84.43 C88.73,84.43 88.73,76.77 88.73,76.77 C88.73,76.08 88.16,75.51 87.47,75.51 C86.78,75.51 86.21,76.08 86.21,76.77 C86.21,76.77 86.21,97.38 86.21,97.38 C86.21,97.82 85.96,98.22 85.57,98.41 C85.18,98.61 84.72,98.57 84.37,98.3 C84.37,98.3 77.71,93.21 77.71,93.21 C77.49,93.03 77.22,92.95 76.95,92.95z "/></g><g id="_R_G_L_1_G"><path id="_R_G_L_1_G_D_0_P_0" fill="#007fdf" fill-opacity="1" fill-rule="nonzero" d=" M28.07 62.61 C28.07,62.95 27.94,63.3 27.68,63.55 C21.91,69.32 21.91,78.71 27.68,84.48 C28.2,84.99 28.2,85.85 27.68,86.37 C27.16,86.89 26.31,86.89 25.78,86.37 C18.96,79.55 18.96,68.48 25.78,61.67 C26.31,61.14 27.16,61.14 27.68,61.67 C27.94,61.92 28.07,62.27 28.07,62.61z "/><path id="_R_G_L_1_G_D_1_P_0" fill="#007fdf" fill-opacity="1" fill-rule="nonzero" d=" M113.67 62.61 C113.67,62.95 113.81,63.3 114.07,63.55 C119.83,69.32 119.83,78.71 114.07,84.48 C113.54,84.99 113.54,85.85 114.07,86.37 C114.58,86.89 115.44,86.89 115.96,86.37 C122.77,79.55 122.77,68.48 115.96,61.67 C115.44,61.14 114.58,61.14 114.07,61.67 C113.81,61.92 113.67,62.27 113.67,62.61z "/></g><g id="_R_G_L_0_G"><path id="_R_G_L_0_G_D_0_P_0" fill="#007fdf" fill-opacity="1" fill-rule="nonzero" d=" M33.04 65.53 C33.04,65.87 32.9,66.21 32.65,66.48 C28.48,70.63 28.48,77.4 32.65,81.56 C33.17,82.09 33.17,82.93 32.65,83.45 C32.12,83.97 31.28,83.97 30.75,83.45 C25.55,78.25 25.55,69.79 30.75,64.59 C31.28,64.05 32.12,64.05 32.65,64.59 C32.9,64.85 33.04,65.19 33.04,65.53z "/><path id="_R_G_L_0_G_D_1_P_0" fill="#007fdf" fill-opacity="1" fill-rule="nonzero" d=" M108.7 65.53 C108.7,65.87 108.84,66.21 109.1,66.48 C113.26,70.63 113.26,77.4 109.1,81.56 C108.58,82.09 108.58,82.93 109.1,83.45 C109.62,83.97 110.47,83.97 110.99,83.45 C116.2,78.25 116.2,69.79 110.99,64.59 C110.47,64.05 109.62,64.05 109.1,64.59 C108.84,64.85 108.7,65.19 108.7,65.53z "/></g></g><g id="time_group"/></svg>