<svg xmlns="http://www.w3.org/2000/svg" xmlns:xlink="http://www.w3.org/1999/xlink" preserveAspectRatio="xMidYMid meet" width="142" height="142" viewBox="0 0 142 142" style="width:100%;height:100%"><defs><animateTransform repeatCount="indefinite" dur="2s" begin="0s" xlink:href="#_R_G_L_2_G" fill="freeze" attributeName="transform" from="0" to="0" type="rotate" additive="sum" keyTimes="0;0.6;1" values="0;0;0" keySplines="0.167 0.167 0.833 0.833;0 0 0 0" calcMode="spline"/><animateTransform repeatCount="indefinite" dur="2s" begin="0s" xlink:href="#_R_G_L_2_G" fill="freeze" attributeName="transform" from="-71 -71" to="-71 -71" type="translate" additive="sum" keyTimes="0;1" values="-71 -71;-71 -71" keySplines="0 0 1 1" calcMode="spline"/><animateTransform repeatCount="indefinite" dur="2s" begin="0s" xlink:href="#_R_G_L_1_G" fill="freeze" attributeName="transform" from="-16" to="-16" type="rotate" additive="sum" keyTimes="0;0.3;0.6;1" values="-16;0;-16;-16" keySplines="0.167 0.167 0.833 0.833;0.167 0.167 0.833 0.833;0 0 0 0" calcMode="spline"/><animateTransform repeatCount="indefinite" dur="2s" begin="0s" xlink:href="#_R_G_L_1_G" fill="freeze" attributeName="transform" from="-81.875 -88.75" to="-81.875 -88.75" type="translate" additive="sum" keyTimes="0;1" values="-81.875 -88.75;-81.875 -88.75" keySplines="0 0 1 1" calcMode="spline"/><animateMotion repeatCount="indefinite" dur="2s" begin="0s" xlink:href="#_R_G_L_0_G" fill="freeze" keyTimes="0;0.3;0.6;1" path="M38 74 C38.85,71.85 43.13,61.13 43.13,61.13 C43.13,61.13 38.85,71.85 38,74 C38,74 38,74 38,74 " keyPoints="0;0.5;1;1" keySplines="0.167 0.167 0.833 0.833;0.167 0.167 0.833 0.833;0 0 0 0" calcMode="spline"/><animateTransform repeatCount="indefinite" dur="2s" begin="0s" xlink:href="#_R_G_L_0_G" fill="freeze" attributeName="transform" from="22" to="22" type="rotate" additive="sum" keyTimes="0;0.3;0.6;1" values="22;0;22;22" keySplines="0.167 0.167 0.833 0.833;0.167 0.167 0.833 0.833;0 0 0 0" calcMode="spline"/><animateTransform repeatCount="indefinite" dur="2s" begin="0s" xlink:href="#_R_G_L_0_G" fill="freeze" attributeName="transform" from="-43.125 -61.125" to="-43.125 -61.125" type="translate" additive="sum" keyTimes="0;1" values="-43.125 -61.125;-43.125 -61.125" keySplines="0 0 1 1" calcMode="spline"/><animate attributeType="XML" attributeName="opacity" dur="2s" from="0" to="1" xlink:href="#time_group"/></defs><g id="_R_G"><g id="_R_G_L_2_G" transform=" translate(71, 71)"><path id="_R_G_L_2_G_D_0_P_0" fill="#007fdf" fill-opacity="1" fill-rule="nonzero" d=" M47.08 102.94 C44.04,102.94 41.59,105.22 41.59,108.06 C41.59,110.89 44.04,113.17 47.08,113.17 C50.11,113.17 52.57,110.89 52.57,108.06 C52.57,105.22 50.11,102.94 47.08,102.94z  M47.14 110.33 C45.8,110.33 44.7,109.32 44.7,108.07 C44.7,106.81 45.8,105.79 47.14,105.79 C48.5,105.79 49.59,106.81 49.59,108.07 C49.59,109.32 48.5,110.33 47.14,110.33z "/><path id="_R_G_L_2_G_D_1_P_0" fill="#007fdf" fill-opacity="1" fill-rule="nonzero" d=" M86.53 102.93 C83.49,102.93 81.03,105.22 81.03,108.06 C81.03,110.88 83.49,113.17 86.53,113.17 C89.56,113.17 92.02,110.88 92.02,108.06 C92.02,105.22 89.56,102.93 86.53,102.93z  M86.59 110.32 C85.25,110.32 84.15,109.32 84.15,108.07 C84.15,106.81 85.25,105.78 86.59,105.78 C87.94,105.78 89.03,106.81 89.03,108.07 C89.03,109.32 87.94,110.32 86.59,110.32z "/><path id="_R_G_L_2_G_D_2_P_0" fill="#007fdf" fill-opacity="1" fill-rule="nonzero" d=" M101.47 106.08 C101.47,106.08 98.85,106.08 98.85,106.08 C98.85,106.08 93.27,100.6 93.27,100.6 C93.27,100.6 93.27,98.31 93.27,98.31 C93.27,97.92 92.94,97.6 92.51,97.6 C92.51,97.6 81.88,97.6 81.88,97.6 C81.88,97.6 81.9,97.29 81.9,97.29 C81.9,97.29 86.32,97.29 86.32,97.29 C86.32,97.29 86.32,95.48 86.32,95.48 C86.32,95.48 82.28,95.48 82.28,95.48 C82.28,95.48 83.95,89.2 83.95,89.2 C83.95,89.2 83.97,85.49 83.97,85.49 C83.97,85.16 83.73,84.88 83.38,84.8 C83.38,84.8 82.39,88.97 82.39,88.97 C82.39,88.97 78.55,90.23 78.55,90.23 C78.55,90.23 78.18,90.81 78.18,90.81 C78.18,90.81 78.08,91.17 78.08,91.17 C78.08,91.17 78.18,91.54 78.18,91.54 C78.18,91.54 78.66,92.27 78.66,92.27 C78.34,92.83 76.66,95.82 76.35,96.36 C76.35,96.36 76.26,96.38 76.26,96.38 C76.26,96.38 76.26,91.2 76.26,91.2 C76.26,90.8 75.92,90.48 75.49,90.48 C75.49,90.48 59.86,90.48 59.86,90.48 C59.44,90.48 59.09,90.8 59.09,91.2 C59.09,91.2 59.09,97.38 59.09,97.38 C59.09,97.38 59.2,97.6 59.2,97.6 C59.2,97.6 57.11,97.6 57.11,97.6 C57.11,97.6 57,97.65 57,97.65 C57,97.65 56.92,97.62 56.92,97.62 C56.92,97.62 42.22,97.62 42.22,97.62 C42.22,97.62 41.4,97.61 40.95,97.93 C40.59,98.19 40.58,98.77 40.56,98.91 C40.54,99.07 40,102.26 41.73,102.26 C43.46,102.26 47.71,102.27 47.71,102.27 C47.71,102.27 54.08,102.26 54.24,102.26 C56.01,102.24 58.05,102.26 59.81,102.19 C59.81,102.19 59.94,102.1 59.94,102.1 C59.94,102.1 60.05,102.1 60.05,102.1 C59.92,102.24 59.81,102.4 59.66,102.51 C59.66,102.51 59.76,102.52 59.76,102.52 C59.76,102.52 56.13,106.08 56.13,106.08 C56.13,106.08 53.53,106.08 53.53,106.08 C53.1,106.08 52.76,106.4 52.76,106.79 C52.76,106.79 52.76,108.46 52.76,108.46 C52.76,108.85 53.1,109.18 53.53,109.18 C53.53,109.18 58.6,109.18 58.6,109.18 C59.03,109.18 59.37,108.85 59.37,108.46 C59.37,108.46 59.37,106.79 59.37,106.79 C59.37,106.79 59.18,106.36 59.18,106.36 C59.18,106.36 65.52,102.16 65.52,102.16 C65.47,102.13 65.43,102.12 65.39,102.1 C65.39,102.1 89.4,102.1 89.4,102.1 C89.4,102.1 95.8,106.36 95.8,106.36 C95.8,106.36 95.61,106.79 95.61,106.79 C95.61,106.79 95.61,108.46 95.61,108.46 C95.61,108.85 95.95,109.18 96.37,109.18 C96.37,109.18 101.47,109.18 101.47,109.18 C101.89,109.18 102.22,108.85 102.22,108.46 C102.22,108.46 102.22,106.79 102.22,106.79 C102.22,106.4 101.89,106.08 101.47,106.08z "/></g><g id="_R_G_L_1_G" transform=" translate(81.875, 88.75)"><path id="_R_G_L_1_G_D_0_P_0" fill="#007fdf" fill-opacity="1" fill-rule="nonzero" d=" M83.33 84.79 C83.33,84.79 82.65,84.68 82.65,84.68 C82.65,84.68 82.07,84.93 82.07,84.93 C82.07,84.93 45.67,59.31 45.67,59.31 C45.67,59.31 45.15,58.38 45.15,58.38 C45.15,58.38 40.47,65.05 40.47,65.05 C40.47,65.05 40.79,65.27 40.79,65.27 C40.79,65.27 41.43,65.38 41.43,65.38 C41.43,65.38 41.91,65.01 41.91,65.01 C41.91,65.01 76.5,89.36 76.5,89.36 C76.5,89.36 76.59,89.46 76.59,89.46 C76.59,89.46 76.8,89.57 76.8,89.57 C76.8,89.57 77.86,90.31 77.86,90.31 C77.86,90.31 78.55,90.23 78.55,90.23 C78.55,90.23 82.39,88.97 82.39,88.97 C82.39,88.97 83.38,84.8 83.38,84.8 C83.36,84.8 83.35,84.79 83.33,84.79z "/></g><g id="_R_G_L_0_G"><path id="_R_G_L_0_G_D_0_P_0" fill="#007fdf" fill-opacity="1" fill-rule="nonzero" d=" M101.4 30.53 C101.4,30.53 100.87,30.32 100.87,30.32 C100.87,30.32 90.95,30.32 90.95,30.32 C90.95,30.32 90.41,30.53 90.41,30.53 C90.41,30.53 90.18,31.03 90.18,31.03 C90.18,31.03 90.18,38.88 90.18,38.88 C90.18,38.88 85.19,30.97 85.19,30.97 C85.19,30.97 85.24,30.91 85.24,30.91 C85.24,30.91 85.1,30.3 85.1,30.3 C85.1,30.3 83.9,28.78 83.9,28.78 C83.9,28.78 82.99,28.56 82.99,28.56 C82.99,28.56 40.58,44.89 40.58,44.89 C40.58,44.89 40.43,45.06 40.43,45.06 C40.14,45.16 39.92,45.37 39.91,45.66 C39.91,45.66 39.64,62.48 39.64,62.48 C39.64,62.48 39.51,64 39.51,64 C39.51,64 39.83,64.63 39.83,64.63 C39.83,64.63 40.47,65.05 40.47,65.05 C40.47,65.05 45.15,58.38 45.15,58.38 C45.15,58.38 44.75,57.68 44.75,57.68 C44.75,57.68 44.55,55.07 44.55,55.07 C44.55,55.07 46.58,49.43 46.58,49.43 C46.64,49.23 46.62,49.04 46.53,48.88 C46.53,48.88 47.67,45.69 47.67,45.69 C47.67,45.69 73.64,35.68 73.64,35.68 C73.64,35.68 80.79,35.68 80.79,35.68 C80.79,35.68 81.34,35.48 81.34,35.48 C81.34,35.48 81.34,35.46 81.34,35.46 C81.34,35.46 83.96,35.46 83.96,35.46 C83.96,35.46 89.73,44.59 89.73,44.59 C89.73,44.59 90.18,44.87 90.18,44.87 C90.18,44.87 90.18,45.69 90.18,45.69 C90.18,45.69 90.41,46.19 90.41,46.19 C90.41,46.19 90.95,46.4 90.95,46.4 C90.95,46.4 100.87,46.4 100.87,46.4 C100.87,46.4 101.4,46.19 101.4,46.19 C101.4,46.19 101.63,45.69 101.63,45.69 C101.63,45.69 101.63,31.03 101.63,31.03 C101.63,31.03 101.4,30.53 101.4,30.53z  M44.44 48.17 C44.44,48.17 44.34,48.18 44.34,48.18 C44.34,48.18 44.09,48.45 44.09,48.45 C44.09,48.45 44.01,47.09 44.01,47.09 C44.01,47.09 44.95,46.74 44.95,46.74 C44.95,46.74 44.44,48.17 44.44,48.17z  M81.38 33.39 C81.38,33.39 81.34,33.3 81.34,33.3 C81.34,33.3 80.79,33.08 80.79,33.08 C80.79,33.08 80.37,33.08 80.37,33.08 C80.37,33.08 82.04,32.44 82.04,32.44 C82.04,32.44 82.64,33.39 82.64,33.39 C82.64,33.39 81.38,33.39 81.38,33.39z  M100.1 44.87 C100.1,44.87 91.71,44.87 91.71,44.87 C91.71,44.87 91.71,44.03 91.71,44.03 C91.71,44.03 92.14,43.65 92.14,43.65 C92.14,43.65 100.1,43.65 100.1,43.65 C100.1,43.65 100.1,44.87 100.1,44.87z  M100.1 42.23 C100.1,42.23 92.3,42.23 92.3,42.23 C92.3,42.23 91.71,41.31 91.71,41.31 C91.71,41.31 91.71,31.74 91.71,31.74 C91.71,31.74 100.1,31.74 100.1,31.74 C100.1,31.74 100.1,42.23 100.1,42.23z "/></g></g><g id="time_group"/></svg>