<svg xmlns="http://www.w3.org/2000/svg" xmlns:xlink="http://www.w3.org/1999/xlink" preserveAspectRatio="xMidYMid meet" width="200" height="200" viewBox="0 0 200 200" style="width:100%;height:100%"><defs><animateMotion repeatCount="indefinite" dur="5s" begin="0s" xlink:href="#_R_G_L_6_G" fill="freeze" keyTimes="0;0.48;1" path="M100 100 C100,99.17 100,95 100,95 C100,95 100,99.17 100,100 " keyPoints="0;0.5;1" keySplines="0.167 0.167 0.667 1;0.333 0 0.833 0.833" calcMode="spline"/><animateTransform repeatCount="indefinite" dur="5s" begin="0s" xlink:href="#_R_G_L_6_G" fill="freeze" attributeName="transform" from="-100 -100" to="-100 -100" type="translate" additive="sum" keyTimes="0;1" values="-100 -100;-100 -100" keySplines="0 0 1 1" calcMode="spline"/><animateMotion repeatCount="indefinite" dur="5s" begin="0s" xlink:href="#_R_G_L_5_G" fill="freeze" keyTimes="0;0.48;1" path="M100 100 C100,98.33 100,90 100,90 C100,90 100,98.33 100,100 " keyPoints="0;0.5;1" keySplines="0.167 0.167 0.667 1;0.333 0 0.833 0.833" calcMode="spline"/><animateTransform repeatCount="indefinite" dur="5s" begin="0s" xlink:href="#_R_G_L_5_G" fill="freeze" attributeName="transform" from="-100 -100" to="-100 -100" type="translate" additive="sum" keyTimes="0;1" values="-100 -100;-100 -100" keySplines="0 0 1 1" calcMode="spline"/><animate repeatCount="indefinite" dur="5s" begin="0s" xlink:href="#_R_G_L_4_G" fill="freeze" attributeName="opacity" from="0" to="0" keyTimes="0;0.08;0.368;0.48;1" values="0;1;1;0;0" keySplines="0.167 0.167 0.833 0.833;0.167 0.167 0.833 0.833;0.167 0.167 0.833 0.833;0 0 0 0" calcMode="spline"/><animateMotion repeatCount="indefinite" dur="5s" begin="0s" xlink:href="#_R_G_L_4_G" fill="freeze" keyTimes="0;0.2;0.48;1" path="M171.5 139 C171.5,137.6 182.63,132.82 171.5,130.63 C160.38,128.43 115.88,126.62 104.75,125.81 C104.75,125.81 104.75,125.81 104.75,125.81 " keyPoints="0;0.17;1;1" keySplines="0.167 0.167 0.833 0.833;0.167 0.167 0.833 0.833;0 0 0 0" calcMode="spline"/><animateTransform repeatCount="indefinite" dur="5s" begin="0s" xlink:href="#_R_G_L_4_G" fill="freeze" attributeName="transform" from="0.26952000000000004 0.26952000000000004" to="0.26952000000000004 0.26952000000000004" type="scale" additive="sum" keyTimes="0;1" values="0.26952000000000004 0.26952000000000004;0.26952000000000004 0.26952000000000004" keySplines="0 0 1 1" calcMode="spline"/><animateTransform repeatCount="indefinite" dur="5s" begin="0s" xlink:href="#_R_G_L_4_G" fill="freeze" attributeName="transform" from="-10.862 -11.35" to="-10.862 -11.35" type="translate" additive="sum" keyTimes="0;1" values="-10.862 -11.35;-10.862 -11.35" keySplines="0 0 1 1" calcMode="spline"/><animate repeatCount="indefinite" dur="5s" begin="0s" xlink:href="#_R_G_L_4_G_M" fill="freeze" attributeName="opacity" from="1" to="0" keyTimes="0;0.48;0.48;1" values="1;1;0;0" keySplines="0 0 0 0;0 0 0 0;0 0 0 0" calcMode="spline"/><animate repeatCount="indefinite" dur="5s" begin="0s" xlink:href="#_R_G_L_3_G" fill="freeze" attributeName="opacity" from="0" to="0" keyTimes="0;0.08;0.2;0.28;1" values="0;1;1;0;0" keySplines="0.167 0.167 0.833 0.833;0.167 0.167 0.833 0.833;0.167 0.167 0.833 0.833;0 0 0 0" calcMode="spline"/><animateMotion repeatCount="indefinite" dur="5s" begin="0s" xlink:href="#_R_G_L_3_G" fill="freeze" keyTimes="0;0.2;0.48;1" path="M48.63 112.5 C51.04,113.8 57.23,119.11 63.13,120.31 C69.02,121.52 80.52,119.84 84,119.75 C84,119.75 84,119.75 84,119.75 " keyPoints="0;0.44;1;1" keySplines="0.167 0.167 0.833 0.833;0.167 0.167 0.833 0.833;0 0 0 0" calcMode="spline"/><animateTransform repeatCount="indefinite" dur="5s" begin="0s" xlink:href="#_R_G_L_3_G" fill="freeze" attributeName="transform" from="0.26952000000000004 0.26952000000000004" to="0.26952000000000004 0.26952000000000004" type="scale" additive="sum" keyTimes="0;1" values="0.26952000000000004 0.26952000000000004;0.26952000000000004 0.26952000000000004" keySplines="0 0 1 1" calcMode="spline"/><animateTransform repeatCount="indefinite" dur="5s" begin="0s" xlink:href="#_R_G_L_3_G" fill="freeze" attributeName="transform" from="-10.862 -11.35" to="-10.862 -11.35" type="translate" additive="sum" keyTimes="0;1" values="-10.862 -11.35;-10.862 -11.35" keySplines="0 0 1 1" calcMode="spline"/><animate repeatCount="indefinite" dur="5s" begin="0s" xlink:href="#_R_G_L_3_G_M" fill="freeze" attributeName="opacity" from="1" to="0" keyTimes="0;0.48;0.48;1" values="1;1;0;0" keySplines="0 0 0 0;0 0 0 0;0 0 0 0" calcMode="spline"/><animate repeatCount="indefinite" dur="5s" begin="0s" xlink:href="#_R_G_L_2_G" fill="freeze" attributeName="opacity" from="0" to="0" keyTimes="0;0.08;0.368;0.48;1" values="0;1;1;0;0" keySplines="0.167 0.167 0.833 0.833;0.167 0.167 0.833 0.833;0.167 0.167 0.833 0.833;0 0 0 0" calcMode="spline"/><animateMotion repeatCount="indefinite" dur="5s" begin="0s" xlink:href="#_R_G_L_2_G" fill="freeze" keyTimes="0;0.2;0.48;1" path="M139.13 153.75 C138.92,152.35 143.6,150.03 137.88,145.38 C132.15,140.72 110.27,129.07 104.75,125.81 C104.75,125.81 104.75,125.81 104.75,125.81 " keyPoints="0;0.2;1;1" keySplines="0.167 0.167 0.833 0.833;0.167 0.167 0.833 0.833;0 0 0 0" calcMode="spline"/><animateTransform repeatCount="indefinite" dur="5s" begin="0s" xlink:href="#_R_G_L_2_G" fill="freeze" attributeName="transform" from="0.26952000000000004 0.26952000000000004" to="0.26952000000000004 0.26952000000000004" type="scale" additive="sum" keyTimes="0;1" values="0.26952000000000004 0.26952000000000004;0.26952000000000004 0.26952000000000004" keySplines="0 0 1 1" calcMode="spline"/><animateTransform repeatCount="indefinite" dur="5s" begin="0s" xlink:href="#_R_G_L_2_G" fill="freeze" attributeName="transform" from="-10.862 -11.35" to="-10.862 -11.35" type="translate" additive="sum" keyTimes="0;1" values="-10.862 -11.35;-10.862 -11.35" keySplines="0 0 1 1" calcMode="spline"/><animate repeatCount="indefinite" dur="5s" begin="0s" xlink:href="#_R_G_L_2_G_M" fill="freeze" attributeName="opacity" from="1" to="0" keyTimes="0;0.48;0.48;1" values="1;1;0;0" keySplines="0 0 0 0;0 0 0 0;0 0 0 0" calcMode="spline"/><animate repeatCount="indefinite" dur="5s" begin="0s" xlink:href="#_R_G_L_1_G" fill="freeze" attributeName="opacity" from="1" to="0" keyTimes="0;0.48;0.64;1" values="1;1;0;0" keySplines="0.167 0.167 0.833 0.833;0.167 0.167 0.833 0.833;0 0 0 0" calcMode="spline"/><animateMotion repeatCount="indefinite" dur="5s" begin="0s" xlink:href="#_R_G_L_1_G" fill="freeze" keyTimes="0;0.48;0.64;1" path="M125.75 103.38 C125.75,103.38 125.75,103.38 125.75,103.38 C129.04,91.5 159.21,95.75 145.5,32.13 C145.5,32.13 145.5,32.13 145.5,32.13 " keyPoints="0;0;1;1" keySplines="0.167 0.167 0.833 0.833;0.167 0.167 0.833 0.833;0 0 0 0" calcMode="spline"/><animateTransform repeatCount="indefinite" dur="5s" begin="0s" xlink:href="#_R_G_L_1_G" fill="freeze" attributeName="transform" from="0.6094400000000001 0.6094400000000001" to="0.6094400000000001 0.6094400000000001" type="scale" additive="sum" keyTimes="0;1" values="0.6094400000000001 0.6094400000000001;0.6094400000000001 0.6094400000000001" keySplines="0 0 1 1" calcMode="spline"/><animateTransform repeatCount="indefinite" dur="5s" begin="0s" xlink:href="#_R_G_L_1_G" fill="freeze" attributeName="transform" from="-10.862 -11.35" to="-10.862 -11.35" type="translate" additive="sum" keyTimes="0;1" values="-10.862 -11.35;-10.862 -11.35" keySplines="0 0 1 1" calcMode="spline"/><animate repeatCount="indefinite" dur="5s" begin="0s" xlink:href="#_R_G_L_1_G_M" fill="freeze" attributeName="opacity" from="0" to="0" keyTimes="0;0.48;0.4800008;0.96;0.96;1" values="0;0;1;1;0;0" keySplines="0 0 0 0;0 0 0 0;0 0 0 0;0 0 0 0;0 0 0 0" calcMode="spline"/><animate repeatCount="indefinite" dur="5s" begin="0s" xlink:href="#_R_G_L_0_G" fill="freeze" attributeName="opacity" from="1" to="0" keyTimes="0;0.544;0.704;1" values="1;1;0;0" keySplines="0.167 0.167 0.833 0.833;0.167 0.167 0.833 0.833;0 0 0 0" calcMode="spline"/><animateMotion repeatCount="indefinite" dur="5s" begin="0s" xlink:href="#_R_G_L_0_G" fill="freeze" keyTimes="0;0.544;0.704;1" path="M69.5 78.88 C69.5,78.88 69.5,78.88 69.5,78.88 C65.17,69.29 15.96,61 43.5,21.38 C43.5,21.38 43.5,21.38 43.5,21.38 " keyPoints="0;0;1;1" keySplines="0.167 0.167 0.833 0.833;0.167 0.167 0.833 0.833;0 0 0 0" calcMode="spline"/><animateTransform repeatCount="indefinite" dur="5s" begin="0s" xlink:href="#_R_G_L_0_G" fill="freeze" attributeName="transform" from="0.6094400000000001 0.6094400000000001" to="0.6094400000000001 0.6094400000000001" type="scale" additive="sum" keyTimes="0;1" values="0.6094400000000001 0.6094400000000001;0.6094400000000001 0.6094400000000001" keySplines="0 0 1 1" calcMode="spline"/><animateTransform repeatCount="indefinite" dur="5s" begin="0s" xlink:href="#_R_G_L_0_G" fill="freeze" attributeName="transform" from="-10.862 -11.35" to="-10.862 -11.35" type="translate" additive="sum" keyTimes="0;1" values="-10.862 -11.35;-10.862 -11.35" keySplines="0 0 1 1" calcMode="spline"/><animate repeatCount="indefinite" dur="5s" begin="0s" xlink:href="#_R_G_L_0_G_M" fill="freeze" attributeName="opacity" from="0" to="1" keyTimes="0;0.544;0.5440008;1" values="0;0;1;1" keySplines="0 0 0 0;0 0 0 0;0 0 0 0" calcMode="spline"/><animate attributeType="XML" attributeName="opacity" dur="5s" from="0" to="1" xlink:href="#time_group"/></defs><g id="_R_G"><g id="_R_G_L_8_G"><path id="_R_G_L_8_G_D_0_P_0" fill="#2a84dc" fill-opacity="1" fill-rule="nonzero" d=" M173.32 138.65 C173.8,138.93 174.09,139.31 174.1,139.73 C174.11,140.57 172.93,141.26 171.47,141.25 C170.74,141.25 170.09,141.08 169.61,140.81 C169.36,140.67 169.17,140.5 169.03,140.31 C168.91,140.13 168.83,139.94 168.83,139.73 C168.83,139.53 168.9,139.33 169.03,139.15 C169.42,138.6 170.36,138.21 171.46,138.21 C172.19,138.21 172.84,138.38 173.32,138.65z "/><path id="_R_G_L_8_G_D_1_P_0" fill="#2a84dc" fill-opacity="1" fill-rule="nonzero" d=" M63.92 96.27 C64.7,96.72 64.89,97.38 64.5,97.94 C64.37,98.12 64.18,98.29 63.93,98.43 C63.68,98.58 63.39,98.69 63.08,98.76 C62.13,98.99 60.99,98.88 60.21,98.43 C59.18,97.84 59.17,96.87 60.19,96.27 C61.22,95.68 62.89,95.68 63.92,96.27z "/><path id="_R_G_L_8_G_D_2_P_0" fill="#2a84dc" fill-opacity="1" fill-rule="nonzero" d=" M50.26 112.43 C51.04,112.88 51.23,113.54 50.84,114.09 C50.71,114.27 50.52,114.44 50.27,114.58 C50.02,114.73 49.74,114.84 49.43,114.91 C48.47,115.15 47.33,115.04 46.55,114.59 C45.51,113.99 45.51,113.03 46.54,112.43 C47.56,111.83 49.23,111.83 50.26,112.43z "/><path id="_R_G_L_8_G_D_3_P_0" fill="#2a84dc" fill-opacity="1" fill-rule="nonzero" d=" M87.36 102.48 C88.14,102.93 88.33,103.59 87.93,104.15 C87.81,104.33 87.62,104.49 87.37,104.64 C87.12,104.78 86.83,104.89 86.52,104.97 C85.57,105.2 84.43,105.09 83.65,104.64 C82.62,104.04 82.61,103.08 83.63,102.48 C84.66,101.88 86.33,101.88 87.36,102.48z "/><path id="_R_G_L_8_G_D_4_P_0" fill="#2a84dc" fill-opacity="1" fill-rule="nonzero" d=" M106.07 114.62 C106.07,114.62 106.15,128.33 106.15,128.33 C106.15,128.33 104.16,128.33 104.16,128.33 C104.16,128.33 104.08,115.1 104.08,115.1 C104.08,115.1 86.52,104.97 86.52,104.97 C86.83,104.89 87.12,104.78 87.37,104.64 C87.62,104.49 87.81,104.33 87.93,104.15 C87.93,104.15 106.07,114.62 106.07,114.62z "/><path id="_R_G_L_8_G_D_5_P_0" fill="#2a84dc" fill-opacity="1" fill-rule="nonzero" d=" M84.27 109.35 C84.27,109.35 84.31,118.2 84.31,118.2 C84.31,118.2 101.11,127.9 101.11,127.9 C101.11,127.9 101.13,132.96 101.13,132.96 C101.13,132.96 99.14,132.96 99.14,132.96 C99.14,132.96 99.11,128.38 99.11,128.38 C99.11,128.38 82.32,118.68 82.32,118.68 C82.32,118.68 82.27,109.84 82.27,109.84 C82.27,109.84 63.08,98.76 63.08,98.76 C63.39,98.69 63.68,98.57 63.93,98.43 C64.18,98.28 64.37,98.12 64.5,97.94 C64.5,97.94 84.27,109.35 84.27,109.35z "/><path id="_R_G_L_8_G_D_6_P_0" fill="#2a84dc" fill-opacity="1" fill-rule="nonzero" d=" M132.52 153.2 C132.52,153.2 132.6,167.97 132.6,167.97 C132.6,167.97 124.54,172.66 124.54,172.66 C124.54,172.66 124.57,178.81 124.57,178.81 C124.26,178.74 123.93,178.7 123.58,178.7 C123.22,178.7 122.88,178.74 122.57,178.81 C122.57,178.81 122.54,172.18 122.54,172.18 C122.54,172.18 130.6,167.5 130.6,167.5 C130.6,167.5 130.52,153.68 130.52,153.68 C130.52,153.68 99.76,135.92 99.76,135.92 C99.76,135.92 101.17,135.1 101.17,135.1 C101.17,135.1 132.52,153.2 132.52,153.2z "/><path id="_R_G_L_8_G_D_7_P_0" fill="#2a84dc" fill-opacity="1" fill-rule="nonzero" d=" M169.03 139.15 C168.9,139.33 168.83,139.53 168.83,139.73 C168.83,139.94 168.9,140.13 169.03,140.31 C169.03,140.31 150.62,140.31 150.62,140.31 C150.62,140.31 132.45,129.81 132.45,129.81 C132.45,129.81 111.69,129.81 111.69,129.81 C111.69,129.81 103.21,134.74 103.21,134.74 C103.21,134.74 101.79,133.92 101.79,133.92 C101.79,133.92 110.85,128.66 110.85,128.66 C110.85,128.66 133.27,128.66 133.27,128.66 C133.27,128.66 151.44,139.15 151.44,139.15 C151.44,139.15 169.03,139.15 169.03,139.15z "/><path id="_R_G_L_8_G_D_8_P_0" fill="#2a84dc" fill-opacity="1" fill-rule="nonzero" d=" M125.44 179.15 C125.91,179.42 126.21,179.8 126.21,180.22 C126.22,181.06 125.04,181.75 123.59,181.75 C122.86,181.75 122.2,181.58 121.73,181.3 C121.25,181.03 120.95,180.65 120.95,180.23 C120.94,179.59 121.61,179.04 122.57,178.81 C122.88,178.74 123.22,178.7 123.58,178.7 C123.93,178.7 124.26,178.74 124.57,178.81 C124.9,178.89 125.19,179.01 125.44,179.15z "/><path id="_R_G_L_8_G_D_9_P_0" fill="#2a84dc" fill-opacity="1" fill-rule="nonzero" d=" M30.74 116.85 C31.22,117.12 31.51,117.5 31.52,117.92 C31.53,118.56 30.85,119.11 29.9,119.34 C29.59,119.41 29.25,119.45 28.9,119.45 C28.55,119.45 28.21,119.41 27.9,119.33 C27.57,119.26 27.28,119.14 27.04,119 C26.56,118.73 26.26,118.34 26.26,117.92 C26.26,117.08 27.43,116.4 28.88,116.4 C29.61,116.4 30.26,116.57 30.74,116.85z "/><path id="_R_G_L_8_G_D_10_P_0" fill="#2a84dc" fill-opacity="1" fill-rule="nonzero" d=" M97.77 136.81 C97.77,136.81 82.86,145.47 82.86,145.47 C82.86,145.47 58.67,145.47 58.67,145.47 C58.67,145.47 54.7,147.78 54.7,147.78 C54.57,147.6 54.38,147.43 54.13,147.28 C53.88,147.14 53.59,147.03 53.28,146.96 C53.28,146.96 57.83,144.31 57.83,144.31 C57.83,144.31 82.03,144.31 82.03,144.31 C82.03,144.31 96.35,135.99 96.35,135.99 C96.35,135.99 97.77,136.81 97.77,136.81z "/><path id="_R_G_L_8_G_D_11_P_0" fill="#2a84dc" fill-opacity="1" fill-rule="nonzero" d=" M95.8 129.64 C95.8,129.64 94.39,130.46 94.39,130.46 C94.39,130.46 81.69,123.13 81.69,123.13 C81.69,123.13 63.66,123.13 63.66,123.13 C63.66,123.13 49.43,114.91 49.43,114.91 C49.73,114.84 50.02,114.73 50.27,114.58 C50.52,114.44 50.71,114.27 50.84,114.09 C50.84,114.09 64.48,121.97 64.48,121.97 C64.48,121.97 82.52,121.97 82.52,121.97 C82.52,121.97 95.8,129.64 95.8,129.64z "/><path id="_R_G_L_8_G_D_12_P_0" fill="#2a84dc" fill-opacity="1" fill-rule="nonzero" d=" M54.13 147.28 C54.38,147.43 54.57,147.6 54.7,147.77 C55.1,148.33 54.91,148.99 54.14,149.44 C53.11,150.03 51.45,150.03 50.42,149.44 C49.38,148.84 49.38,147.88 50.4,147.28 C51.18,146.83 52.32,146.72 53.28,146.95 C53.59,147.03 53.88,147.14 54.13,147.28z "/><path id="_R_G_L_8_G_D_13_P_0" fill="#2a84dc" fill-opacity="1" fill-rule="nonzero" d=" M108.14 166.94 C108.61,167.22 108.91,167.6 108.92,168.02 C108.92,168.86 107.74,169.54 106.29,169.54 C105.56,169.54 104.9,169.37 104.42,169.1 C103.95,168.82 103.65,168.44 103.65,168.02 C103.65,167.38 104.32,166.84 105.28,166.61 C105.58,166.54 105.92,166.49 106.27,166.49 C106.63,166.49 106.97,166.54 107.27,166.61 C107.6,166.69 107.89,166.8 108.14,166.94z "/><path id="_R_G_L_8_G_D_14_P_0" fill="#2a84dc" fill-opacity="1" fill-rule="nonzero" d=" M99.96 137.49 C99.96,137.49 100.04,153.17 100.04,153.17 C100.04,153.17 107.22,157.31 107.22,157.31 C107.22,157.31 107.27,166.61 107.27,166.61 C106.97,166.54 106.63,166.49 106.27,166.49 C105.92,166.49 105.58,166.54 105.27,166.61 C105.27,166.61 105.22,157.79 105.22,157.79 C105.22,157.79 98.04,153.65 98.04,153.65 C98.04,153.65 97.96,137.49 97.96,137.49 C97.96,137.49 99.96,137.49 99.96,137.49z "/><path id="_R_G_L_8_G_D_15_P_0" fill="#2a84dc" fill-opacity="1" fill-rule="nonzero" d=" M98.81 133.74 C98.81,133.74 97.39,134.56 97.39,134.56 C97.39,134.56 91.38,131.09 91.38,131.09 C91.38,131.09 79.87,131.09 79.87,131.09 C79.87,131.09 69.74,136.98 69.74,136.98 C69.74,136.98 49.78,136.98 49.78,136.98 C49.78,136.98 27.93,124.37 27.93,124.37 C27.93,124.37 27.9,119.33 27.9,119.33 C28.21,119.41 28.54,119.45 28.9,119.45 C29.25,119.45 29.59,119.41 29.9,119.34 C29.9,119.34 29.92,123.89 29.92,123.89 C29.92,123.89 50.6,135.83 50.6,135.83 C50.6,135.83 68.91,135.82 68.91,135.82 C68.91,135.82 79.04,129.93 79.04,129.93 C79.04,129.93 92.21,129.93 92.21,129.93 C92.21,129.93 98.81,133.74 98.81,133.74z "/><path id="_R_G_L_8_G_D_16_P_0" fill="#2a84dc" fill-opacity="1" fill-rule="nonzero" d=" M140.06 152.48 C140.54,152.75 140.83,153.13 140.83,153.56 C140.84,154.4 139.67,155.08 138.21,155.08 C137.48,155.08 136.82,154.91 136.35,154.64 C135.87,154.36 135.57,153.98 135.57,153.56 C135.57,152.92 136.24,152.38 137.19,152.15 C137.5,152.07 137.84,152.03 138.2,152.03 C138.55,152.03 138.89,152.07 139.2,152.15 C139.52,152.22 139.81,152.34 140.06,152.48z "/><path id="_R_G_L_8_G_D_17_P_0" fill="#2a84dc" fill-opacity="1" fill-rule="nonzero" d=" M139.16 145.7 C139.16,145.7 139.2,152.15 139.2,152.15 C138.89,152.07 138.55,152.03 138.2,152.03 C137.84,152.03 137.5,152.07 137.19,152.15 C137.19,152.15 137.16,146.17 137.16,146.17 C137.16,146.17 120.33,136.45 120.33,136.45 C120.33,136.45 105.19,136.46 105.19,136.46 C105.19,136.46 105.18,135.3 105.18,135.3 C105.18,135.3 121.15,135.3 121.15,135.3 C121.15,135.3 139.16,145.7 139.16,145.7z "/></g><g id="_R_G_L_7_G"><path id="_R_G_L_7_G_D_0_P_0" fill="#227ae8" fill-opacity="1" fill-rule="nonzero" d=" M97.37 125.74 C97.37,125.74 122.04,111.4 122.04,111.4 C122.04,111.4 121.97,134.11 121.97,134.11 C121.97,134.11 97.3,148.45 97.3,148.45 C97.3,148.45 97.37,125.74 97.37,125.74z "/><path id="_R_G_L_7_G_D_1_P_0" fill="#227ae8" fill-opacity="1" fill-rule="nonzero" d=" M70.04 109.96 C70.04,109.96 94.71,95.63 94.71,95.63 C94.71,95.63 122.04,111.4 122.04,111.4 C122.04,111.4 97.37,125.74 97.37,125.74 C97.37,125.74 70.04,109.96 70.04,109.96z "/><path id="_R_G_L_7_G_D_2_P_0" fill="#1765c7" fill-opacity="1" fill-rule="nonzero" d=" M97.37 125.74 C97.37,125.74 97.3,148.45 97.3,148.45 C97.3,148.45 69.98,132.67 69.98,132.67 C69.98,132.67 70.04,109.96 70.04,109.96 C70.04,109.96 97.37,125.74 97.37,125.74z "/><path id="_R_G_L_7_G_D_3_P_0" fill="#ffffff" fill-opacity="1" fill-rule="nonzero" d=" M99.77 101.59 C99.86,101.64 99.91,101.71 99.9,101.79 C99.89,101.95 99.72,102.03 99.42,102.07 C98.73,102.14 98.04,102.19 97.37,102.3 C96.05,102.49 94.86,102.84 93.84,103.36 C92.75,103.91 91.98,104.59 91.49,105.38 C91.15,105.9 90.95,106.45 90.89,107.01 C90.87,107.19 90.68,107.3 90.4,107.3 C90.29,107.3 90.18,107.27 90.1,107.22 C90,107.16 89.94,107.08 89.95,106.98 C90,106.32 90.25,105.7 90.66,105.09 C91.14,104.37 91.83,103.74 92.75,103.2 C93.94,102.51 95.33,102.05 96.93,101.8 C97.71,101.67 98.53,101.6 99.33,101.52 C99.51,101.5 99.67,101.53 99.77,101.59z "/><path id="_R_G_L_7_G_D_4_P_0" fill="#ffffff" fill-opacity="1" fill-rule="nonzero" d=" M103.94 107.01 C104.04,107.06 104.09,107.15 104.07,107.23 C104,107.48 103.92,107.73 103.8,107.96 C103.58,108.35 103.21,108.69 102.76,108.95 C101.92,109.44 100.93,109.65 99.83,109.69 C99.67,109.7 99.54,109.66 99.44,109.61 C99.36,109.56 99.31,109.5 99.3,109.43 C99.29,109.29 99.49,109.16 99.75,109.15 C100.37,109.11 100.96,109.04 101.48,108.85 C102.5,108.48 102.96,107.91 103.12,107.24 C103.14,107.19 103.15,107.13 103.19,107.07 C103.29,106.95 103.51,106.9 103.72,106.93 C103.8,106.95 103.88,106.97 103.94,107.01z "/><path id="_R_G_L_7_G_D_5_P_0" fill="#ffffff" fill-opacity="1" fill-rule="nonzero" d=" M99.71 103.24 C99.72,103.25 99.73,103.26 99.75,103.27 C99.86,103.34 99.9,103.44 99.83,103.54 C99.75,103.64 99.6,103.69 99.4,103.72 C98.83,103.78 98.25,103.83 97.71,103.93 C95.91,104.26 94.74,104.98 94.14,105.99 C93.95,106.31 93.87,106.65 93.77,106.99 C93.71,107.15 93.51,107.28 93.25,107.26 C93.13,107.26 93.03,107.23 92.95,107.18 C92.85,107.13 92.8,107.04 92.82,106.94 C92.98,105.91 93.64,105.01 94.63,104.43 C95.85,103.74 97.01,103.43 98.29,103.26 C98.61,103.23 98.93,103.2 99.26,103.17 C99.42,103.16 99.58,103.17 99.71,103.24z "/><path id="_R_G_L_7_G_D_6_P_0" fill="#ffffff" fill-opacity="1" fill-rule="nonzero" d=" M100.07 104.77 C100.15,104.82 100.2,104.88 100.21,104.94 C100.23,105.09 100.03,105.22 99.74,105.24 C98.91,105.29 98.14,105.45 97.52,105.77 C96.83,106.12 96.5,106.57 96.41,107.08 C96.41,107.08 96.38,107.21 96.38,107.21 C96.34,107.36 96.12,107.47 95.88,107.46 C95.76,107.45 95.66,107.42 95.58,107.38 C95.49,107.33 95.44,107.26 95.45,107.18 C95.5,106.62 95.77,106.1 96.39,105.66 C96.48,105.59 96.58,105.53 96.65,105.48 C97.52,105.01 98.52,104.76 99.67,104.69 C99.82,104.68 99.97,104.71 100.07,104.77z "/><path id="_R_G_L_7_G_D_7_P_0" fill="#ffffff" fill-opacity="1" fill-rule="nonzero" d=" M106.57 107.2 C106.66,107.25 106.71,107.34 106.69,107.44 C106.53,108.43 105.95,109.32 104.57,110.13 C103.47,110.75 101.96,111.12 100.23,111.21 C100.05,111.22 99.89,111.19 99.78,111.13 C99.71,111.09 99.66,111.03 99.65,110.96 C99.63,110.81 99.84,110.68 100.15,110.67 C101.46,110.59 102.64,110.34 103.67,109.85 C104.61,109.42 105.17,108.86 105.49,108.2 C105.61,107.94 105.68,107.67 105.75,107.4 C105.8,107.22 105.99,107.11 106.27,107.12 C106.39,107.13 106.49,107.15 106.57,107.2z "/><path id="_R_G_L_7_G_D_8_P_0" fill="#ffffff" fill-opacity="1" fill-rule="nonzero" d=" M109.43 107.17 C109.53,107.22 109.58,107.3 109.56,107.39 C109.42,108.21 109.08,109 108.47,109.75 C108.01,110.3 107.42,110.81 106.66,111.24 C104.88,112.25 102.71,112.76 100.24,112.87 C100.1,112.88 99.93,112.85 99.81,112.82 C99.78,112.81 99.75,112.8 99.73,112.78 C99.61,112.72 99.58,112.61 99.63,112.52 C99.68,112.41 99.84,112.33 100.05,112.33 C100.76,112.3 101.45,112.24 102.14,112.13 C103.37,111.93 104.5,111.6 105.48,111.13 C106.64,110.56 107.44,109.85 107.96,109.04 C108.3,108.5 108.5,107.94 108.62,107.37 C108.64,107.22 108.78,107.11 108.99,107.09 C109.16,107.07 109.32,107.11 109.43,107.17z "/><path id="_R_G_L_7_G_D_9_P_0" fill="#ffffff" fill-opacity="1" fill-rule="nonzero" d=" M92.49 117.92 C92.41,118.03 92.3,118.11 92.09,118.12 C91.93,118.13 91.78,118.1 91.69,118.05 C91.56,117.97 91.51,117.85 91.61,117.72 C91.89,117.34 92.16,116.96 92.45,116.57 C92.54,116.47 92.53,116.39 92.45,116.28 C91.27,114.91 90.11,113.52 88.95,112.14 C88.54,111.65 88.12,111.16 87.71,110.67 C87.67,110.62 87.63,110.58 87.58,110.53 C86.8,110.72 86.04,110.91 85.29,111.1 C84.11,111.39 82.94,111.69 81.76,111.98 C81.76,111.98 81.6,112.02 81.6,112.02 C81.42,112.04 81.25,112.02 81.13,111.95 C81.09,111.92 81.05,111.9 81.03,111.87 C80.93,111.74 81,111.59 81.22,111.53 C81.52,111.44 81.84,111.36 82.15,111.29 C85.49,110.45 88.84,109.61 92.19,108.77 C94.23,108.26 96.26,107.76 98.3,107.24 C98.41,107.22 98.47,107.19 98.48,107.11 C98.53,106.72 99.1,106.41 99.79,106.41 C100.14,106.4 100.47,106.49 100.72,106.63 C100.93,106.75 101.07,106.91 101.1,107.09 C101.18,107.47 100.75,107.84 100.1,107.92 C99.91,107.94 99.82,107.98 99.76,108.08 C97.95,110.53 96.14,112.98 94.33,115.42 C93.72,116.25 93.1,117.09 92.49,117.92z  M88.79 110.71 C90.2,112.39 91.61,114.06 93.05,115.77 C93.95,114.55 94.83,113.37 95.7,112.18 C93.38,111.68 91.1,111.18 88.83,110.68 C88.83,110.68 88.79,110.71 88.79,110.71z  M89.13 110.14 C89.13,110.14 89.14,110.16 89.14,110.16 C91.25,110.62 93.36,111.09 95.52,111.56 C94.95,110.68 94.39,109.83 93.83,108.96 C92.26,109.35 90.7,109.75 89.13,110.14z  M97.63 109.57 C96.72,109.4 95.84,109.22 94.89,109.04 C95.39,109.8 95.85,110.53 96.33,111.26 C96.33,111.26 96.39,111.25 96.39,111.25 C96.8,110.7 97.21,110.14 97.63,109.57z  M97.41 108.07 C96.77,108.23 96.13,108.39 95.44,108.56 C95.44,108.56 95.57,108.59 95.57,108.59 C96.34,108.74 97.11,108.89 97.86,109.04 C98,109.07 98.02,109.03 98.07,108.98 C98.34,108.6 98.62,108.24 98.89,107.86 C98.89,107.86 98.89,107.73 98.89,107.73 C98.89,107.73 98.7,107.74 98.7,107.74 C98.26,107.85 97.83,107.96 97.41,108.07z "/></g><g id="_R_G_L_6_G"><path id="_R_G_L_6_G_D_0_P_0" fill="#227ae8" fill-opacity="1" fill-rule="nonzero" d=" M97.37 85.1 C97.37,85.1 122.04,70.76 122.04,70.76 C122.04,70.76 121.97,93.47 121.97,93.47 C121.97,93.47 97.3,107.8 97.3,107.8 C97.3,107.8 97.37,85.1 97.37,85.1z "/><path id="_R_G_L_6_G_D_1_P_0" fill="#227ae8" fill-opacity="1" fill-rule="nonzero" d=" M70.04 69.32 C70.04,69.32 94.71,54.98 94.71,54.98 C94.71,54.98 122.04,70.76 122.04,70.76 C122.04,70.76 97.37,85.1 97.37,85.1 C97.37,85.1 70.04,69.32 70.04,69.32z "/><path id="_R_G_L_6_G_D_2_P_0" fill="#1765c7" fill-opacity="1" fill-rule="nonzero" d=" M97.37 85.1 C97.37,85.1 97.3,107.8 97.3,107.8 C97.3,107.8 69.98,92.03 69.98,92.03 C69.98,92.03 70.04,69.32 70.04,69.32 C70.04,69.32 97.37,85.1 97.37,85.1z "/><path id="_R_G_L_6_G_D_3_P_0" fill="#ffffff" fill-opacity="1" fill-rule="nonzero" d=" M105.8 67.85 C107.22,68.67 107.24,69.94 105.69,70.83 C105.58,70.88 105.36,70.99 105.12,71.08 C104.86,71.18 104.59,71.17 104.4,71.07 C104.38,71.05 104.35,71.04 104.33,71.02 C104.15,70.87 104.22,70.67 104.53,70.56 C105.12,70.34 105.55,70.04 105.72,69.64 C105.94,69.15 105.69,68.67 105.04,68.3 C104.88,68.21 104.71,68.13 104.52,68.05 C104.47,68.03 104.43,68.01 104.39,67.99 C104.15,67.85 104.16,67.65 104.43,67.53 C104.63,67.43 104.85,67.44 105.06,67.51 C105.34,67.61 105.59,67.73 105.8,67.85z "/><path id="_R_G_L_6_G_D_4_P_0" fill="#ffffff" fill-opacity="1" fill-rule="nonzero" d=" M104.24 68.61 C105.01,69.08 104.85,69.84 103.88,70.16 C103.64,70.24 103.38,70.23 103.21,70.12 C103.18,70.11 103.16,70.09 103.14,70.08 C102.97,69.94 103.03,69.75 103.27,69.64 C103.73,69.44 103.77,69.24 103.41,69.04 C103.37,69.01 103.32,68.99 103.27,68.96 C103.25,68.95 103.23,68.94 103.21,68.93 C103.01,68.82 102.98,68.67 103.13,68.53 C103.29,68.4 103.6,68.36 103.87,68.45 C103.99,68.5 104.11,68.56 104.24,68.61z "/><path id="_R_G_L_6_G_D_5_P_0" fill="#ffffff" fill-opacity="1" fill-rule="nonzero" d=" M107.45 67.48 C107.86,67.72 108.2,67.99 108.43,68.32 C109.15,69.29 108.78,70.37 107.47,71.15 C107.15,71.29 106.85,71.44 106.52,71.57 C106.28,71.66 106,71.64 105.83,71.54 C105.8,71.52 105.77,71.5 105.74,71.48 C105.59,71.33 105.67,71.15 105.94,71.04 C106.93,70.67 107.6,70.17 107.7,69.47 C107.78,68.84 107.4,68.33 106.69,67.93 C106.52,67.82 106.32,67.73 106.11,67.64 C106.11,67.64 105.9,67.56 105.9,67.56 C105.86,67.55 105.84,67.53 105.81,67.52 C105.62,67.41 105.59,67.26 105.72,67.14 C105.89,66.98 106.19,66.94 106.48,67.04 C106.84,67.16 107.16,67.31 107.45,67.48z "/><path id="_R_G_L_6_G_D_6_P_0" fill="#ffffff" fill-opacity="1" fill-rule="nonzero" d=" M97.68 64.33 C97.75,64.37 97.78,64.44 97.78,64.54 C97.78,65.19 97.78,65.84 97.79,66.49 C97.79,67.25 97.79,68 97.8,68.76 C97.8,68.81 97.8,68.87 97.81,68.95 C98.59,68.94 99.36,68.94 100.12,68.94 C100.2,68.93 100.29,68.87 100.35,68.83 C100.8,68.52 101.55,68.46 102.07,68.7 C102.11,68.72 102.14,68.74 102.18,68.76 C102.62,69.01 102.66,69.4 102.28,69.69 C101.85,70.03 100.98,70.05 100.49,69.76 C100.44,69.74 100.4,69.71 100.36,69.68 C100.34,69.66 100.31,69.64 100.29,69.63 C100.2,69.58 100.1,69.56 99.96,69.56 C99.26,69.56 98.55,69.56 97.81,69.56 C97.81,69.75 97.81,69.94 97.8,70.13 C97.81,71.31 97.82,72.5 97.82,73.69 C97.82,73.92 97.69,73.98 97.28,73.92 C95.86,73.7 94.57,73.26 93.54,72.66 C92.04,71.8 91.08,70.61 90.98,69.35 C90.81,67.05 93.26,65.03 97.03,64.35 C97.03,64.35 97.25,64.31 97.25,64.31 C97.46,64.27 97.6,64.28 97.68,64.33z "/><path id="_R_G_L_6_G_D_7_P_0" fill="#ffffff" fill-opacity="1" fill-rule="nonzero" d=" M90.32 69.68 C90.51,70.09 90.65,70.49 90.86,70.87 C91.17,71.44 91.67,71.94 92.31,72.41 C92.45,72.51 92.49,72.59 92.4,72.73 C92.03,73.24 91.7,73.76 91.35,74.27 C91.35,74.27 91.27,74.39 91.27,74.39 C89.17,73.18 87.09,71.97 84.98,70.75 C86.79,70.39 88.57,70.04 90.32,69.68z "/></g><g id="_R_G_L_5_G"><path id="_R_G_L_5_G_D_0_P_0" fill="#227ae8" fill-opacity="1" fill-rule="nonzero" d=" M97.42 46.3 C97.42,46.3 122.09,31.96 122.09,31.96 C122.09,31.96 122.03,54.67 122.03,54.67 C122.03,54.67 97.36,69 97.36,69 C97.36,69 97.42,46.3 97.42,46.3z "/><path id="_R_G_L_5_G_D_1_P_0" fill="#227ae8" fill-opacity="1" fill-rule="nonzero" d=" M70.1 30.52 C70.1,30.52 94.76,16.19 94.76,16.19 C94.76,16.19 122.09,31.96 122.09,31.96 C122.09,31.96 97.42,46.3 97.42,46.3 C97.42,46.3 70.1,30.52 70.1,30.52z "/><path id="_R_G_L_5_G_D_2_P_0" fill="#1765c7" fill-opacity="1" fill-rule="nonzero" d=" M97.42 46.3 C97.42,46.3 97.36,69 97.36,69 C97.36,69 70.03,53.23 70.03,53.23 C70.03,53.23 70.1,30.52 70.1,30.52 C70.1,30.52 97.42,46.3 97.42,46.3z "/><path id="_R_G_L_5_G_D_3_P_0" fill="#ffffff" fill-opacity="1" fill-rule="nonzero" d=" M97.64 20.3 C97.74,20.36 97.78,20.45 97.78,20.6 C97.79,23 97.81,25.39 97.81,27.79 C97.82,28.1 97.69,28.18 97.15,28.17 C96.47,28.17 95.8,28.17 95.08,28.17 C95.12,28.38 95.14,28.56 95.17,28.8 C95.76,28.79 96.41,28.78 97.05,28.78 C97.51,28.77 97.98,28.77 98.45,28.78 C98.66,28.78 98.8,28.8 98.89,28.85 C98.98,28.91 99.01,28.99 99.01,29.11 C99.01,29.4 98.99,29.69 98.98,29.99 C99.33,29.98 99.62,29.98 99.8,29.97 C100.06,29.59 100.24,29.21 100.57,28.87 C101.09,28.33 101.96,28.03 102.97,27.85 C103.12,27.82 103.22,27.83 103.27,27.86 C103.33,27.9 103.35,27.96 103.35,28.04 C103.35,28.64 103.36,29.25 103.35,29.85 C103.35,29.92 103.32,29.99 103.3,30.09 C103.78,30.06 104.18,30.17 104.57,29.97 C104.79,29.85 105.07,29.89 105.29,30.02 C105.53,30.17 105.52,30.33 105.34,30.47 C105.15,30.61 104.84,30.66 104.6,30.55 C104.22,30.36 103.82,30.44 103.33,30.42 C103.34,31 103.35,31.56 103.37,32.13 C103.37,32.25 103.37,32.36 103.38,32.47 C103.4,32.66 103.28,32.71 102.97,32.66 C102.21,32.52 101.57,32.31 101.08,32.02 C100.51,31.7 100.14,31.27 99.97,30.73 C99.96,30.66 99.94,30.6 99.91,30.52 C99.62,30.52 99.34,30.52 98.98,30.53 C98.99,30.81 99.02,31.09 99.02,31.37 C99.04,31.65 98.89,31.74 98.41,31.73 C97.33,31.74 96.23,31.73 95.1,31.73 C95.13,31.94 95.14,32.14 95.16,32.36 C95.16,32.36 96.76,32.36 96.76,32.36 C96.93,32.36 97.09,32.36 97.25,32.36 C97.47,32.37 97.62,32.39 97.71,32.44 C97.8,32.49 97.84,32.58 97.84,32.7 C97.85,33.64 97.86,34.57 97.86,35.49 C97.87,36.97 97.88,38.44 97.89,39.92 C97.88,40.24 97.76,40.31 97.2,40.32 C95.53,40.31 93.86,40.31 92.2,40.32 C91.92,40.32 91.75,40.3 91.65,40.24 C91.55,40.18 91.52,40.08 91.52,39.91 C91.5,37.53 91.49,35.14 91.48,32.75 C91.47,32.44 91.61,32.36 92.14,32.36 C92.82,32.36 93.49,32.36 94.21,32.36 C94.17,32.15 94.15,31.96 94.1,31.7 C93.81,31.71 93.44,31.73 93.07,31.73 C91.88,31.74 90.69,31.74 89.5,31.74 C89.21,31.74 89.03,31.72 88.93,31.66 C88.83,31.6 88.8,31.5 88.8,31.34 C88.79,30.62 88.79,29.89 88.79,29.17 C88.79,28.84 88.92,28.77 89.48,28.77 C90.97,28.77 92.46,28.77 93.96,28.78 C93.96,28.78 94.17,28.77 94.17,28.77 C94.17,28.56 94.18,28.38 94.18,28.15 C93.5,28.16 92.84,28.17 92.18,28.17 C91.87,28.18 91.68,28.16 91.58,28.1 C91.47,28.04 91.45,27.94 91.45,27.76 C91.44,25.39 91.42,23.01 91.4,20.64 C91.41,20.29 91.51,20.23 92.13,20.22 C92.13,20.22 97.1,20.22 97.1,20.22 C97.37,20.22 97.54,20.24 97.64,20.3z "/><path id="_R_G_L_5_G_D_4_P_0" fill="#ffffff" fill-opacity="1" fill-rule="nonzero" d=" M88.29 29.36 C88.3,29.96 88.29,30.55 88.3,31.15 C87.64,31.19 87,31.19 86.52,30.91 C86.46,30.88 86.4,30.84 86.35,30.8 C85.95,30.49 85.91,30.16 86.23,29.82 C86.68,29.34 87.46,29.31 88.29,29.36z "/><path id="_R_G_L_5_G_D_5_P_0" fill="#ffffff" fill-opacity="1" fill-rule="nonzero" d=" M107.57 28.75 C107.59,28.76 107.61,28.78 107.63,28.79 C108.93,29.61 108.94,30.91 107.66,31.73 C107.66,31.73 107.53,31.8 107.53,31.8 C107.36,31.82 107.2,31.82 107.02,31.82 C107.04,31.72 106.99,31.59 107.07,31.54 C107.45,31.27 107.74,30.99 107.86,30.65 C108.07,30.08 107.86,29.57 107.21,29.11 C107.21,29.11 107.12,29.04 107.12,29.04 C106.94,28.93 106.8,28.82 107.03,28.69 C107.18,28.6 107.35,28.63 107.57,28.75z "/><path id="_R_G_L_5_G_D_6_P_0" fill="#ffffff" fill-opacity="1" fill-rule="nonzero" d=" M106.53 29.32 C106.55,29.33 106.57,29.34 106.58,29.35 C107.36,29.84 107.37,30.67 106.58,31.17 C106.43,31.27 106.25,31.34 106.04,31.24 C106.03,31.24 106.02,31.23 106.01,31.23 C105.83,31.12 105.91,31.02 106.06,30.92 C106.64,30.49 106.65,30.01 106.06,29.61 C105.9,29.5 105.81,29.39 106.01,29.28 C106.21,29.17 106.38,29.23 106.53,29.32z "/><path id="_R_G_L_5_G_D_7_P_0" fill="#ffffff" fill-opacity="1" fill-rule="nonzero" d=" M108.63 28.19 C108.67,28.21 108.7,28.23 108.74,28.25 C110.52,29.4 110.49,31.21 108.67,32.32 C108.56,32.39 108.38,32.43 108.22,32.45 C108.22,32.45 107.99,32.35 107.99,32.35 C107.99,32.27 108.03,32.15 108.12,32.1 C108.6,31.79 108.97,31.45 109.16,31.06 C109.63,30.11 109.33,29.26 108.23,28.51 C108.06,28.39 107.77,28.29 108.03,28.11 C108.18,28.01 108.36,28.03 108.63,28.19z "/></g><g id="_R_G_L_4_G_M"><g id="_R_G_L_4_G"><path id="_R_G_L_4_G_D_0_P_0" fill="#00f6ff" fill-opacity="1" fill-rule="nonzero" d=" M10.94 6.94 C13.46,6.94 15.5,8.98 15.5,11.5 C15.5,14.02 13.46,16.06 10.94,16.06 C8.42,16.06 6.38,14.02 6.38,11.5 C6.38,8.98 8.42,6.94 10.94,6.94z "/><path id="_R_G_L_4_G_D_1_P_0" stroke="#ffffff" stroke-linecap="round" stroke-linejoin="round" fill="none" stroke-width="0" stroke-opacity="1" d=" M10.94 6.94 C13.46,6.94 15.5,8.98 15.5,11.5 C15.5,14.02 13.46,16.06 10.94,16.06 C8.42,16.06 6.38,14.02 6.38,11.5 C6.38,8.98 8.42,6.94 10.94,6.94z "/></g></g><g id="_R_G_L_3_G_M"><g id="_R_G_L_3_G"><path id="_R_G_L_3_G_D_0_P_0" fill="#00f6ff" fill-opacity="1" fill-rule="nonzero" d=" M10.94 6.94 C13.46,6.94 15.5,8.98 15.5,11.5 C15.5,14.02 13.46,16.06 10.94,16.06 C8.42,16.06 6.38,14.02 6.38,11.5 C6.38,8.98 8.42,6.94 10.94,6.94z "/><path id="_R_G_L_3_G_D_1_P_0" stroke="#ffffff" stroke-linecap="round" stroke-linejoin="round" fill="none" stroke-width="0" stroke-opacity="1" d=" M10.94 6.94 C13.46,6.94 15.5,8.98 15.5,11.5 C15.5,14.02 13.46,16.06 10.94,16.06 C8.42,16.06 6.38,14.02 6.38,11.5 C6.38,8.98 8.42,6.94 10.94,6.94z "/></g></g><g id="_R_G_L_2_G_M"><g id="_R_G_L_2_G"><path id="_R_G_L_2_G_D_0_P_0" fill="#00f6ff" fill-opacity="1" fill-rule="nonzero" d=" M10.94 6.94 C13.46,6.94 15.5,8.98 15.5,11.5 C15.5,14.02 13.46,16.06 10.94,16.06 C8.42,16.06 6.38,14.02 6.38,11.5 C6.38,8.98 8.42,6.94 10.94,6.94z "/><path id="_R_G_L_2_G_D_1_P_0" stroke="#ffffff" stroke-linecap="round" stroke-linejoin="round" fill="none" stroke-width="0" stroke-opacity="1" d=" M10.94 6.94 C13.46,6.94 15.5,8.98 15.5,11.5 C15.5,14.02 13.46,16.06 10.94,16.06 C8.42,16.06 6.38,14.02 6.38,11.5 C6.38,8.98 8.42,6.94 10.94,6.94z "/></g></g><g id="_R_G_L_1_G_M"><g id="_R_G_L_1_G"><path id="_R_G_L_1_G_D_0_P_0" fill="#00f6ff" fill-opacity="1" fill-rule="nonzero" d=" M10.94 6.94 C13.46,6.94 15.5,8.98 15.5,11.5 C15.5,14.02 13.46,16.06 10.94,16.06 C8.42,16.06 6.38,14.02 6.38,11.5 C6.38,8.98 8.42,6.94 10.94,6.94z "/><path id="_R_G_L_1_G_D_1_P_0" stroke="#ffffff" stroke-linecap="round" stroke-linejoin="round" fill="none" stroke-width="0" stroke-opacity="1" d=" M10.94 6.94 C13.46,6.94 15.5,8.98 15.5,11.5 C15.5,14.02 13.46,16.06 10.94,16.06 C8.42,16.06 6.38,14.02 6.38,11.5 C6.38,8.98 8.42,6.94 10.94,6.94z "/></g></g><g id="_R_G_L_0_G_M"><g id="_R_G_L_0_G"><path id="_R_G_L_0_G_D_0_P_0" fill="#00f6ff" fill-opacity="1" fill-rule="nonzero" d=" M10.94 6.94 C13.46,6.94 15.5,8.98 15.5,11.5 C15.5,14.02 13.46,16.06 10.94,16.06 C8.42,16.06 6.38,14.02 6.38,11.5 C6.38,8.98 8.42,6.94 10.94,6.94z "/><path id="_R_G_L_0_G_D_1_P_0" stroke="#ffffff" stroke-linecap="round" stroke-linejoin="round" fill="none" stroke-width="0" stroke-opacity="1" d=" M10.94 6.94 C13.46,6.94 15.5,8.98 15.5,11.5 C15.5,14.02 13.46,16.06 10.94,16.06 C8.42,16.06 6.38,14.02 6.38,11.5 C6.38,8.98 8.42,6.94 10.94,6.94z "/></g></g></g><g id="time_group"/></svg>