<svg xmlns="http://www.w3.org/2000/svg" xmlns:xlink="http://www.w3.org/1999/xlink" preserveAspectRatio="xMidYMid meet" width="142" height="142" viewBox="0 0 142 142" style="width:100%;height:100%"><defs><animateTransform repeatCount="indefinite" dur="2s" begin="0s" xlink:href="#_R_G_L_1_G" fill="freeze" attributeName="transform" from="1 1" to="1 1" type="scale" additive="sum" keyTimes="0;0.02;0.06;0.1;1" values="1 1;1 1;1.0805500000000001 1.0805500000000001;1 1;1 1" keySplines="0.167 0.167 0.833 0.833;0.167 0.167 0.833 0.833;0.167 0.167 0.833 0.833;0 0 0 0" calcMode="spline"/><animateTransform repeatCount="indefinite" dur="2s" begin="0s" xlink:href="#_R_G_L_1_G" fill="freeze" attributeName="transform" from="-71 -71" to="-71 -71" type="translate" additive="sum" keyTimes="0;1" values="-71 -71;-71 -71" keySplines="0 0 1 1" calcMode="spline"/><animateMotion repeatCount="indefinite" dur="2s" begin="0s" xlink:href="#_R_G_L_0_G" fill="freeze" keyTimes="0;0.04;0.08;1" path="M71 71 C70.13,70.04 65.75,65.25 65.75,65.25 C65.75,65.25 70.13,70.04 71,71 C71,71 71,71 71,71 " keyPoints="0;0.5;1;1" keySplines="0.167 0.167 0.833 0.833;0.167 0.167 0.833 0.833;0 0 0 0" calcMode="spline"/><animateTransform repeatCount="indefinite" dur="2s" begin="0s" xlink:href="#_R_G_L_0_G" fill="freeze" attributeName="transform" from="1 1" to="1 1" type="scale" additive="sum" keyTimes="0;0.04;0.08;1" values="1 1;1.33799 1.33799;1 1;1 1" keySplines="0.167 0.167 0.833 0.833;0.167 0.167 0.833 0.833;0 0 0 0" calcMode="spline"/><animateTransform repeatCount="indefinite" dur="2s" begin="0s" xlink:href="#_R_G_L_0_G" fill="freeze" attributeName="transform" from="-71 -71" to="-71 -71" type="translate" additive="sum" keyTimes="0;1" values="-71 -71;-71 -71" keySplines="0 0 1 1" calcMode="spline"/><animate attributeType="XML" attributeName="opacity" dur="2s" from="0" to="1" xlink:href="#time_group"/></defs><g id="_R_G"><g id="_R_G_L_1_G" transform=" translate(71, 71)"><path id="_R_G_L_1_G_D_0_P_0" fill="#007fdf" fill-opacity="1" fill-rule="nonzero" d=" M102.78 82.47 C101.7,82.12 100.66,81.79 99.53,81.43 C100.47,78.58 101.2,75.72 101.29,72.61 C101.29,72.61 100.33,72.61 100.33,72.61 C96.21,72.61 92.08,72.61 87.96,72.59 C87.42,72.59 87.22,72.73 87.2,73.29 C87.16,74.63 87.04,75.96 86.95,77.38 C85.75,76.99 84.67,76.64 83.55,76.28 C83.61,75.06 83.67,73.89 83.72,72.65 C83.72,72.65 58.07,72.65 58.07,72.65 C58.09,76.7 58.61,80.65 59.44,84.61 C60.59,84.47 61.64,84.33 62.69,84.21 C67.11,83.68 71.54,83.59 75.97,83.94 C76.22,83.96 76.57,84.22 76.66,84.46 C77.04,85.42 77.33,86.41 77.71,87.54 C71.88,87.05 66.16,87.11 60.47,88.04 C60.45,88.17 60.42,88.26 60.44,88.33 C61.51,91.87 62.91,95.26 65.3,98.14 C65.96,98.93 66.74,99.64 67.58,100.24 C69.68,101.75 72.02,101.73 74.18,100.27 C76.09,98.97 77.36,97.14 78.49,95.17 C78.84,94.57 79.15,93.94 79.56,93.16 C80.07,94.71 80.56,96.12 80.98,97.54 C81.04,97.76 80.79,98.1 80.63,98.36 C80.29,98.9 79.91,99.42 79.42,100.14 C80.26,99.88 80.9,99.67 81.63,99.44 C81.99,100.51 82.34,101.57 82.72,102.72 C77.87,104.58 72.88,105.2 67.77,104.72 C59.23,103.91 51.93,100.41 46.11,94.13 C34.3,81.38 33.78,62.31 44.75,49.1 C55.5,36.15 74.34,33.03 88.64,41.87 C103.74,51.22 107.89,68.96 102.78,82.47z  M58.06 69.11 C58.57,69.11 58.99,69.11 59.4,69.11 C67.28,69.12 75.16,69.13 83.05,69.15 C83.62,69.15 83.8,68.92 83.76,68.4 C83.63,66.87 83.56,65.32 83.37,63.8 C83.1,61.58 82.74,59.38 82.4,57.09 C74.65,58.31 67.07,58.29 59.45,57.11 C58.59,61.1 58.12,65.02 58.06,69.11z  M81.43 53.69 C80.47,50.58 79.39,47.65 77.56,45.11 C76.61,43.78 75.47,42.53 74.19,41.53 C72.17,39.96 69.92,39.96 67.76,41.37 C67.02,41.85 66.31,42.44 65.72,43.11 C63.08,46.05 61.6,49.61 60.45,53.34 C60.42,53.43 60.45,53.55 60.45,53.72 C67.42,54.78 74.36,54.78 81.43,53.69z  M40.51 72.67 C40.49,72.82 40.45,72.92 40.45,73.03 C40.88,78.6 42.68,83.69 45.84,88.3 C46.09,88.66 46.29,88.66 46.67,88.5 C48.3,87.82 49.93,87.14 51.59,86.56 C53.01,86.07 54.48,85.71 55.95,85.28 C55.93,85.07 55.94,84.91 55.91,84.75 C55.13,80.95 54.63,77.12 54.61,73.24 C54.61,72.59 54.23,72.61 53.79,72.61 C49.59,72.61 45.39,72.61 41.18,72.61 C40.97,72.61 40.75,72.65 40.51,72.67z  M54.34 69.07 C54.83,64.82 55.32,60.63 55.79,56.55 C52.6,55.45 49.36,54.34 46.03,53.19 C42.72,57.86 40.82,63.14 40.44,69.07 C40.44,69.07 54.34,69.07 54.34,69.07z  M85.96 56.55 C86.44,60.7 86.93,64.86 87.41,69.04 C87.41,69.04 101.31,69.04 101.31,69.04 C100.94,63.11 99.03,57.83 95.72,53.19 C92.37,54.34 89.13,55.46 85.96,56.55z  M62.16 41.73 C56.81,43.26 52.3,46.09 48.31,50.36 C51.27,51.33 54.01,52.23 56.83,53.16 C58.1,48.96 59.65,45.14 62.16,41.73z  M79.58 41.72 C82.1,45.12 83.65,48.97 84.89,53.01 C87.83,52.35 90.58,51.5 93.3,50.21 C89.43,46.08 84.92,43.25 79.58,41.72z  M62.2 100.03 C59.67,96.62 58.1,92.78 56.83,88.58 C54,89.51 51.26,90.42 48.32,91.38 C52.31,95.65 56.84,98.49 62.2,100.03z "/></g><g id="_R_G_L_0_G"><path id="_R_G_L_0_G_D_0_P_0" fill="#007fdf" fill-opacity="1" fill-rule="nonzero" d=" M78.47 78.47 C87.12,81.26 95.6,83.98 104.27,86.77 C101.29,88.34 98.5,89.82 95.6,91.35 C98.54,94.17 101.41,96.91 104.29,99.67 C102.78,101.12 101.31,102.53 99.76,104.01 C97.1,101.29 94.33,98.45 91.48,95.51 C89.97,98.41 88.51,101.24 86.97,104.21 C84.12,95.59 81.32,87.11 78.47,78.47z "/></g></g><g id="time_group"/></svg>