<svg xmlns="http://www.w3.org/2000/svg" xmlns:xlink="http://www.w3.org/1999/xlink" preserveAspectRatio="xMidYMid meet" width="142" height="142" viewBox="0 0 142 142" style="width:100%;height:100%"><defs><animateTransform repeatCount="indefinite" dur="1s" begin="0s" xlink:href="#_R_G_L_4_G" fill="freeze" attributeName="transform" from="1 1" to="1 1" type="scale" additive="sum" keyTimes="0;0.16;0.28;1" values="1 1;1.06888 1.06888;1 1;1 1" keySplines="0.167 0.167 0.833 0.833;0.167 0.167 0.833 0.833;0 0 0 0" calcMode="spline"/><animateTransform repeatCount="indefinite" dur="1s" begin="0s" xlink:href="#_R_G_L_4_G" fill="freeze" attributeName="transform" from="-71 -71" to="-71 -71" type="translate" additive="sum" keyTimes="0;1" values="-71 -71;-71 -71" keySplines="0 0 1 1" calcMode="spline"/><animate repeatCount="indefinite" dur="1s" begin="0s" xlink:href="#_R_G_L_3_G" fill="freeze" attributeName="opacity" from="0" to="0" keyTimes="0;0.08;0.16;0.24;1" values="0;0;1;0;0" keySplines="0.167 0.167 0.833 0.833;0.167 0.167 0.833 0.833;0.167 0.167 0.833 0.833;0 0 0 0" calcMode="spline"/><animateTransform repeatCount="indefinite" dur="1s" begin="0s" xlink:href="#_R_G_L_3_G" fill="freeze" attributeName="transform" from="1 1" to="1 1" type="scale" additive="sum" keyTimes="0;0.08;0.16;0.24;1" values="1 1;1 1;1.03086 1.03086;1 1;1 1" keySplines="0.167 0.167 0.833 0.833;0.167 0.167 0.833 0.833;0.167 0.167 0.833 0.833;0 0 0 0" calcMode="spline"/><animateTransform repeatCount="indefinite" dur="1s" begin="0s" xlink:href="#_R_G_L_3_G" fill="freeze" attributeName="transform" from="-71 -71" to="-71 -71" type="translate" additive="sum" keyTimes="0;1" values="-71 -71;-71 -71" keySplines="0 0 1 1" calcMode="spline"/><animate repeatCount="indefinite" dur="1s" begin="0s" xlink:href="#_R_G_L_2_G" fill="freeze" attributeName="opacity" from="0" to="0" keyTimes="0;0.08;0.16;0.24;1" values="0;0;1;0;0" keySplines="0.167 0.167 0.833 0.833;0.167 0.167 0.833 0.833;0.167 0.167 0.833 0.833;0 0 0 0" calcMode="spline"/><animateTransform repeatCount="indefinite" dur="1s" begin="0s" xlink:href="#_R_G_L_2_G" fill="freeze" attributeName="transform" from="1 1" to="1 1" type="scale" additive="sum" keyTimes="0;0.08;0.16;0.24;1" values="1 1;1 1;1.03086 1.03086;1 1;1 1" keySplines="0.167 0.167 0.833 0.833;0.167 0.167 0.833 0.833;0.167 0.167 0.833 0.833;0 0 0 0" calcMode="spline"/><animateTransform repeatCount="indefinite" dur="1s" begin="0s" xlink:href="#_R_G_L_2_G" fill="freeze" attributeName="transform" from="-71 -71" to="-71 -71" type="translate" additive="sum" keyTimes="0;1" values="-71 -71;-71 -71" keySplines="0 0 1 1" calcMode="spline"/><animate repeatCount="indefinite" dur="1s" begin="0s" xlink:href="#_R_G_L_1_G" fill="freeze" attributeName="opacity" from="0" to="0" keyTimes="0;0.08;0.16;0.24;1" values="0;0;1;0;0" keySplines="0.167 0.167 0.833 0.833;0.167 0.167 0.833 0.833;0.167 0.167 0.833 0.833;0 0 0 0" calcMode="spline"/><animateTransform repeatCount="indefinite" dur="1s" begin="0s" xlink:href="#_R_G_L_1_G" fill="freeze" attributeName="transform" from="1 1" to="1 1" type="scale" additive="sum" keyTimes="0;0.08;0.16;0.24;1" values="1 1;1 1;1.03086 1.03086;1 1;1 1" keySplines="0.167 0.167 0.833 0.833;0.167 0.167 0.833 0.833;0.167 0.167 0.833 0.833;0 0 0 0" calcMode="spline"/><animateTransform repeatCount="indefinite" dur="1s" begin="0s" xlink:href="#_R_G_L_1_G" fill="freeze" attributeName="transform" from="-71 -71" to="-71 -71" type="translate" additive="sum" keyTimes="0;1" values="-71 -71;-71 -71" keySplines="0 0 1 1" calcMode="spline"/><animate repeatCount="indefinite" dur="1s" begin="0s" xlink:href="#_R_G_L_0_G" fill="freeze" attributeName="opacity" from="0" to="0" keyTimes="0;0.08;0.16;0.24;1" values="0;0;1;0;0" keySplines="0.167 0.167 0.833 0.833;0.167 0.167 0.833 0.833;0.167 0.167 0.833 0.833;0 0 0 0" calcMode="spline"/><animateTransform repeatCount="indefinite" dur="1s" begin="0s" xlink:href="#_R_G_L_0_G" fill="freeze" attributeName="transform" from="1 1" to="1 1" type="scale" additive="sum" keyTimes="0;0.08;0.16;0.24;1" values="1 1;1 1;1.03086 1.03086;1 1;1 1" keySplines="0.167 0.167 0.833 0.833;0.167 0.167 0.833 0.833;0.167 0.167 0.833 0.833;0 0 0 0" calcMode="spline"/><animateTransform repeatCount="indefinite" dur="1s" begin="0s" xlink:href="#_R_G_L_0_G" fill="freeze" attributeName="transform" from="-71 -71" to="-71 -71" type="translate" additive="sum" keyTimes="0;1" values="-71 -71;-71 -71" keySplines="0 0 1 1" calcMode="spline"/><animate attributeType="XML" attributeName="opacity" dur="1s" from="0" to="1" xlink:href="#time_group"/></defs><g id="_R_G"><g id="_R_G_L_5_G"><path id="_R_G_L_5_G_D_0_P_0" fill="#007fdf" fill-opacity="1" fill-rule="nonzero" d=" M91.37 53.8 C91.37,53.8 90.18,53.8 90.18,53.8 C90.18,53.8 90.18,49.04 90.18,49.04 C90.18,46.86 88.41,45.09 86.23,45.09 C86.23,45.09 59.88,45.09 59.88,45.09 C57.7,45.09 55.92,46.86 55.92,49.04 C55.92,49.04 55.92,53.8 55.92,53.8 C55.92,53.8 54.73,53.8 54.73,53.8 C54.73,53.8 54.73,49.04 54.73,49.04 C54.73,46.2 57.04,43.89 59.88,43.89 C59.88,43.89 86.23,43.89 86.23,43.89 C89.06,43.89 91.37,46.2 91.37,49.04 C91.37,49.04 91.37,53.8 91.37,53.8z "/><path id="_R_G_L_5_G_D_1_P_0" fill="#007fdf" fill-opacity="1" fill-rule="nonzero" d=" M90.78 100.21 C90.78,100.21 55.33,100.21 55.33,100.21 C55.33,100.21 55.33,99.02 55.33,99.02 C55.33,99.02 90.78,99.02 90.78,99.02 C90.78,99.02 90.78,100.21 90.78,100.21z "/><path id="_R_G_L_5_G_D_2_P_0" fill="#007fdf" fill-opacity="1" fill-rule="nonzero" d=" M80.83 112.28 C80.83,112.28 65.37,112.28 65.37,112.28 C62.56,112.28 59.91,111.18 57.92,109.19 C57.92,109.19 57.82,109.09 57.82,109.09 C55.83,107.1 54.73,104.45 54.73,101.64 C54.73,101.64 54.73,53.21 54.73,53.21 C54.73,53.21 91.37,53.21 91.37,53.21 C91.37,53.21 91.37,101.74 91.37,101.74 C91.37,104.56 90.28,107.2 88.28,109.19 C86.29,111.18 83.65,112.28 80.83,112.28z  M55.92 54.4 C55.92,54.4 55.92,101.64 55.92,101.64 C55.92,104.13 56.89,106.48 58.66,108.25 C58.66,108.25 58.76,108.35 58.76,108.35 C60.53,110.12 62.88,111.09 65.37,111.09 C65.37,111.09 80.83,111.09 80.83,111.09 C83.33,111.09 85.68,110.12 87.44,108.35 C89.21,106.59 90.18,104.24 90.18,101.74 C90.18,101.74 90.18,54.4 90.18,54.4 C90.18,54.4 55.92,54.4 55.92,54.4z "/></g><g id="_R_G_L_4_G" transform=" translate(71, 71)"><path id="_R_G_L_4_G_D_0_P_0" fill="#007fdf" fill-opacity="1" fill-rule="nonzero" d=" M63 62.11 C63,62.11 59.2,62.11 59.2,62.11 C59.2,62.11 59.2,58.3 59.2,58.3 C59.2,58.3 63,58.3 63,58.3 C63,58.3 63,62.11 63,62.11z "/><path id="_R_G_L_4_G_D_1_P_0" fill="#007fdf" fill-opacity="1" fill-rule="nonzero" d=" M69.01 62.11 C69.01,62.11 65.2,62.11 65.2,62.11 C65.2,62.11 65.2,58.3 65.2,58.3 C65.2,58.3 69.01,58.3 69.01,58.3 C69.01,58.3 69.01,62.11 69.01,62.11z "/><path id="_R_G_L_4_G_D_2_P_0" fill="#007fdf" fill-opacity="1" fill-rule="nonzero" d=" M74.93 62.11 C74.93,62.11 71.13,62.11 71.13,62.11 C71.13,62.11 71.13,58.3 71.13,58.3 C71.13,58.3 74.93,58.3 74.93,58.3 C74.93,58.3 74.93,62.11 74.93,62.11z "/><path id="_R_G_L_4_G_D_3_P_0" fill="#007fdf" fill-opacity="1" fill-rule="nonzero" d=" M80.86 62.11 C80.86,62.11 77.05,62.11 77.05,62.11 C77.05,62.11 77.05,58.3 77.05,58.3 C77.05,58.3 80.86,58.3 80.86,58.3 C80.86,58.3 80.86,62.11 80.86,62.11z "/><path id="_R_G_L_4_G_D_4_P_0" fill="#007fdf" fill-opacity="1" fill-rule="nonzero" d=" M86.91 62.11 C86.91,62.11 83.1,62.11 83.1,62.11 C83.1,62.11 83.1,58.3 83.1,58.3 C83.1,58.3 86.91,58.3 86.91,58.3 C86.91,58.3 86.91,62.11 86.91,62.11z "/><path id="_R_G_L_4_G_D_5_P_0" fill="#007fdf" fill-opacity="1" fill-rule="nonzero" d=" M63 68.76 C63,68.76 59.2,68.76 59.2,68.76 C59.2,68.76 59.2,64.95 59.2,64.95 C59.2,64.95 63,64.95 63,64.95 C63,64.95 63,68.76 63,68.76z "/><path id="_R_G_L_4_G_D_6_P_0" fill="#007fdf" fill-opacity="1" fill-rule="nonzero" d=" M69.01 68.76 C69.01,68.76 65.2,68.76 65.2,68.76 C65.2,68.76 65.2,64.95 65.2,64.95 C65.2,64.95 69.01,64.95 69.01,64.95 C69.01,64.95 69.01,68.76 69.01,68.76z "/><path id="_R_G_L_4_G_D_7_P_0" fill="#007fdf" fill-opacity="1" fill-rule="nonzero" d=" M74.93 68.76 C74.93,68.76 71.13,68.76 71.13,68.76 C71.13,68.76 71.13,64.95 71.13,64.95 C71.13,64.95 74.93,64.95 74.93,64.95 C74.93,64.95 74.93,68.76 74.93,68.76z "/><path id="_R_G_L_4_G_D_8_P_0" fill="#007fdf" fill-opacity="1" fill-rule="nonzero" d=" M80.86 68.76 C80.86,68.76 77.05,68.76 77.05,68.76 C77.05,68.76 77.05,64.95 77.05,64.95 C77.05,64.95 80.86,64.95 80.86,64.95 C80.86,64.95 80.86,68.76 80.86,68.76z "/><path id="_R_G_L_4_G_D_9_P_0" fill="#007fdf" fill-opacity="1" fill-rule="nonzero" d=" M86.91 68.76 C86.91,68.76 83.1,68.76 83.1,68.76 C83.1,68.76 83.1,64.95 83.1,64.95 C83.1,64.95 86.91,64.95 86.91,64.95 C86.91,64.95 86.91,68.76 86.91,68.76z "/><path id="_R_G_L_4_G_D_10_P_0" fill="#007fdf" fill-opacity="1" fill-rule="nonzero" d=" M63 75.4 C63,75.4 59.2,75.4 59.2,75.4 C59.2,75.4 59.2,71.59 59.2,71.59 C59.2,71.59 63,71.59 63,71.59 C63,71.59 63,75.4 63,75.4z "/><path id="_R_G_L_4_G_D_11_P_0" fill="#007fdf" fill-opacity="1" fill-rule="nonzero" d=" M69.01 75.4 C69.01,75.4 65.2,75.4 65.2,75.4 C65.2,75.4 65.2,71.59 65.2,71.59 C65.2,71.59 69.01,71.59 69.01,71.59 C69.01,71.59 69.01,75.4 69.01,75.4z "/><path id="_R_G_L_4_G_D_12_P_0" fill="#007fdf" fill-opacity="1" fill-rule="nonzero" d=" M74.93 75.4 C74.93,75.4 71.13,75.4 71.13,75.4 C71.13,75.4 71.13,71.59 71.13,71.59 C71.13,71.59 74.93,71.59 74.93,71.59 C74.93,71.59 74.93,75.4 74.93,75.4z "/><path id="_R_G_L_4_G_D_13_P_0" fill="#007fdf" fill-opacity="1" fill-rule="nonzero" d=" M80.86 75.4 C80.86,75.4 77.05,75.4 77.05,75.4 C77.05,75.4 77.05,71.59 77.05,71.59 C77.05,71.59 80.86,71.59 80.86,71.59 C80.86,71.59 80.86,75.4 80.86,75.4z "/><path id="_R_G_L_4_G_D_14_P_0" fill="#007fdf" fill-opacity="1" fill-rule="nonzero" d=" M86.91 75.4 C86.91,75.4 83.1,75.4 83.1,75.4 C83.1,75.4 83.1,71.59 83.1,71.59 C83.1,71.59 86.91,71.59 86.91,71.59 C86.91,71.59 86.91,75.4 86.91,75.4z "/><path id="_R_G_L_4_G_D_15_P_0" fill="#007fdf" fill-opacity="1" fill-rule="nonzero" d=" M63 82.05 C63,82.05 59.2,82.05 59.2,82.05 C59.2,82.05 59.2,78.24 59.2,78.24 C59.2,78.24 63,78.24 63,78.24 C63,78.24 63,82.05 63,82.05z "/><path id="_R_G_L_4_G_D_16_P_0" fill="#007fdf" fill-opacity="1" fill-rule="nonzero" d=" M69.01 82.05 C69.01,82.05 65.2,82.05 65.2,82.05 C65.2,82.05 65.2,78.24 65.2,78.24 C65.2,78.24 69.01,78.24 69.01,78.24 C69.01,78.24 69.01,82.05 69.01,82.05z "/><path id="_R_G_L_4_G_D_17_P_0" fill="#007fdf" fill-opacity="1" fill-rule="nonzero" d=" M74.93 82.05 C74.93,82.05 71.13,82.05 71.13,82.05 C71.13,82.05 71.13,78.24 71.13,78.24 C71.13,78.24 74.93,78.24 74.93,78.24 C74.93,78.24 74.93,82.05 74.93,82.05z "/><path id="_R_G_L_4_G_D_18_P_0" fill="#007fdf" fill-opacity="1" fill-rule="nonzero" d=" M80.86 82.05 C80.86,82.05 77.05,82.05 77.05,82.05 C77.05,82.05 77.05,78.24 77.05,78.24 C77.05,78.24 80.86,78.24 80.86,78.24 C80.86,78.24 80.86,82.05 80.86,82.05z "/><path id="_R_G_L_4_G_D_19_P_0" fill="#007fdf" fill-opacity="1" fill-rule="nonzero" d=" M86.91 82.05 C86.91,82.05 83.1,82.05 83.1,82.05 C83.1,82.05 83.1,78.24 83.1,78.24 C83.1,78.24 86.91,78.24 86.91,78.24 C86.91,78.24 86.91,82.05 86.91,82.05z "/><path id="_R_G_L_4_G_D_20_P_0" fill="#007fdf" fill-opacity="1" fill-rule="nonzero" d=" M63 88.7 C63,88.7 59.2,88.7 59.2,88.7 C59.2,88.7 59.2,84.89 59.2,84.89 C59.2,84.89 63,84.89 63,84.89 C63,84.89 63,88.7 63,88.7z "/><path id="_R_G_L_4_G_D_21_P_0" fill="#007fdf" fill-opacity="1" fill-rule="nonzero" d=" M69.01 88.7 C69.01,88.7 65.2,88.7 65.2,88.7 C65.2,88.7 65.2,84.89 65.2,84.89 C65.2,84.89 69.01,84.89 69.01,84.89 C69.01,84.89 69.01,88.7 69.01,88.7z "/><path id="_R_G_L_4_G_D_22_P_0" fill="#007fdf" fill-opacity="1" fill-rule="nonzero" d=" M74.93 88.7 C74.93,88.7 71.13,88.7 71.13,88.7 C71.13,88.7 71.13,84.89 71.13,84.89 C71.13,84.89 74.93,84.89 74.93,84.89 C74.93,84.89 74.93,88.7 74.93,88.7z "/><path id="_R_G_L_4_G_D_23_P_0" fill="#007fdf" fill-opacity="1" fill-rule="nonzero" d=" M80.86 88.7 C80.86,88.7 77.05,88.7 77.05,88.7 C77.05,88.7 77.05,84.89 77.05,84.89 C77.05,84.89 80.86,84.89 80.86,84.89 C80.86,84.89 80.86,88.7 80.86,88.7z "/><path id="_R_G_L_4_G_D_24_P_0" fill="#007fdf" fill-opacity="1" fill-rule="nonzero" d=" M86.91 88.7 C86.91,88.7 83.1,88.7 83.1,88.7 C83.1,88.7 83.1,84.89 83.1,84.89 C83.1,84.89 86.91,84.89 86.91,84.89 C86.91,84.89 86.91,88.7 86.91,88.7z "/><path id="_R_G_L_4_G_D_25_P_0" fill="#007fdf" fill-opacity="1" fill-rule="nonzero" d=" M63 95.35 C63,95.35 59.2,95.35 59.2,95.35 C59.2,95.35 59.2,91.54 59.2,91.54 C59.2,91.54 63,91.54 63,91.54 C63,91.54 63,95.35 63,95.35z "/><path id="_R_G_L_4_G_D_26_P_0" fill="#007fdf" fill-opacity="1" fill-rule="nonzero" d=" M69.01 95.35 C69.01,95.35 65.2,95.35 65.2,95.35 C65.2,95.35 65.2,91.54 65.2,91.54 C65.2,91.54 69.01,91.54 69.01,91.54 C69.01,91.54 69.01,95.35 69.01,95.35z "/><path id="_R_G_L_4_G_D_27_P_0" fill="#007fdf" fill-opacity="1" fill-rule="nonzero" d=" M74.93 95.35 C74.93,95.35 71.13,95.35 71.13,95.35 C71.13,95.35 71.13,91.54 71.13,91.54 C71.13,91.54 74.93,91.54 74.93,91.54 C74.93,91.54 74.93,95.35 74.93,95.35z "/><path id="_R_G_L_4_G_D_28_P_0" fill="#007fdf" fill-opacity="1" fill-rule="nonzero" d=" M80.86 95.35 C80.86,95.35 77.05,95.35 77.05,95.35 C77.05,95.35 77.05,91.54 77.05,91.54 C77.05,91.54 80.86,91.54 80.86,91.54 C80.86,91.54 80.86,95.35 80.86,95.35z "/><path id="_R_G_L_4_G_D_29_P_0" fill="#007fdf" fill-opacity="1" fill-rule="nonzero" d=" M86.91 95.35 C86.91,95.35 83.1,95.35 83.1,95.35 C83.1,95.35 83.1,91.54 83.1,91.54 C83.1,91.54 86.91,91.54 86.91,91.54 C86.91,91.54 86.91,95.35 86.91,95.35z "/></g><g id="_R_G_L_3_G" transform=" translate(71, 71)"><path id="_R_G_L_3_G_D_0_P_0" stroke="#007fdf" stroke-linecap="round" stroke-linejoin="round" fill="none" stroke-width="3" stroke-opacity="1" d=" M53.95 42.86 C53.95,42.86 51.75,37.31 51.75,37.31 "/><path id="_R_G_L_3_G_D_1_P_0" stroke="#007fdf" stroke-linecap="round" stroke-linejoin="round" fill="none" stroke-width="3" stroke-opacity="1" d=" M51.2 47.09 C51.2,47.09 45.37,45.75 45.37,45.75 "/></g><g id="_R_G_L_2_G" transform=" translate(74.75, 81.875) rotate(180)"><path id="_R_G_L_2_G_D_0_P_0" stroke="#007fdf" stroke-linecap="round" stroke-linejoin="round" fill="none" stroke-width="3" stroke-opacity="1" d=" M53.95 42.86 C53.95,42.86 51.75,37.31 51.75,37.31 "/><path id="_R_G_L_2_G_D_1_P_0" stroke="#007fdf" stroke-linecap="round" stroke-linejoin="round" fill="none" stroke-width="3" stroke-opacity="1" d=" M51.2 47.09 C51.2,47.09 45.37,45.75 45.37,45.75 "/></g><g id="_R_G_L_1_G" transform=" translate(71, 71)"><path id="_R_G_L_1_G_D_0_P_0" stroke="#007fdf" stroke-linecap="round" stroke-linejoin="round" fill="none" stroke-width="3" stroke-opacity="1" d=" M90.78 42.2 C90.78,42.2 92.98,36.64 92.98,36.64 "/><path id="_R_G_L_1_G_D_1_P_0" stroke="#007fdf" stroke-linecap="round" stroke-linejoin="round" fill="none" stroke-width="3" stroke-opacity="1" d=" M93.53 46.43 C93.53,46.43 99.35,45.08 99.35,45.08 "/></g><g id="_R_G_L_0_G" transform=" translate(74.75, 81.875) rotate(180)"><path id="_R_G_L_0_G_D_0_P_0" stroke="#007fdf" stroke-linecap="round" stroke-linejoin="round" fill="none" stroke-width="3" stroke-opacity="1" d=" M90.78 42.2 C90.78,42.2 92.98,36.64 92.98,36.64 "/><path id="_R_G_L_0_G_D_1_P_0" stroke="#007fdf" stroke-linecap="round" stroke-linejoin="round" fill="none" stroke-width="3" stroke-opacity="1" d=" M93.53 46.43 C93.53,46.43 99.35,45.08 99.35,45.08 "/></g></g><g id="time_group"/></svg>