<svg xmlns="http://www.w3.org/2000/svg" xmlns:xlink="http://www.w3.org/1999/xlink" preserveAspectRatio="xMidYMid meet" width="142" height="142" viewBox="0 0 142 142" style="width:100%;height:100%"><defs><animateMotion repeatCount="indefinite" dur="2s" begin="0s" xlink:href="#_R_G_L_1_G" fill="freeze" keyTimes="0;0.5;1" path="M71 71 C70.92,70.9 70.5,70.38 70.5,70.38 C70.5,70.38 70.92,70.9 71,71 " keyPoints="0;0.5;1" keySplines="0.167 0.167 0.833 0.833;0.167 0.167 0.833 0.833" calcMode="spline"/><animateTransform repeatCount="indefinite" dur="2s" begin="0s" xlink:href="#_R_G_L_1_G" fill="freeze" attributeName="transform" from="1 1" to="1 1" type="scale" additive="sum" keyTimes="0;0.5;1" values="1 1;1.04 1.04;1 1" keySplines="0.167 0.167 0.833 0.833;0.167 0.167 0.833 0.833" calcMode="spline"/><animateTransform repeatCount="indefinite" dur="2s" begin="0s" xlink:href="#_R_G_L_1_G" fill="freeze" attributeName="transform" from="-71 -71" to="-71 -71" type="translate" additive="sum" keyTimes="0;1" values="-71 -71;-71 -71" keySplines="0 0 1 1" calcMode="spline"/><animateTransform repeatCount="indefinite" dur="2s" begin="0s" xlink:href="#_R_G_L_0_G" fill="freeze" attributeName="transform" from="0" to="0" type="rotate" additive="sum" keyTimes="0;0.5;1" values="0;4;0" keySplines="0.167 0.167 0.833 0.833;0.167 0.167 0.833 0.833" calcMode="spline"/><animateTransform repeatCount="indefinite" dur="2s" begin="0s" xlink:href="#_R_G_L_0_G" fill="freeze" attributeName="transform" from="1 1" to="1 1" type="scale" additive="sum" keyTimes="0;0.5;1" values="1 1;1.1666800000000002 1.1666800000000002;1 1" keySplines="0.167 0.167 0.833 0.833;0.167 0.167 0.833 0.833" calcMode="spline"/><animateTransform repeatCount="indefinite" dur="2s" begin="0s" xlink:href="#_R_G_L_0_G" fill="freeze" attributeName="transform" from="-55.75 -46.75" to="-55.75 -46.75" type="translate" additive="sum" keyTimes="0;1" values="-55.75 -46.75;-55.75 -46.75" keySplines="0 0 1 1" calcMode="spline"/><animate attributeType="XML" attributeName="opacity" dur="2s" from="0" to="1" xlink:href="#time_group"/></defs><g id="_R_G"><g id="_R_G_L_2_G"><path id="_R_G_L_2_G_D_0_P_0" fill="#007fdf" fill-opacity="1" fill-rule="nonzero" d=" M91.59 112.92 C91.59,112.92 49.92,112.92 49.92,112.92 C49.92,112.92 49.92,111.78 49.92,111.78 C49.92,111.78 90.72,111.78 90.72,111.78 C90.72,111.78 102.9,68.11 102.9,68.11 C102.9,68.11 103.99,68.42 103.99,68.42 C103.99,68.42 91.59,112.92 91.59,112.92z "/></g><g id="_R_G_L_1_G"><path id="_R_G_L_1_G_D_0_P_0" fill="#007fdf" fill-opacity="1" fill-rule="nonzero" d=" M61.22 64.81 C61.22,64.81 59.28,73.15 59.28,73.15 C59.28,73.15 69.65,73.15 69.65,73.15 C69.65,73.15 72.18,64.81 72.18,64.81 C72.18,64.81 61.22,64.81 61.22,64.81z "/><path id="_R_G_L_1_G_D_1_P_0" fill="#007fdf" fill-opacity="1" fill-rule="nonzero" d=" M58.3 76.52 C58.3,76.52 56.37,84.87 56.37,84.87 C56.37,84.87 66.73,84.87 66.73,84.87 C66.73,84.87 69.26,76.52 69.26,76.52 C69.26,76.52 58.3,76.52 58.3,76.52z "/><path id="_R_G_L_1_G_D_2_P_0" fill="#007fdf" fill-opacity="1" fill-rule="nonzero" d=" M54.77 89.05 C54.77,89.05 52.83,97.4 52.83,97.4 C52.83,97.4 63.2,97.4 63.2,97.4 C63.2,97.4 65.73,89.05 65.73,89.05 C65.73,89.05 54.77,89.05 54.77,89.05z "/><path id="_R_G_L_1_G_D_3_P_0" fill="#007fdf" fill-opacity="1" fill-rule="nonzero" d=" M51.45 100.52 C51.45,100.52 49.51,108.86 49.51,108.86 C49.51,108.86 59.88,108.86 59.88,108.86 C59.88,108.86 62.41,100.52 62.41,100.52 C62.41,100.52 51.45,100.52 51.45,100.52z "/><path id="_R_G_L_1_G_D_4_P_0" fill="#007fdf" fill-opacity="1" fill-rule="nonzero" d=" M75.55 64.81 C75.55,64.81 73.61,73.15 73.61,73.15 C73.61,73.15 83.98,73.15 83.98,73.15 C83.98,73.15 86.5,64.81 86.5,64.81 C86.5,64.81 75.55,64.81 75.55,64.81z "/><path id="_R_G_L_1_G_D_5_P_0" fill="#007fdf" fill-opacity="1" fill-rule="nonzero" d=" M72.63 76.52 C72.63,76.52 70.69,84.87 70.69,84.87 C70.69,84.87 81.06,84.87 81.06,84.87 C81.06,84.87 83.59,76.52 83.59,76.52 C83.59,76.52 72.63,76.52 72.63,76.52z "/><path id="_R_G_L_1_G_D_6_P_0" fill="#007fdf" fill-opacity="1" fill-rule="nonzero" d=" M69.1 89.05 C69.1,89.05 67.16,97.4 67.16,97.4 C67.16,97.4 77.53,97.4 77.53,97.4 C77.53,97.4 80.06,89.05 80.06,89.05 C80.06,89.05 69.1,89.05 69.1,89.05z "/><path id="_R_G_L_1_G_D_7_P_0" fill="#007fdf" fill-opacity="1" fill-rule="nonzero" d=" M65.78 100.52 C65.78,100.52 63.84,108.86 63.84,108.86 C63.84,108.86 74.21,108.86 74.21,108.86 C74.21,108.86 76.74,100.52 76.74,100.52 C76.74,100.52 65.78,100.52 65.78,100.52z "/><path id="_R_G_L_1_G_D_8_P_0" fill="#007fdf" fill-opacity="1" fill-rule="nonzero" d=" M89.96 64.81 C89.96,64.81 88.02,73.15 88.02,73.15 C88.02,73.15 98.39,73.15 98.39,73.15 C98.39,73.15 100.92,64.81 100.92,64.81 C100.92,64.81 89.96,64.81 89.96,64.81z "/><path id="_R_G_L_1_G_D_9_P_0" fill="#007fdf" fill-opacity="1" fill-rule="nonzero" d=" M87.05 76.52 C87.05,76.52 85.11,84.87 85.11,84.87 C85.11,84.87 95.48,84.87 95.48,84.87 C95.48,84.87 98,76.52 98,76.52 C98,76.52 87.05,76.52 87.05,76.52z "/><path id="_R_G_L_1_G_D_10_P_0" fill="#007fdf" fill-opacity="1" fill-rule="nonzero" d=" M83.51 89.05 C83.51,89.05 81.57,97.4 81.57,97.4 C81.57,97.4 91.94,97.4 91.94,97.4 C91.94,97.4 94.47,89.05 94.47,89.05 C94.47,89.05 83.51,89.05 83.51,89.05z "/><path id="_R_G_L_1_G_D_11_P_0" fill="#007fdf" fill-opacity="1" fill-rule="nonzero" d=" M80.2 100.52 C80.2,100.52 78.26,108.86 78.26,108.86 C78.26,108.86 88.63,108.86 88.63,108.86 C88.63,108.86 91.15,100.52 91.15,100.52 C91.15,100.52 80.2,100.52 80.2,100.52z "/></g><g id="_R_G_L_0_G" transform=" translate(48.75, 40.5)"><path id="_R_G_L_0_G_D_0_P_0" fill="#007fdf" fill-opacity="1" fill-rule="nonzero" d=" M64.69 46.97 C64.69,52.02 60.6,56.12 55.54,56.12 C50.49,56.12 46.4,52.02 46.4,46.97 C46.4,41.92 50.49,37.82 55.54,37.82 C60.6,37.82 64.69,41.92 64.69,46.97z "/><path id="_R_G_L_0_G_D_1_P_0" fill="#007fdf" fill-opacity="1" fill-rule="nonzero" d=" M55.55 35.54 C55.18,35.54 54.88,35.24 54.88,34.87 C54.88,34.87 54.88,29.48 54.88,29.48 C54.88,29.11 55.18,28.82 55.55,28.82 C55.91,28.82 56.21,29.11 56.21,29.48 C56.21,29.48 56.21,34.87 56.21,34.87 C56.21,35.24 55.91,35.54 55.55,35.54z "/><path id="_R_G_L_0_G_D_2_P_0" fill="#007fdf" fill-opacity="1" fill-rule="nonzero" d=" M55.55 65.33 C55.18,65.33 54.88,65.04 54.88,64.67 C54.88,64.67 54.88,59.28 54.88,59.28 C54.88,58.91 55.18,58.61 55.55,58.61 C55.91,58.61 56.21,58.91 56.21,59.28 C56.21,59.28 56.21,64.67 56.21,64.67 C56.21,65.04 55.91,65.33 55.55,65.33z "/><path id="_R_G_L_0_G_D_3_P_0" fill="#007fdf" fill-opacity="1" fill-rule="nonzero" d=" M64.17 39.11 C64,39.11 63.83,39.05 63.7,38.92 C63.44,38.66 63.44,38.24 63.7,37.98 C63.7,37.98 67.52,34.16 67.52,34.16 C67.78,33.91 68.2,33.91 68.46,34.16 C68.71,34.42 68.71,34.84 68.46,35.1 C68.46,35.1 64.64,38.92 64.64,38.92 C64.51,39.05 64.34,39.11 64.17,39.11z "/><path id="_R_G_L_0_G_D_4_P_0" fill="#007fdf" fill-opacity="1" fill-rule="nonzero" d=" M43.1 60.18 C42.93,60.18 42.76,60.11 42.63,59.99 C42.37,59.73 42.37,59.31 42.63,59.05 C42.63,59.05 46.45,55.23 46.45,55.23 C46.71,54.97 47.13,54.97 47.39,55.23 C47.65,55.49 47.65,55.91 47.39,56.17 C47.39,56.17 43.57,59.99 43.57,59.99 C43.44,60.11 43.27,60.18 43.1,60.18z "/><path id="_R_G_L_0_G_D_5_P_0" fill="#007fdf" fill-opacity="1" fill-rule="nonzero" d=" M67.99 60.18 C67.82,60.18 67.65,60.11 67.52,59.99 C67.52,59.99 63.7,56.17 63.7,56.17 C63.44,55.91 63.44,55.49 63.7,55.23 C63.96,54.97 64.38,54.97 64.64,55.23 C64.64,55.23 68.46,59.05 68.46,59.05 C68.72,59.31 68.72,59.73 68.46,59.99 C68.33,60.11 68.16,60.18 67.99,60.18z "/><path id="_R_G_L_0_G_D_6_P_0" fill="#007fdf" fill-opacity="1" fill-rule="nonzero" d=" M46.92 39.11 C46.75,39.11 46.58,39.05 46.45,38.92 C46.45,38.92 42.63,35.1 42.63,35.1 C42.38,34.84 42.38,34.42 42.63,34.16 C42.89,33.91 43.31,33.91 43.57,34.16 C43.57,34.16 47.39,37.98 47.39,37.98 C47.65,38.24 47.65,38.66 47.39,38.92 C47.26,39.05 47.09,39.11 46.92,39.11z "/><path id="_R_G_L_0_G_D_7_P_0" fill="#007fdf" fill-opacity="1" fill-rule="nonzero" d=" M73.59 47.63 C73.59,47.63 68.2,47.63 68.2,47.63 C67.83,47.63 67.54,47.34 67.54,46.97 C67.54,46.6 67.83,46.31 68.2,46.31 C68.2,46.31 73.59,46.31 73.59,46.31 C73.96,46.31 74.26,46.6 74.26,46.97 C74.26,47.34 73.96,47.63 73.59,47.63z "/><path id="_R_G_L_0_G_D_8_P_0" fill="#007fdf" fill-opacity="1" fill-rule="nonzero" d=" M43.8 47.63 C43.8,47.63 38.4,47.63 38.4,47.63 C38.04,47.63 37.74,47.34 37.74,46.97 C37.74,46.6 38.04,46.31 38.4,46.31 C38.4,46.31 43.8,46.31 43.8,46.31 C44.16,46.31 44.46,46.6 44.46,46.97 C44.46,47.34 44.16,47.63 43.8,47.63z "/></g></g><g id="time_group"/></svg>