<svg xmlns="http://www.w3.org/2000/svg" xmlns:xlink="http://www.w3.org/1999/xlink" preserveAspectRatio="xMidYMid meet" width="200" height="200" viewBox="0 0 200 200" style="width:100%;height:100%"><defs><animate repeatCount="indefinite" dur="6.6s" begin="0s" xlink:href="#_R_G_L_7_G" fill="freeze" attributeName="opacity" from="0" to="0" keyTimes="0;0.8;0.8181818;0.8969697;0.9151515;1" values="0;0;1;1;0;0" keySplines="0.167 0.167 0.833 0.833;0.167 0.167 0.833 0.833;0.167 0.167 0.833 0.833;0.167 0.167 0.833 0.833;0 0 0 0" calcMode="spline"/><animate repeatCount="indefinite" dur="6.6s" begin="0s" xlink:href="#_R_G_L_6_G" fill="freeze" attributeName="opacity" from="0" to="0" keyTimes="0;0.6606061;0.6787879;0.7575758;0.7757576;1" values="0;0;1;1;0;0" keySplines="0.167 0.167 0.833 0.833;0.167 0.167 0.833 0.833;0.167 0.167 0.833 0.833;0.167 0.167 0.833 0.833;0 0 0 0" calcMode="spline"/><animate repeatCount="indefinite" dur="6.6s" begin="0s" xlink:href="#_R_G_L_6_G_M" fill="freeze" attributeName="opacity" from="1" to="0" keyTimes="0;0.7818182;0.7818182;1" values="1;1;0;0" keySplines="0 0 0 0;0 0 0 0;0 0 0 0" calcMode="spline"/><animate repeatCount="indefinite" dur="6.6s" begin="0s" xlink:href="#_R_G_L_5_G" fill="freeze" attributeName="opacity" from="0" to="0" keyTimes="0;0.5212121;0.5393939;0.6181818;0.6363636;1" values="0;0;1;1;0;0" keySplines="0.167 0.167 0.833 0.833;0.167 0.167 0.833 0.833;0.167 0.167 0.833 0.833;0.167 0.167 0.833 0.833;0 0 0 0" calcMode="spline"/><animate repeatCount="indefinite" dur="6.6s" begin="0s" xlink:href="#_R_G_L_5_G_M" fill="freeze" attributeName="opacity" from="1" to="0" keyTimes="0;0.6545455;0.6545455;1" values="1;1;0;0" keySplines="0 0 0 0;0 0 0 0;0 0 0 0" calcMode="spline"/><animate repeatCount="indefinite" dur="6.6s" begin="0s" xlink:href="#_R_G_L_4_G" fill="freeze" attributeName="opacity" from="0" to="0" keyTimes="0;0.3878788;0.4060606;0.4848485;0.5030303;1" values="0;0;1;1;0;0" keySplines="0.167 0.167 0.833 0.833;0.167 0.167 0.833 0.833;0.167 0.167 0.833 0.833;0.167 0.167 0.833 0.833;0 0 0 0" calcMode="spline"/><animate repeatCount="indefinite" dur="6.6s" begin="0s" xlink:href="#_R_G_L_4_G_M" fill="freeze" attributeName="opacity" from="1" to="0" keyTimes="0;0.6545455;0.6545455;1" values="1;1;0;0" keySplines="0 0 0 0;0 0 0 0;0 0 0 0" calcMode="spline"/><animate repeatCount="indefinite" dur="6.6s" begin="0s" xlink:href="#_R_G_L_3_G" fill="freeze" attributeName="opacity" from="0" to="0" keyTimes="0;0.2363636;0.2545455;0.3333333;0.3515152;1" values="0;0;1;1;0;0" keySplines="0.167 0.167 0.833 0.833;0.167 0.167 0.833 0.833;0.167 0.167 0.833 0.833;0.167 0.167 0.833 0.833;0 0 0 0" calcMode="spline"/><animate repeatCount="indefinite" dur="6.6s" begin="0s" xlink:href="#_R_G_L_3_G_M" fill="freeze" attributeName="opacity" from="1" to="0" keyTimes="0;0.6545455;0.6545455;1" values="1;1;0;0" keySplines="0 0 0 0;0 0 0 0;0 0 0 0" calcMode="spline"/><animate repeatCount="indefinite" dur="6.6s" begin="0s" xlink:href="#_R_G_L_2_G" fill="freeze" attributeName="opacity" from="0" to="0" keyTimes="0;0.0909091;0.1090909;0.1878788;0.2060606;1" values="0;0;1;1;0;0" keySplines="0.167 0.167 0.833 0.833;0.167 0.167 0.833 0.833;0.167 0.167 0.833 0.833;0.167 0.167 0.833 0.833;0 0 0 0" calcMode="spline"/><animate repeatCount="indefinite" dur="6.6s" begin="0s" xlink:href="#_R_G_L_2_G_M" fill="freeze" attributeName="opacity" from="1" to="0" keyTimes="0;0.6545455;0.6545455;1" values="1;1;0;0" keySplines="0 0 0 0;0 0 0 0;0 0 0 0" calcMode="spline"/><animate repeatCount="indefinite" dur="6.6s" begin="0s" xlink:href="#_R_G_L_1_G" fill="freeze" attributeName="opacity" from="1" to="1" keyTimes="0;0.0606061;0.0727273;0.9272727;0.9515152;1" values="1;1;0;0;1;1" keySplines="0.167 0.167 0.833 0.833;0.167 0.167 0.833 0.833;0.167 0.167 0.833 0.833;0.167 0.167 0.833 0.833;0 0 0 0" calcMode="spline"/><animate attributeType="XML" attributeName="opacity" dur="7s" from="0" to="1" xlink:href="#time_group"/></defs><g id="_R_G"><g id="_R_G_L_7_G" transform=" translate(101.875, 100) translate(-100, -100)"><path id="_R_G_L_7_G_D_0_P_0" fill="#2279ea" fill-opacity="1" fill-rule="nonzero" d=" M141.77 93.59 C141.77,93.59 141.77,98.93 141.77,98.93 C141.76,99 141.73,99.08 141.72,99.15 C141.42,102.92 140.55,106.55 139.06,110.02 C135.95,117.31 130.98,123 124.18,127.07 C119.77,129.72 114.98,131.31 109.86,131.88 C109.42,131.93 108.98,131.99 108.53,132.05 C108.53,132.05 103.19,132.05 103.19,132.05 C102.63,131.98 102.07,131.93 101.5,131.85 C92.94,130.75 85.62,127.12 79.71,120.85 C72.7,113.42 69.43,104.53 69.89,94.31 C70.03,91.1 70.64,87.98 71.67,84.95 C73.58,79.29 76.7,74.38 81.06,70.3 C87.61,64.16 95.39,60.85 104.37,60.43 C107.38,60.29 110.36,60.54 113.31,61.18 C120.07,62.64 125.94,65.8 130.92,70.6 C133.85,73.41 136.22,76.65 138.05,80.28 C139.86,83.89 141.03,87.69 141.54,91.69 C141.62,92.32 141.7,92.96 141.77,93.59z  M137.83 96.56 C137.83,94.44 137.69,92.65 137.37,90.87 C136.11,83.86 132.91,77.86 127.68,73.05 C120.26,66.24 111.49,63.41 101.5,64.7 C94.05,65.66 87.69,68.96 82.58,74.45 C75.35,82.24 72.54,91.48 74.38,101.97 C75.76,109.83 79.76,116.23 85.99,121.2 C90.91,125.12 96.53,127.36 102.8,127.98 C106.38,128.33 109.93,128.07 113.42,127.21 C119.45,125.72 124.61,122.72 128.92,118.26 C132.06,115.01 134.4,111.26 135.94,107.03 C137.21,103.55 137.84,99.95 137.83,96.56z "/><path id="_R_G_L_7_G_D_1_P_0" fill="#2279ea" fill-opacity="1" fill-rule="nonzero" d=" M95.86 117.37 C96.08,117.2 96.32,117.04 96.54,116.85 C97.67,115.84 98.25,114.57 98.26,113.07 C98.28,110.64 98.28,108.21 98.26,105.78 C98.25,105.32 98.18,104.86 98.08,104.41 C97.94,103.78 97.56,103.29 96.99,102.98 C96.81,102.88 96.77,102.77 96.77,102.58 C96.77,98.36 96.77,94.14 96.78,89.92 C96.78,89.8 96.84,89.63 96.93,89.58 C97.73,89.13 98.1,88.41 98.2,87.53 C98.24,87.2 98.26,86.87 98.26,86.54 C98.27,84.27 98.26,82 98.27,79.73 C98.28,77.82 97.55,76.3 95.95,75.22 C95.91,75.19 95.88,75.16 95.78,75.07 C95.78,75.07 96.18,75.07 96.18,75.07 C105.42,75.07 114.67,75.07 123.92,75.07 C125.55,75.07 126.69,76.22 126.69,77.85 C126.69,77.85 126.69,97.44 126.69,97.44 C126.69,103.16 126.67,108.88 126.7,114.6 C126.71,116.27 125.4,117.45 123.86,117.45 C114.67,117.42 105.48,117.43 96.29,117.43 C96.29,117.43 95.88,117.43 95.88,117.43 C95.87,117.41 95.86,117.39 95.86,117.37z  M112.49 79.3 C109.87,79.3 107.25,79.29 104.62,79.3 C103.39,79.3 102.65,80.06 102.65,81.29 C102.65,82.57 102.65,83.85 102.65,85.13 C102.65,85.28 102.65,85.43 102.68,85.58 C102.84,86.51 103.59,87.1 104.62,87.1 C109.71,87.1 114.79,87.1 119.88,87.1 C120.07,87.1 120.26,87.11 120.46,87.1 C121.51,87.07 122.27,86.33 122.28,85.28 C122.3,83.86 122.29,82.44 122.29,81.02 C122.29,80.92 122.27,80.82 122.25,80.72 C122.03,79.82 121.32,79.3 120.28,79.3 C117.68,79.3 115.08,79.3 112.49,79.3z  M107.03 99.32 C107.03,99.15 107.04,98.98 107.03,98.81 C107.02,98.12 106.52,97.59 105.83,97.57 C105.46,97.55 105.08,97.55 104.7,97.57 C104.01,97.6 103.53,98.11 103.52,98.79 C103.52,99.15 103.51,99.51 103.52,99.87 C103.54,100.53 104.04,101.05 104.7,101.07 C105.08,101.08 105.46,101.08 105.83,101.07 C106.5,101.05 107.02,100.53 107.03,99.86 C107.04,99.68 107.03,99.5 107.03,99.32z  M121.43 99.32 C121.43,99.16 121.43,99 121.43,98.84 C121.43,98.1 120.91,97.58 120.18,97.56 C119.83,97.56 119.48,97.55 119.13,97.56 C118.46,97.59 117.95,98.07 117.92,98.73 C117.9,99.12 117.9,99.51 117.92,99.9 C117.95,100.56 118.46,101.05 119.12,101.07 C119.48,101.08 119.84,101.08 120.2,101.07 C120.9,101.06 121.42,100.53 121.43,99.83 C121.43,99.66 121.43,99.49 121.43,99.32z  M112.48 109.38 C112.32,109.38 112.16,109.37 112,109.38 C111.25,109.38 110.73,109.87 110.71,110.62 C110.7,110.97 110.7,111.32 110.71,111.67 C110.74,112.36 111.23,112.85 111.91,112.88 C112.29,112.9 112.67,112.9 113.05,112.88 C113.71,112.85 114.19,112.36 114.23,111.71 C114.25,111.33 114.24,110.95 114.23,110.57 C114.22,109.92 113.7,109.4 113.05,109.38 C112.86,109.37 112.67,109.38 112.48,109.38z  M114.24 99.34 C114.24,99.34 114.24,99.34 114.24,99.34 C114.24,99.18 114.24,99.02 114.24,98.86 C114.22,98.08 113.71,97.57 112.93,97.56 C112.61,97.56 112.29,97.56 111.97,97.56 C111.27,97.57 110.76,98.05 110.71,98.75 C110.69,99.13 110.69,99.51 110.71,99.89 C110.75,100.59 111.27,101.06 111.97,101.07 C112.32,101.07 112.67,101.08 113.02,101.07 C113.69,101.06 114.2,100.55 114.23,99.87 C114.24,99.7 114.24,99.52 114.24,99.34z  M103.52 111.11 C103.52,111.28 103.52,111.45 103.52,111.62 C103.53,112.35 104.03,112.86 104.76,112.88 C105.11,112.89 105.46,112.89 105.81,112.88 C106.52,112.86 107.02,112.34 107.03,111.63 C107.04,111.28 107.04,110.94 107.03,110.59 C107.02,109.91 106.5,109.39 105.83,109.38 C105.46,109.37 105.09,109.37 104.73,109.38 C104.05,109.39 103.54,109.9 103.52,110.57 C103.52,110.75 103.52,110.93 103.52,111.11z  M119.67 109.38 C119.51,109.38 119.35,109.37 119.19,109.38 C118.44,109.38 117.93,109.88 117.91,110.62 C117.91,110.96 117.91,111.3 117.92,111.64 C117.93,112.34 118.42,112.85 119.12,112.88 C119.49,112.9 119.86,112.9 120.23,112.88 C120.94,112.85 121.43,112.32 121.43,111.62 C121.43,111.27 121.44,110.92 121.43,110.57 C121.42,109.93 120.91,109.41 120.27,109.38 C120.07,109.37 119.87,109.38 119.67,109.38z  M107.03 93.43 C107.03,93.25 107.04,93.07 107.03,92.89 C107.02,92.22 106.54,91.7 105.88,91.67 C105.48,91.65 105.08,91.65 104.68,91.67 C104.01,91.7 103.53,92.21 103.52,92.88 C103.51,93.22 103.52,93.56 103.52,93.9 C103.52,94.64 104,95.14 104.74,95.17 C105.08,95.18 105.42,95.18 105.76,95.17 C106.55,95.15 107.03,94.64 107.03,93.85 C107.03,93.85 107.03,93.43 107.03,93.43z  M121.43 93.43 C121.43,93.26 121.43,93.09 121.43,92.92 C121.43,92.22 120.94,91.7 120.25,91.67 C119.86,91.65 119.47,91.65 119.08,91.67 C118.43,91.7 117.94,92.2 117.92,92.85 C117.9,93.23 117.9,93.61 117.92,93.99 C117.94,94.59 118.37,95.1 118.97,95.15 C119.44,95.19 119.92,95.19 120.4,95.14 C120.97,95.09 121.41,94.57 121.43,94 C121.44,93.81 121.43,93.62 121.43,93.43z  M103.52 105.22 C103.52,105.41 103.52,105.59 103.52,105.78 C103.54,106.43 104.03,106.94 104.67,106.97 C105.07,106.98 105.47,106.98 105.87,106.97 C106.5,106.95 107.01,106.44 107.03,105.81 C107.04,105.41 107.04,105.01 107.03,104.62 C107,104.02 106.51,103.51 105.92,103.48 C105.5,103.46 105.08,103.46 104.66,103.48 C104.03,103.51 103.54,104.01 103.52,104.65 C103.51,104.84 103.52,105.03 103.52,105.22z  M119.66 106.96 C119.66,106.96 119.66,106.97 119.66,106.97 C119.84,106.97 120.03,106.98 120.22,106.97 C120.91,106.95 121.42,106.43 121.43,105.74 C121.44,105.39 121.44,105.04 121.43,104.7 C121.42,104.02 120.92,103.49 120.25,103.48 C119.87,103.46 119.49,103.47 119.11,103.48 C118.44,103.49 117.94,103.99 117.92,104.66 C117.9,105.03 117.9,105.41 117.92,105.79 C117.94,106.46 118.45,106.95 119.12,106.96 C119.29,106.97 119.48,106.96 119.66,106.96z  M112.49 91.67 C112.49,91.67 112.49,91.66 112.49,91.66 C112.32,91.66 112.15,91.66 111.98,91.66 C111.26,91.68 110.75,92.16 110.71,92.87 C110.7,93.24 110.69,93.61 110.71,93.98 C110.75,94.65 111.21,95.12 111.88,95.16 C112.28,95.19 112.7,95.19 113.1,95.16 C113.74,95.11 114.19,94.64 114.23,94.01 C114.25,93.62 114.25,93.23 114.23,92.84 C114.21,92.2 113.72,91.71 113.09,91.67 C112.89,91.66 112.69,91.67 112.49,91.67z  M112.48 106.97 C112.64,106.97 112.8,106.97 112.96,106.97 C113.71,106.96 114.22,106.46 114.24,105.72 C114.24,105.37 114.25,105.02 114.23,104.67 C114.21,103.99 113.7,103.49 113.02,103.48 C112.67,103.47 112.32,103.47 111.97,103.47 C111.25,103.48 110.74,103.97 110.71,104.68 C110.7,105.04 110.7,105.4 110.71,105.76 C110.74,106.48 111.25,106.96 111.97,106.97 C112.14,106.97 112.31,106.97 112.48,106.97z "/><path id="_R_G_L_7_G_D_2_P_0" fill="#2279ea" fill-opacity="1" fill-rule="nonzero" d=" M97.62 83.1 C97.62,84.31 97.63,85.52 97.61,86.73 C97.61,87.08 97.56,87.45 97.49,87.8 C97.34,88.43 96.98,88.9 96.36,89.13 C96.16,89.21 96.12,89.32 96.12,89.51 C96.12,94.01 96.12,98.51 96.12,103.01 C96.12,103.17 96.12,103.29 96.31,103.36 C97.08,103.64 97.47,104.24 97.54,105.02 C97.61,105.77 97.61,106.52 97.61,107.27 C97.62,109.18 97.62,111.09 97.62,112.99 C97.61,115.53 95.71,117.43 93.18,117.43 C91.88,117.43 90.58,117.43 89.28,117.43 C87.08,117.43 85.18,115.7 85.01,113.51 C84.95,112.66 84.97,111.81 84.97,110.96 C84.97,109.32 84.96,107.68 84.99,106.04 C85,105.57 85.08,105.09 85.19,104.63 C85.35,103.97 85.78,103.52 86.43,103.31 C86.63,103.24 86.7,103.14 86.7,102.93 C86.69,98.48 86.69,94.03 86.69,89.58 C86.69,89.47 86.62,89.29 86.55,89.27 C85.41,88.9 85.08,88 85.02,86.94 C84.98,86.26 84.97,85.58 84.97,84.9 C84.97,83.13 84.96,81.36 84.97,79.59 C84.99,77.7 85.83,76.3 87.54,75.46 C88.11,75.18 88.72,75.07 89.35,75.07 C90.65,75.07 91.95,75.07 93.25,75.07 C95.66,75.08 97.6,76.99 97.61,79.41 C97.62,80.64 97.62,81.87 97.62,83.1z "/></g><g id="_R_G_L_6_G_M"><g id="_R_G_L_6_G" transform=" translate(101.875, 100) translate(-100, -100)"><path id="_R_G_L_6_G_D_0_P_0" fill="#2279ea" fill-opacity="1" fill-rule="nonzero" d=" M93.99 80.05 C93.67,78.96 93.21,77.99 93.13,76.98 C93.04,75.87 93.23,74.72 93.42,73.61 C93.6,72.6 93.97,71.62 94.22,70.62 C94.38,69.97 94.73,69.58 95.41,69.62 C96.08,69.67 96.51,70.08 96.41,70.76 C96.27,71.74 96.16,72.77 95.78,73.68 C95.12,75.24 95.26,76.66 95.74,78.27 C96.22,79.86 97.06,80.1 98.54,80.08 C106.02,80.01 113.5,80.08 120.98,80.02 C122.78,80.01 124.39,81.06 124.35,83.36 C124.24,88.85 124.31,94.35 124.31,99.84 C124.31,101.98 123.25,103.04 121.08,103.04 C110.53,103.04 99.98,103.04 89.43,103.04 C82.85,103.04 76.28,103.04 69.71,103.04 C67.4,103.04 66.3,101.95 66.3,99.65 C66.29,94.25 66.29,88.86 66.3,83.47 C66.3,81.15 67.39,80.05 69.69,80.05 C77.37,80.05 85.05,80.05 92.74,80.05 C92.74,80.05 93.99,80.05 93.99,80.05z  M108.1 96.22 C108.1,96.22 82.7,96.22 82.7,96.22 C82.7,96.22 82.7,100.61 82.7,100.61 C82.7,100.61 108.1,100.61 108.1,100.61 C108.1,100.61 108.1,96.22 108.1,96.22z    M96.57 86.87 C96.57,86.87 101.09,86.87 101.09,86.87 C101.09,86.87 101.09,82.46 101.09,82.46 C101.09,82.46 96.57,82.46 96.57,82.46 C96.57,82.46 96.57,86.87 96.57,86.87z  M96.52 93.72 C96.52,93.72 101.1,93.72 101.1,93.72 C101.1,93.72 101.1,89.37 101.1,89.37 C101.1,89.37 96.52,89.37 96.52,89.37 C96.52,89.37 96.52,93.72 96.52,93.72z  M68.66 86.85 C68.66,86.85 73.28,86.85 73.28,86.85 C73.28,86.85 73.28,82.41 73.28,82.41 C71.91,82.41 70.61,82.38 69.31,82.44 C69.08,82.45 68.7,82.86 68.69,83.09 C68.63,84.33 68.66,85.56 68.66,86.85z  M75.61 86.86 C75.61,86.86 80.19,86.86 80.19,86.86 C80.19,86.86 80.19,82.47 80.19,82.47 C80.19,82.47 75.61,82.47 75.61,82.47 C75.61,82.47 75.61,86.86 75.61,86.86z    M82.68 86.85 C82.68,86.85 87.15,86.85 87.15,86.85 C87.15,86.85 87.15,82.45 87.15,82.45 C87.15,82.45 82.68,82.45 82.68,82.45 C82.68,82.45 82.68,86.85 82.68,86.85z  M94.14 82.49 C94.14,82.49 89.58,82.49 89.58,82.49 C89.58,82.49 89.58,86.84 89.58,86.84 C89.58,86.84 94.14,86.84 94.14,86.84 C94.14,86.84 94.14,82.49 94.14,82.49z    M103.53 86.86 C103.53,86.86 108.08,86.86 108.08,86.86 C108.08,86.86 108.08,82.46 108.08,82.46 C108.08,82.46 103.53,82.46 103.53,82.46 C103.53,82.46 103.53,86.86 103.53,86.86z  M115 82.49 C115,82.49 110.43,82.49 110.43,82.49 C110.43,82.49 110.43,86.85 110.43,86.85 C110.43,86.85 115,86.85 115,86.85 C115,86.85 115,82.49 115,82.49z    M73.27 89.37 C73.27,89.37 68.73,89.37 68.73,89.37 C68.73,89.37 68.73,93.76 68.73,93.76 C68.73,93.76 73.27,93.76 73.27,93.76 C73.27,93.76 73.27,89.37 73.27,89.37z  M80.2 89.38 C80.2,89.38 75.62,89.38 75.62,89.38 C75.62,89.38 75.62,93.74 75.62,93.74 C75.62,93.74 80.2,93.74 80.2,93.74 C80.2,93.74 80.2,89.38 80.2,89.38z    M82.69 93.72 C82.69,93.72 87.14,93.72 87.14,93.72 C87.14,93.72 87.14,89.33 87.14,89.33 C87.14,89.33 82.69,89.33 82.69,89.33 C82.69,89.33 82.69,93.72 82.69,93.72z    M89.59 93.72 C89.59,93.72 94.11,93.72 94.11,93.72 C94.11,93.72 94.11,89.33 94.11,89.33 C94.11,89.33 89.59,89.33 89.59,89.33 C89.59,89.33 89.59,93.72 89.59,93.72z  M103.51 93.74 C103.51,93.74 108.08,93.74 108.08,93.74 C108.08,93.74 108.08,89.36 108.08,89.36 C108.08,89.36 103.51,89.36 103.51,89.36 C103.51,89.36 103.51,93.74 103.51,93.74z    M114.97 89.36 C114.97,89.36 110.42,89.36 110.42,89.36 C110.42,89.36 110.42,93.76 110.42,93.76 C110.42,93.76 114.97,93.76 114.97,93.76 C114.97,93.76 114.97,89.36 114.97,89.36z    M122.03 89.35 C122.03,89.35 117.46,89.35 117.46,89.35 C117.46,89.35 117.46,93.75 117.46,93.75 C117.46,93.75 122.03,93.75 122.03,93.75 C122.03,93.75 122.03,89.35 122.03,89.35z  M73.31 96.23 C73.31,96.23 68.66,96.23 68.66,96.23 C68.66,97.54 68.64,98.78 68.68,100.01 C68.69,100.23 68.96,100.63 69.12,100.63 C70.51,100.68 71.9,100.66 73.31,100.66 C73.31,100.66 73.31,96.23 73.31,96.23z    M80.19 96.23 C80.19,96.23 75.63,96.23 75.63,96.23 C75.63,96.23 75.63,100.64 75.63,100.64 C75.63,100.64 80.19,100.64 80.19,100.64 C80.19,100.64 80.19,96.23 80.19,96.23z  M115 96.23 C115,96.23 110.42,96.23 110.42,96.23 C110.42,96.23 110.42,100.61 110.42,100.61 C110.42,100.61 115,100.61 115,100.61 C115,100.61 115,96.23 115,96.23z  M117.48 82.41 C117.48,82.41 117.48,86.85 117.48,86.85 C117.48,86.85 122.09,86.85 122.09,86.85 C122.09,85.59 122.08,84.42 122.09,83.24 C122.09,82.72 121.93,82.4 121.34,82.41 C120.07,82.42 118.8,82.41 117.48,82.41z  M117.45 100.68 C118.81,100.68 120.06,100.71 121.3,100.65 C121.57,100.64 122.03,100.3 122.04,100.09 C122.11,98.8 122.08,97.5 122.08,96.25 C122.08,96.25 117.45,96.25 117.45,96.25 C117.45,96.25 117.45,100.68 117.45,100.68z "/><path id="_R_G_L_6_G_D_1_P_0" fill="#2279ea" fill-opacity="1" fill-rule="nonzero" d=" M134.87 80.46 C133.96,78.65 133.95,76.94 134.79,75.22 C134.93,74.93 134.96,74.57 134.99,74.23 C135.06,73.55 135.44,73.18 136.11,73.19 C136.85,73.2 137.23,73.71 137.19,74.38 C137.15,75.04 137.04,75.75 136.74,76.33 C135.98,77.77 136.74,79.01 137.15,80.29 C137.2,80.44 137.53,80.53 137.74,80.59 C141.8,81.65 144.05,84.33 144.21,88.53 C144.3,90.92 144.28,93.32 144.15,95.7 C143.91,99.85 140.32,103.06 136.08,103.04 C131.92,103.02 128.35,99.78 128.15,95.67 C128.02,93.15 128,90.61 128.13,88.1 C128.35,84.25 130.63,81.62 134.38,80.62 C134.51,80.58 134.63,80.54 134.87,80.46z  M134.96 82.89 C132.66,83.13 130.52,85.31 130.39,87.81 C130.26,90.36 130.25,92.93 130.38,95.48 C130.53,98.47 133.1,100.78 136.08,100.82 C139.1,100.85 141.74,98.55 141.91,95.52 C142.05,93.04 141.96,90.54 141.94,88.05 C141.92,86.71 141.35,85.56 140.47,84.6 C139.63,83.68 138.63,83 137.29,82.85 C137.22,83.75 137.13,84.49 138.04,85.02 C138.41,85.24 138.72,85.83 138.77,86.29 C138.87,87.35 138.97,88.46 138.76,89.5 C138.35,91.53 135.8,92.23 134.28,90.82 C133.04,89.67 132.92,86.09 134.24,85.05 C135.06,84.4 135.13,83.75 134.96,82.89z  M135.4 87.85 C135.67,88.39 135.92,89.24 136.12,89.23 C136.98,89.17 136.63,88.38 136.63,87.89 C136.62,87.41 137.01,86.61 136.12,86.56 C135.92,86.55 135.68,87.33 135.4,87.85z "/></g></g><g id="_R_G_L_5_G_M"><g id="_R_G_L_5_G" transform=" translate(104.375, 100) translate(-100, -100)"><path id="_R_G_L_5_G_D_0_P_0" fill="#2279ea" fill-opacity="1" fill-rule="nonzero" d=" M66.17 64.39 C66.17,64.39 139.08,64.39 139.08,64.39 C139.08,64.39 139.08,106.53 139.08,106.53 C139.08,106.53 66.17,106.53 66.17,106.53 C66.17,106.53 66.17,64.39 66.17,64.39z  M67.47 105.12 C67.47,105.12 137.73,105.12 137.73,105.12 C137.73,105.12 137.73,65.69 137.73,65.69 C137.73,65.69 67.47,65.69 67.47,65.69 C67.47,65.69 67.47,105.12 67.47,105.12z "/><path id="_R_G_L_5_G_D_1_P_0" fill="#2279ea" fill-opacity="1" fill-rule="nonzero" d=" M126.09 111.4 C126.09,111.4 79.44,111.4 79.44,111.4 C79.49,111.19 79.48,111.02 79.56,110.93 C79.71,110.77 79.93,110.68 80.08,110.52 C82.66,107.88 85.72,107.12 89.44,107.21 C99.6,107.46 109.77,107.3 119.94,107.28 C120.77,107.28 121.41,107.49 122.04,108.02 C123.08,108.91 124.18,109.72 125.25,110.57 C125.48,110.75 125.67,110.98 126.09,111.4z "/></g></g><g id="_R_G_L_4_G_M"><g id="_R_G_L_4_G" transform=" translate(101.25, 100) translate(-100, -100)"><path id="_R_G_L_4_G_D_0_P_0" fill="#2279ea" fill-opacity="1" fill-rule="nonzero" d=" M91.66 94.38 C92.03,96.55 93.52,97.95 95.69,97.97 C102.45,98.02 109.21,98.02 115.97,97.97 C118.14,97.95 119.64,96.54 120,94.38 C121.66,84.65 123.31,74.91 124.91,65.17 C125.49,61.69 123.79,59.81 120.23,59.8 C115.43,59.79 110.63,59.79 105.84,59.79 C100.98,59.79 96.13,59.77 91.28,59.8 C87.92,59.82 86.21,61.73 86.74,65 C88.34,74.8 90,84.59 91.66,94.38z "/><path id="_R_G_L_4_G_D_1_P_0" fill="#2279ea" fill-opacity="1" fill-rule="nonzero" d=" M87.97 106.91 C93.93,106.92 99.88,106.91 105.84,106.92 C112.03,106.92 118.22,106.93 124.41,106.91 C126.75,106.9 127.8,105.8 127.78,103.49 C127.74,100.9 125.86,99.11 123,99.11 C111.55,99.09 100.09,99.1 88.64,99.1 C88.41,99.1 88.18,99.1 87.95,99.12 C85.49,99.32 83.78,101.33 83.91,103.86 C84.03,106.16 85.01,106.91 87.97,106.91z "/><path id="_R_G_L_4_G_D_2_P_0" fill="#2279ea" fill-opacity="1" fill-rule="nonzero" d=" M82.83 85.79 C82.81,84.06 81.41,82.81 79.64,82.75 C77.5,82.67 75.36,82.67 73.22,82.74 C71.33,82.81 69.93,84.27 69.87,86.07 C69.81,87.91 71.24,89.46 73.19,89.63 C73.82,89.68 74.46,89.64 75.09,89.65 C77.33,89.68 78.06,90.42 78.08,92.7 C78.1,95.36 78.03,98.02 78.11,100.67 C78.19,103.35 80.12,105.16 82.86,105.19 C82.86,98.72 82.91,92.26 82.83,85.79z "/><path id="_R_G_L_4_G_D_3_P_0" fill="#2279ea" fill-opacity="1" fill-rule="nonzero" d=" M138.22 82.73 C136.54,82.67 134.86,82.71 133.19,82.71 C129.92,82.72 128.79,83.84 128.78,87.06 C128.77,92.2 128.78,97.35 128.78,102.49 C128.78,102.49 128.78,105.22 128.78,105.22 C131.64,105.07 133.48,103.28 133.56,100.62 C133.62,98.6 133.58,96.57 133.58,94.55 C133.58,89.91 133.58,89.91 138.19,89.65 C140.31,89.53 141.78,88.11 141.8,86.18 C141.81,84.28 140.32,82.8 138.22,82.73z "/><path id="_R_G_L_4_G_D_4_P_0" fill="#2279ea" fill-opacity="1" fill-rule="nonzero" d=" M102.57 113.88 C104.76,113.9 106.96,113.9 109.15,113.88 C112.92,113.86 114.69,111.68 113.98,107.89 C113.98,107.89 97.65,107.89 97.65,107.89 C97.07,111.82 98.75,113.84 102.57,113.88z "/><path id="_R_G_L_4_G_D_5_P_0" fill="#2279ea" fill-opacity="1" fill-rule="nonzero" d=" M105.89 132.77 C104.57,132.77 103.49,133.84 103.49,135.17 C103.49,136.5 104.57,137.57 105.89,137.57 C107.22,137.57 108.3,136.5 108.3,135.17 C108.3,133.84 107.22,132.77 105.89,132.77z "/><path id="_R_G_L_4_G_D_6_P_0" fill="#2279ea" fill-opacity="1" fill-rule="nonzero" d=" M82.88 132.77 C81.55,132.77 80.47,133.84 80.47,135.17 C80.47,136.5 81.55,137.57 82.88,137.57 C84.2,137.57 85.28,136.5 85.28,135.17 C85.28,133.84 84.2,132.77 82.88,132.77z "/><path id="_R_G_L_4_G_D_7_P_0" fill="#2279ea" fill-opacity="1" fill-rule="nonzero" d=" M128.17 132.77 C126.84,132.77 125.76,133.84 125.76,135.17 C125.76,136.5 126.84,137.57 128.17,137.57 C129.49,137.57 130.57,136.5 130.57,135.17 C130.57,133.84 129.49,132.77 128.17,132.77z "/><path id="_R_G_L_4_G_D_8_P_0" fill="#2279ea" fill-opacity="1" fill-rule="nonzero" d=" M105.7 115.13 C105.7,115.13 105.65,115.13 105.65,115.13 C105.65,115.13 105.59,115.13 105.59,115.13 C98.72,114.81 84.62,117.62 80.48,130.62 C80.48,130.62 85.78,132.31 85.78,132.31 C88.71,123.11 98.04,121.16 102.68,120.77 C102.68,120.77 102.68,131.26 102.68,131.26 C102.68,131.26 103.05,131.26 103.05,131.26 C103.05,131.26 108.24,131.26 108.24,131.26 C108.24,131.26 108.62,131.26 108.62,131.26 C108.62,131.26 108.62,120.77 108.62,120.77 C113.26,121.16 122.59,123.11 125.51,132.31 C125.51,132.31 130.82,130.62 130.82,130.62 C126.68,117.62 112.58,114.81 105.7,115.13z "/></g></g><g id="_R_G_L_3_G_M"><g id="_R_G_L_3_G" transform=" translate(105, 114) scale(1.45559, 1.45559) translate(-100, -100)"><path id="_R_G_L_3_G_D_0_P_0" fill="#2279ea" fill-opacity="1" fill-rule="nonzero" d=" M75.66 81.88 C75.21,80.06 74.59,78.33 74.37,76.55 C74.01,73.59 75.58,71.51 78.51,70.89 C84.38,69.65 90.27,68.47 96.15,67.26 C101.66,66.13 107.18,65.02 112.69,63.86 C113.52,63.69 114.19,63.8 114.87,64.28 C118.15,66.58 119.68,69.88 120.4,73.93 C116.98,74.54 113.64,75.19 110.29,75.69 C109.54,75.8 108.67,75.55 107.94,75.27 C106.21,74.61 104.51,74.46 102.69,74.9 C98.39,75.92 94.07,76.84 89.77,77.85 C89.05,78.03 88.61,77.92 88.13,77.34 C86.44,75.35 84.49,73.65 82.17,72.39 C81.3,71.92 80.67,72.06 80,72.7 C78.65,74.01 78.08,75.69 77.78,77.48 C77.65,78.24 77.6,79.02 77.57,79.79 C77.52,81.3 77.54,81.3 75.66,81.88z "/><path id="_R_G_L_3_G_D_1_P_0" fill="#2279ea" fill-opacity="1" fill-rule="nonzero" d=" M89.48 79.75 C94.47,78.62 99.32,77.49 104.2,76.46 C104.94,76.31 105.86,76.43 106.56,76.75 C108.96,77.82 111.36,77.6 113.8,77.08 C115.45,76.73 117.09,76.38 118.84,76 C119.06,79.05 118.61,81.82 116.35,84.02 C116.13,84.24 115.78,84.38 115.47,84.46 C106.75,86.67 98.02,88.87 89.3,91.06 C89.21,91.09 89.11,91.08 88.9,91.1 C90.68,87.41 90.45,83.65 89.48,79.75z "/><path id="_R_G_L_3_G_D_2_P_0" fill="#2279ea" fill-opacity="1" fill-rule="nonzero" d=" M108.06 87.88 C108.06,91.33 108.12,94.64 108.03,97.94 C107.99,99.61 106.55,100.77 104.86,100.9 C101.04,101.17 99.68,99.69 99.87,96.14 C99.97,94.33 99.86,92.5 99.92,90.68 C99.92,90.38 100.21,89.9 100.46,89.83 C102.93,89.15 105.41,88.55 108.06,87.88z  M103.92 95.25 C103.15,95.28 102.53,95.94 102.54,96.71 C102.56,97.53 103.25,98.17 104.07,98.11 C104.84,98.05 105.45,97.37 105.41,96.62 C105.36,95.87 104.65,95.22 103.92,95.25z "/><path id="_R_G_L_3_G_D_3_P_0" fill="#2279ea" fill-opacity="1" fill-rule="nonzero" d=" M120.22 104.87 C116.12,103.65 112.07,102.44 107.86,101.19 C109.66,99.68 109.31,97.67 109.37,95.67 C113.02,96.1 116.59,96.52 120.22,96.95 C120.22,96.95 120.22,104.87 120.22,104.87z "/><path id="_R_G_L_3_G_D_4_P_0" fill="#2279ea" fill-opacity="1" fill-rule="nonzero" d=" M125.68 109.29 C123.07,109.42 121.67,108.13 121.67,105.66 C121.66,102.62 121.64,99.59 121.67,96.55 C121.7,94.38 123.47,93.01 125.68,93.41 C125.68,93.41 125.68,109.29 125.68,109.29z "/><path id="_R_G_L_3_G_D_5_P_0" fill="#2279ea" fill-opacity="1" fill-rule="nonzero" d=" M86 77.24 C87.52,78.5 88.28,79.84 88.55,81.53 C88.92,83.86 89.09,86.17 88.43,88.45 C88.01,89.91 87.4,91.34 85.69,91.65 C84.09,91.94 82.96,90.94 82.12,89.77 C79.18,85.68 78.3,81.15 79.41,76.23 C79.43,76.13 79.47,76.04 79.51,75.94 C80.76,73.01 81.06,73.09 83.56,75.08 C82.14,75.13 81.47,76.04 81.18,77.19 C80.17,81.11 80.88,84.76 83.21,88.05 C83.77,88.84 84.54,89.48 85.61,89.28 C86.67,89.07 87.12,88.17 87.39,87.25 C88.3,84.12 87.75,81.11 86.48,78.18 C86.37,77.94 86.24,77.71 86,77.24z "/><path id="_R_G_L_3_G_D_6_P_0" fill="#2279ea" fill-opacity="1" fill-rule="nonzero" d=" M82.43 80.88 C82.64,80.11 82.75,79.3 83.07,78.58 C83.4,77.85 84.05,77.7 84.77,78.12 C85.59,78.61 85.84,79.27 85.48,79.95 C84.8,81.18 85.05,82.92 86.18,83.81 C87.1,84.54 86.5,85.15 86.12,85.7 C85.65,86.38 84.99,86.29 84.37,85.8 C83.34,84.98 82.57,82.89 82.43,80.88z "/></g></g><g id="_R_G_L_2_G_M"><g id="_R_G_L_2_G"><path id="_R_G_L_2_G_D_0_P_0" fill="#2279ea" fill-opacity="1" fill-rule="nonzero" d=" M126.16 120.36 C126.16,120.36 121.22,120.36 121.22,120.36 C120.41,120.36 119.6,120.32 118.79,120.37 C118.22,120.41 117.93,120.26 117.87,119.64 C117.79,118.88 117.61,118.14 117.46,117.31 C117.46,117.31 122.66,117.31 122.66,117.31 C122.66,117.31 122.66,113.11 122.66,113.11 C122.4,113.1 122.16,113.08 121.91,113.08 C120.44,113.07 118.97,113.03 117.5,113.1 C116.81,113.13 116.57,112.9 116.49,112.24 C116.37,111.24 116.14,110.25 115.95,109.19 C115.95,109.19 121.69,109.19 121.69,109.19 C121.69,109.19 121.69,104.97 121.69,104.97 C121.69,104.97 115.16,104.97 115.16,104.97 C114.87,103.42 114.6,101.95 114.3,100.36 C114.3,100.36 115.03,100.36 115.03,100.36 C116.87,100.36 118.72,100.34 120.56,100.37 C121.02,100.37 121.18,100.24 121.17,99.77 C121.14,98.6 121.16,97.42 121.16,96.17 C121.16,96.17 113.62,96.17 113.62,96.17 C113.62,96.17 113.62,80.63 113.62,80.63 C113.62,80.63 124.37,80.63 124.37,80.63 C124.37,80.63 124.37,86.18 124.37,86.18 C124.37,86.18 134.22,86.18 134.22,86.18 C134.22,86.18 134.22,80.64 134.22,80.64 C134.22,80.64 144.98,80.64 144.98,80.64 C144.98,80.64 144.98,96.12 144.98,96.12 C144.98,96.12 137.5,96.12 137.5,96.12 C137.5,96.12 137.5,100.34 137.5,100.34 C137.5,100.34 144.3,100.34 144.3,100.34 C144.01,101.93 143.73,103.43 143.44,104.96 C141.44,104.96 139.5,104.98 137.55,104.95 C136.97,104.94 136.81,105.12 136.84,105.68 C136.88,106.81 136.85,107.95 136.85,109.17 C136.85,109.17 142.65,109.17 142.65,109.17 C142.43,110.41 142.21,111.56 142.01,112.72 C141.95,113.1 141.69,113.08 141.41,113.08 C139.8,113.07 138.18,113.1 136.57,113.06 C136.02,113.05 135.85,113.22 135.87,113.77 C135.91,114.92 135.88,116.08 135.88,117.29 C135.88,117.29 141.14,117.29 141.14,117.29 C140.94,118.36 140.76,119.34 140.58,120.35 C140.58,120.35 132.49,120.35 132.49,120.35 C132.49,120.35 132.49,134.24 132.49,134.24 C132.49,134.24 126.16,134.24 126.16,134.24 C126.16,134.24 126.16,120.36 126.16,120.36z "/><path id="_R_G_L_2_G_D_1_P_0" fill="#2279ea" fill-opacity="1" fill-rule="nonzero" d=" M133.31 85.07 C133.31,85.07 125.33,85.07 125.33,85.07 C125.33,85.07 125.33,76.71 125.33,76.71 C125.33,76.71 124.39,76.71 124.39,76.71 C124.39,76.71 124.39,78.08 124.39,78.08 C124.39,78.08 117.48,78.08 117.48,78.08 C117.48,78.08 117.48,61.27 117.48,61.27 C117.48,61.27 119.9,61.27 119.9,61.27 C119.9,61.27 119.9,68.17 119.9,68.17 C119.9,68.17 122.08,68.17 122.08,68.17 C122.08,68.17 122.08,61.27 122.08,61.27 C122.08,61.27 124.02,61.27 124.02,61.27 C124.02,61.27 124.02,68.16 124.02,68.16 C124.02,68.16 126.25,68.16 126.25,68.16 C126.25,68.16 126.25,61.26 126.25,61.26 C126.25,61.26 128.18,61.26 128.18,61.26 C128.18,61.26 128.18,68.17 128.18,68.17 C128.18,68.17 130.37,68.17 130.37,68.17 C130.37,68.17 130.37,61.27 130.37,61.27 C130.37,61.27 132.32,61.27 132.32,61.27 C132.32,61.27 132.32,68.15 132.32,68.15 C132.32,68.15 134.52,68.15 134.52,68.15 C134.52,68.15 134.52,61.26 134.52,61.26 C134.52,61.26 136.46,61.26 136.46,61.26 C136.46,61.26 136.46,68.16 136.46,68.16 C136.46,68.16 138.69,68.16 138.69,68.16 C138.69,68.16 138.69,61.26 138.69,61.26 C138.69,61.26 141.13,61.26 141.13,61.26 C141.13,61.26 141.13,78.08 141.13,78.08 C141.13,78.08 134.27,78.08 134.27,78.08 C134.25,77.63 134.23,77.21 134.2,76.75 C134.2,76.75 133.31,76.75 133.31,76.75 C133.31,76.75 133.31,85.07 133.31,85.07z "/><path id="_R_G_L_2_G_D_2_P_0" fill="#2279ea" fill-opacity="1" fill-rule="nonzero" d=" M99.25 111.73 C99.25,111.73 68.29,111.73 68.29,111.73 C68.29,111.73 68.29,80.79 68.29,80.79 C68.29,80.79 99.25,80.79 99.25,80.79 C99.25,80.79 99.25,111.73 99.25,111.73z  M70.74 96.2 C70.74,100.32 70.75,104.45 70.73,108.57 C70.72,109.14 70.89,109.3 71.46,109.3 C79.66,109.28 87.87,109.28 96.07,109.3 C96.64,109.3 96.8,109.14 96.8,108.57 C96.78,100.37 96.78,92.17 96.8,83.97 C96.8,83.4 96.65,83.23 96.07,83.23 C87.87,83.25 79.66,83.25 71.46,83.23 C70.9,83.23 70.72,83.38 70.73,83.96 C70.75,88.04 70.74,92.12 70.74,96.2z "/><path id="_R_G_L_2_G_D_3_P_0" fill="#2279ea" fill-opacity="1" fill-rule="nonzero" d=" M117.48 58.29 C117.48,58.29 141.12,58.29 141.12,58.29 C141.12,58.29 141.12,60.4 141.12,60.4 C141.12,60.4 117.48,60.4 117.48,60.4 C117.48,60.4 117.48,58.29 117.48,58.29z "/><path id="_R_G_L_2_G_D_4_P_0" fill="#2279ea" fill-opacity="1" fill-rule="nonzero" d=" M95.01 86 C95.01,86 95.01,86.7 95.01,86.7 C95,90.24 94.99,93.78 94.98,97.32 C94.98,97.94 94.99,98.56 95.02,99.18 C95.04,99.55 94.9,99.7 94.52,99.69 C93.69,99.68 92.87,99.69 91.97,99.69 C91.97,99.69 91.97,103.11 91.97,103.11 C91.02,103.11 90.13,103.14 89.25,103.1 C88.72,103.07 88.58,103.27 88.6,103.77 C88.63,104.68 88.61,105.58 88.61,106.53 C88.61,106.53 78.93,106.53 78.93,106.53 C78.93,105.58 78.9,104.65 78.94,103.73 C78.96,103.23 78.79,103.08 78.3,103.1 C77.41,103.13 76.53,103.11 75.58,103.11 C75.58,103.11 75.58,99.69 75.58,99.69 C75.58,99.69 72.55,99.69 72.55,99.69 C72.55,99.69 72.55,86 72.55,86 C72.55,86 95.01,86 95.01,86z    M82.83 91.49 C82.83,91.49 84.71,91.49 84.71,91.49 C84.71,91.49 84.71,87.59 84.71,87.59 C84.71,87.59 82.83,87.59 82.83,87.59 C82.83,87.59 82.83,91.49 82.83,91.49z  M75.6 87.61 C75.6,87.61 73.68,87.61 73.68,87.61 C73.68,88.85 73.67,90.03 73.69,91.2 C73.7,91.32 73.86,91.52 73.96,91.52 C74.5,91.55 75.05,91.54 75.6,91.54 C75.6,91.54 75.6,87.61 75.6,87.61z  M78.68 91.54 C78.68,91.54 78.68,89 78.68,89 C78.68,87.45 78.68,87.46 77.14,87.55 C76.82,87.57 76.7,87.68 76.71,88 C76.71,89.03 76.71,90.06 76.71,91.1 C76.7,91.41 76.8,91.56 77.13,91.55 C77.61,91.53 78.08,91.54 78.68,91.54z  M91.92 91.54 C92.48,91.54 92.99,91.56 93.5,91.53 C93.62,91.52 93.83,91.32 93.83,91.21 C93.85,90.11 93.85,89.02 93.83,87.92 C93.83,87.8 93.64,87.59 93.53,87.58 C93,87.54 92.48,87.56 91.92,87.56 C91.92,87.56 91.92,91.54 91.92,91.54z  M88.88 91.51 C88.88,91.51 90.77,91.51 90.77,91.51 C90.77,91.51 90.77,87.61 90.77,87.61 C90.77,87.61 88.88,87.61 88.88,87.61 C88.88,87.61 88.88,91.51 88.88,91.51z    M79.79 91.5 C79.79,91.5 81.66,91.5 81.66,91.5 C81.66,91.5 81.66,87.6 81.66,87.6 C81.66,87.6 79.79,87.6 79.79,87.6 C79.79,87.6 79.79,91.5 79.79,91.5z  M85.86 91.5 C85.86,91.5 87.72,91.5 87.72,91.5 C87.72,91.5 87.72,87.6 87.72,87.6 C87.72,87.6 85.86,87.6 85.86,87.6 C85.86,87.6 85.86,91.5 85.86,91.5z "/></g></g><g id="_R_G_L_1_G"><path id="_R_G_L_1_G_D_0_P_0" fill="#2279ea" fill-opacity="1" fill-rule="nonzero" d=" M104.64 118.02 C104.64,118.02 103.54,118.02 103.54,118.02 C95.4,118.02 87.27,118.02 79.13,118.02 C77.1,118.01 75.54,116.89 75.03,115.05 C74.93,114.7 74.89,114.32 74.89,113.95 C74.88,111.08 74.87,108.21 74.88,105.34 C74.89,102.61 76.53,100.96 79.27,100.95 C87.36,100.94 95.45,100.95 103.54,100.95 C103.54,100.95 104.57,100.95 104.57,100.95 C104.57,100.95 104.57,97.35 104.57,97.35 C104.57,97.35 103.67,97.35 103.67,97.35 C95.58,97.35 87.49,97.31 79.4,97.38 C76.83,97.41 74.76,95.59 74.86,92.88 C74.96,90.11 74.87,87.34 74.89,84.57 C74.91,81.93 76.56,80.29 79.22,80.28 C87.33,80.27 95.45,80.28 103.56,80.28 C103.56,80.28 104.58,80.28 104.58,80.28 C104.58,80.28 104.58,76.69 104.58,76.69 C104.58,76.69 103.65,76.69 103.65,76.69 C95.46,76.69 87.27,76.69 79.09,76.68 C77.25,76.68 75.77,75.72 75.16,74.1 C74.97,73.6 74.9,73.03 74.89,72.5 C74.87,69.55 74.87,66.61 74.89,63.66 C74.9,61.48 76.53,59.77 78.72,59.63 C78.92,59.61 79.12,59.62 79.32,59.62 C96.89,59.62 114.46,59.62 132.04,59.61 C133.45,59.61 134.64,60.01 135.56,61.09 C136.16,61.79 136.5,62.62 136.5,63.56 C136.5,66.6 136.53,69.65 136.49,72.69 C136.47,75 134.69,76.68 132.32,76.68 C124.14,76.69 115.95,76.69 107.76,76.69 C107.76,76.69 106.8,76.69 106.8,76.69 C106.8,76.69 106.8,80.28 106.8,80.28 C106.8,80.28 107.71,80.28 107.71,80.28 C115.8,80.28 123.89,80.28 131.98,80.28 C134.24,80.28 135.76,81.3 136.33,83.21 C136.47,83.66 136.5,84.15 136.5,84.62 C136.51,87.44 136.51,90.26 136.5,93.08 C136.5,95.64 134.8,97.35 132.23,97.35 C124.07,97.36 115.9,97.35 107.74,97.35 C107.74,97.35 106.79,97.35 106.79,97.35 C106.79,97.35 106.79,100.91 106.79,100.91 C107.09,100.92 107.37,100.95 107.66,100.95 C115.73,100.95 123.79,100.95 131.85,100.95 C134.93,100.95 136.51,102.53 136.51,105.6 C136.51,108.2 136.51,110.8 136.51,113.39 C136.5,116.44 134.94,118.02 131.91,118.02 C131.91,118.02 107.72,118.02 107.72,118.02 C107.72,118.02 106.74,118.02 106.74,118.02 C106.74,118.02 106.74,119.8 106.74,119.8 C106.74,121.47 106.74,123.15 106.73,124.82 C106.72,125.23 106.85,125.46 107.22,125.71 C107.76,126.07 108.27,126.55 108.63,127.09 C108.92,127.5 109.18,127.63 109.65,127.63 C115.72,127.62 121.78,127.62 127.85,127.62 C128.72,127.62 129.59,127.62 130.47,127.62 C131.34,127.63 131.82,128.02 131.82,128.67 C131.82,129.34 131.35,129.71 130.47,129.71 C123.63,129.72 116.79,129.72 109.95,129.7 C109.31,129.7 108.91,129.81 108.53,130.45 C107.21,132.66 103.98,132.55 102.73,130.28 C102.48,129.83 102.22,129.7 101.74,129.71 C94.9,129.72 88.06,129.72 81.22,129.72 C80.97,129.72 80.72,129.73 80.48,129.7 C79.91,129.61 79.57,129.27 79.57,128.69 C79.56,128.11 79.88,127.75 80.45,127.65 C80.69,127.61 80.95,127.62 81.2,127.62 C87.99,127.62 94.78,127.62 101.57,127.63 C102.13,127.63 102.49,127.54 102.81,126.97 C103.11,126.44 103.72,126.09 104.19,125.65 C104.35,125.5 104.62,125.31 104.62,125.14 C104.65,122.8 104.64,120.46 104.64,118.02z  M126.81 65.39 C125.29,65.38 124.04,66.6 124.02,68.12 C124,69.65 125.22,70.89 126.75,70.92 C128.31,70.94 129.6,69.7 129.59,68.15 C129.59,66.65 128.33,65.4 126.81,65.39z  M126.77 106.73 C125.24,106.74 124.02,107.96 124.02,109.49 C124.02,111.01 125.26,112.25 126.79,112.25 C128.34,112.25 129.62,110.97 129.59,109.44 C129.57,107.94 128.29,106.71 126.77,106.73z  M126.82 91.58 C128.32,91.59 129.59,90.33 129.6,88.82 C129.6,87.33 128.33,86.07 126.82,86.06 C125.27,86.06 124.04,87.26 124.02,88.78 C124,90.34 125.23,91.57 126.82,91.58z  M105.72 129.95 C106.42,129.93 107,129.33 106.98,128.64 C106.96,127.94 106.38,127.4 105.66,127.42 C104.93,127.43 104.39,128 104.4,128.71 C104.42,129.41 105.01,129.96 105.72,129.95z  M88.11 64.7 C88.11,64.7 88.11,64.69 88.11,64.69 C87.64,64.69 87.16,64.65 86.69,64.71 C86.51,64.74 86.36,64.99 86.19,65.14 C86.36,65.29 86.52,65.56 86.7,65.57 C87.64,65.61 88.59,65.6 89.54,65.56 C89.7,65.55 89.85,65.26 90.01,65.09 C89.85,64.96 89.7,64.73 89.53,64.72 C89.06,64.66 88.58,64.7 88.11,64.7z  M94.74 68.6 C94.74,68.6 94.74,68.6 94.74,68.6 C95.19,68.6 95.64,68.65 96.08,68.58 C96.28,68.55 96.45,68.29 96.64,68.13 C96.47,67.99 96.3,67.73 96.12,67.72 C95.2,67.68 94.28,67.68 93.36,67.72 C93.18,67.73 93.02,67.99 92.84,68.13 C93.03,68.29 93.2,68.55 93.4,68.58 C93.84,68.65 94.29,68.6 94.74,68.6z  M88.09 71.61 C88.54,71.61 89,71.66 89.44,71.59 C89.64,71.56 89.81,71.31 90,71.16 C89.82,71.01 89.66,70.75 89.47,70.75 C88.55,70.7 87.63,70.7 86.71,70.74 C86.53,70.75 86.37,71.01 86.19,71.16 C86.38,71.31 86.55,71.56 86.75,71.59 C87.19,71.66 87.64,71.62 88.09,71.61z  M88.1 85.36 C87.65,85.36 87.19,85.31 86.75,85.38 C86.55,85.41 86.38,85.66 86.19,85.82 C86.36,85.96 86.53,86.22 86.71,86.23 C87.63,86.27 88.55,86.27 89.47,86.23 C89.66,86.22 89.83,85.97 90.01,85.82 C89.82,85.67 89.65,85.41 89.44,85.38 C89,85.31 88.55,85.36 88.1,85.36z  M88.12 89.26 C88.57,89.26 89.02,89.3 89.46,89.24 C89.66,89.22 89.83,88.99 90.01,88.85 C89.82,88.69 89.65,88.4 89.45,88.39 C88.53,88.35 87.61,88.35 86.69,88.4 C86.51,88.4 86.36,88.68 86.19,88.82 C86.36,88.97 86.51,89.22 86.7,89.24 C87.17,89.3 87.65,89.26 88.12,89.26z  M94.75 89.26 C94.75,89.26 94.75,89.26 94.75,89.26 C95.2,89.26 95.66,89.31 96.09,89.24 C96.3,89.21 96.46,88.95 96.64,88.79 C96.47,88.65 96.3,88.4 96.11,88.39 C95.19,88.35 94.27,88.35 93.35,88.39 C93.18,88.4 93.01,88.67 92.85,88.81 C93.01,88.96 93.16,89.22 93.34,89.24 C93.8,89.3 94.28,89.26 94.75,89.26z  M88.12 109.93 C88.57,109.93 89.02,109.97 89.46,109.91 C89.66,109.88 89.82,109.66 90,109.52 C89.82,109.36 89.64,109.07 89.45,109.06 C88.53,109.01 87.6,109.02 86.68,109.06 C86.51,109.07 86.36,109.34 86.19,109.49 C86.36,109.64 86.52,109.89 86.7,109.91 C87.16,109.97 87.64,109.93 88.12,109.93z  M88.08 112.94 C88.55,112.94 89.03,112.98 89.5,112.92 C89.68,112.9 89.84,112.65 90.01,112.5 C89.83,112.35 89.67,112.08 89.49,112.07 C88.55,112.03 87.6,112.03 86.65,112.08 C86.49,112.09 86.34,112.38 86.19,112.54 C86.35,112.67 86.49,112.9 86.66,112.92 C87.13,112.98 87.61,112.94 88.08,112.94z  M94.79 65.59 C95.21,65.59 95.64,65.63 96.05,65.57 C96.26,65.53 96.44,65.29 96.63,65.15 C96.45,65 96.27,64.72 96.07,64.71 C95.18,64.66 94.28,64.66 93.39,64.71 C93.2,64.72 93.03,65.01 92.85,65.17 C93.02,65.31 93.18,65.54 93.37,65.57 C93.84,65.63 94.32,65.59 94.79,65.59z  M88.11 68.6 C88.56,68.6 89.01,68.64 89.45,68.58 C89.65,68.55 89.82,68.33 90,68.19 C89.82,68.03 89.65,67.74 89.46,67.73 C88.54,67.68 87.61,67.68 86.69,67.73 C86.52,67.74 86.36,68 86.19,68.15 C86.36,68.3 86.51,68.55 86.69,68.58 C87.16,68.64 87.64,68.6 88.11,68.6z  M88.04 92.28 C88.52,92.28 89,92.32 89.46,92.26 C89.66,92.24 89.83,92 90.01,91.87 C89.82,91.71 89.64,91.42 89.45,91.41 C88.53,91.36 87.6,91.36 86.68,91.41 C86.51,91.41 86.35,91.69 86.19,91.84 C86.36,91.99 86.51,92.23 86.7,92.26 C87.14,92.32 87.6,92.28 88.04,92.28z  M94.76 109.93 C95.21,109.93 95.66,109.97 96.1,109.91 C96.29,109.89 96.46,109.66 96.64,109.53 C96.46,109.36 96.29,109.07 96.1,109.06 C95.19,109.01 94.26,109.02 93.34,109.06 C93.17,109.07 93.01,109.34 92.84,109.49 C93.01,109.64 93.16,109.89 93.35,109.91 C93.81,109.97 94.29,109.93 94.76,109.93z  M81.44 65.59 C81.44,65.59 81.44,65.58 81.44,65.58 C81.92,65.58 82.39,65.63 82.86,65.56 C83.03,65.54 83.18,65.28 83.34,65.13 C83.18,64.98 83.01,64.72 82.84,64.71 C81.92,64.67 81,64.67 80.08,64.71 C79.9,64.72 79.73,64.97 79.56,65.11 C79.74,65.27 79.9,65.53 80.11,65.56 C80.54,65.63 81,65.59 81.44,65.59z  M81.45 67.7 C81,67.7 80.55,67.65 80.11,67.72 C79.91,67.76 79.74,68.02 79.56,68.17 C79.73,68.31 79.89,68.57 80.07,68.58 C80.99,68.62 81.91,68.62 82.83,68.58 C83,68.57 83.17,68.31 83.34,68.17 C83.16,68.02 82.99,67.76 82.79,67.72 C82.35,67.66 81.9,67.7 81.45,67.7z  M94.76 71.61 C94.76,71.61 94.76,71.61 94.76,71.61 C95.2,71.61 95.66,71.65 96.1,71.59 C96.29,71.57 96.46,71.35 96.64,71.22 C96.46,71.05 96.29,70.76 96.1,70.75 C95.19,70.69 94.26,70.7 93.35,70.74 C93.17,70.75 93.01,71.02 92.85,71.17 C93.04,71.32 93.21,71.56 93.42,71.59 C93.85,71.66 94.31,71.61 94.76,71.61z  M81.45 86.25 C81.9,86.25 82.35,86.3 82.79,86.23 C82.99,86.2 83.16,85.94 83.34,85.78 C83.17,85.64 83,85.39 82.82,85.38 C81.91,85.34 80.99,85.34 80.07,85.38 C79.9,85.39 79.73,85.64 79.56,85.78 C79.74,85.94 79.91,86.2 80.12,86.23 C80.55,86.3 81.01,86.25 81.45,86.25z  M81.46 88.38 C80.99,88.38 80.51,88.34 80.05,88.4 C79.86,88.42 79.71,88.68 79.55,88.83 C79.7,88.97 79.84,89.23 79.99,89.24 C80.95,89.27 81.92,89.27 82.89,89.24 C83.05,89.23 83.19,88.98 83.34,88.85 C83.19,88.69 83.04,88.42 82.87,88.4 C82.41,88.34 81.93,88.38 81.46,88.38z  M94.74 92.28 C95.21,92.28 95.69,92.32 96.15,92.26 C96.33,92.23 96.48,91.97 96.64,91.82 C96.49,91.68 96.35,91.42 96.2,91.42 C95.23,91.38 94.26,91.38 93.29,91.41 C93.14,91.42 92.99,91.68 92.85,91.82 C93,91.97 93.15,92.23 93.32,92.25 C93.79,92.32 94.26,92.28 94.74,92.28z  M81.5 106.02 C81.5,106.02 81.5,106.03 81.5,106.03 C81.01,106.03 80.51,106 80.02,106.05 C79.85,106.07 79.71,106.3 79.56,106.43 C79.71,106.59 79.86,106.88 80.02,106.89 C80.96,106.93 81.91,106.93 82.85,106.89 C83.02,106.89 83.18,106.61 83.34,106.47 C83.18,106.32 83.03,106.07 82.84,106.05 C82.4,105.98 81.95,106.02 81.5,106.02z  M88.12 106.92 C88.57,106.92 89.02,106.96 89.46,106.9 C89.66,106.87 89.82,106.64 90,106.5 C89.82,106.34 89.65,106.05 89.45,106.04 C88.53,105.99 87.61,106 86.69,106.05 C86.52,106.05 86.36,106.32 86.2,106.47 C86.37,106.62 86.52,106.87 86.7,106.9 C87.17,106.96 87.65,106.92 88.12,106.92z  M94.67 106.92 C94.67,106.92 94.67,106.91 94.67,106.91 C95.14,106.91 95.62,106.96 96.09,106.89 C96.29,106.86 96.46,106.6 96.64,106.44 C96.47,106.3 96.3,106.05 96.12,106.04 C95.2,106 94.28,106 93.36,106.05 C93.18,106.05 93.01,106.31 92.84,106.45 C93.03,106.61 93.2,106.86 93.41,106.9 C93.82,106.97 94.25,106.92 94.67,106.92z  M94.65 86.24 C94.65,86.24 94.65,86.23 94.65,86.23 C95.17,86.23 95.7,86.27 96.21,86.21 C96.37,86.2 96.61,85.94 96.61,85.8 C96.61,85.66 96.36,85.39 96.21,85.39 C95.24,85.35 94.27,85.35 93.3,85.38 C93.15,85.39 93,85.63 92.85,85.77 C93,85.93 93.14,86.2 93.31,86.22 C93.75,86.29 94.2,86.24 94.65,86.24z  M81.45 109.04 C81,109.04 80.55,108.99 80.11,109.06 C79.91,109.09 79.74,109.35 79.56,109.51 C79.73,109.65 79.9,109.9 80.07,109.91 C80.99,109.95 81.91,109.95 82.83,109.91 C83.01,109.9 83.17,109.65 83.34,109.51 C83.16,109.35 82.99,109.09 82.79,109.06 C82.35,108.99 81.9,109.04 81.45,109.04z  M81.38 112.95 C81.38,112.95 81.38,112.94 81.38,112.94 C81.85,112.94 82.33,112.99 82.79,112.92 C82.99,112.89 83.16,112.63 83.34,112.48 C83.17,112.34 83,112.08 82.82,112.07 C81.91,112.03 80.98,112.03 80.07,112.07 C79.89,112.08 79.73,112.34 79.56,112.49 C79.74,112.64 79.91,112.89 80.12,112.93 C80.53,113 80.96,112.95 81.38,112.95z  M94.73 112.94 C95.2,112.94 95.68,112.98 96.14,112.92 C96.32,112.9 96.47,112.64 96.64,112.49 C96.49,112.35 96.35,112.09 96.2,112.08 C95.24,112.04 94.26,112.04 93.3,112.08 C93.14,112.08 93,112.34 92.85,112.47 C93,112.63 93.14,112.9 93.32,112.92 C93.78,112.98 94.26,112.94 94.73,112.94z  M81.49 71.61 C81.93,71.61 82.38,71.65 82.82,71.59 C83.01,71.57 83.17,71.34 83.34,71.2 C83.19,71.04 83.03,70.76 82.87,70.75 C81.93,70.7 80.98,70.7 80.04,70.75 C79.87,70.76 79.72,71.04 79.56,71.19 C79.73,71.33 79.89,71.57 80.07,71.59 C80.54,71.65 81.01,71.61 81.49,71.61z  M81.39 92.28 C81.39,92.28 81.39,92.28 81.39,92.28 C81.86,92.28 82.34,92.33 82.8,92.26 C83,92.23 83.16,91.97 83.34,91.81 C83.17,91.67 83,91.41 82.81,91.41 C81.9,91.36 80.98,91.36 80.06,91.41 C79.89,91.41 79.73,91.68 79.56,91.83 C79.72,91.98 79.87,92.23 80.05,92.26 C80.49,92.32 80.94,92.28 81.39,92.28z "/><path id="_R_G_L_1_G_D_1_P_0" fill="#2279ea" fill-opacity="1" fill-rule="nonzero" d=" M126.79 70.02 C125.7,70 124.89,69.17 124.91,68.1 C124.94,67.06 125.75,66.29 126.81,66.3 C127.88,66.3 128.73,67.16 128.69,68.21 C128.66,69.24 127.82,70.03 126.79,70.02z "/><path id="_R_G_L_1_G_D_2_P_0" fill="#2279ea" fill-opacity="1" fill-rule="nonzero" d=" M128.69 109.52 C128.67,110.58 127.8,111.38 126.72,111.35 C125.67,111.31 124.9,110.5 124.91,109.46 C124.93,108.39 125.78,107.6 126.87,107.63 C127.9,107.66 128.72,108.51 128.69,109.52z "/><path id="_R_G_L_1_G_D_3_P_0" fill="#2279ea" fill-opacity="1" fill-rule="nonzero" d=" M126.84 86.96 C127.9,86.98 128.73,87.83 128.7,88.88 C128.67,89.88 127.82,90.69 126.8,90.69 C125.74,90.69 124.9,89.86 124.91,88.81 C124.92,87.75 125.75,86.95 126.84,86.96z "/></g><g id="_R_G_L_0_G"><path id="_R_G_L_0_G_D_0_P_0" fill="#2279ea" fill-opacity="1" fill-rule="nonzero" d=" M93.05 17.26 C93.05,17.26 92.81,16.64 92.81,16.64 C92.78,16.5 92.75,16.37 92.72,16.24 C92.68,16.37 92.65,16.5 92.61,16.64 C92.61,16.64 92.38,17.26 92.38,17.26 C92.38,17.26 93.05,17.26 93.05,17.26z "/><path id="_R_G_L_0_G_D_1_P_0" fill="#2279ea" fill-opacity="1" fill-rule="nonzero" d=" M123.47 13.14 C124.43,13 125.34,12.87 126.32,12.73 C126.24,12.12 126.17,11.56 126.09,10.97 C125.08,11.06 124.12,11.14 123.13,11.22 C123.25,11.9 123.36,12.5 123.47,13.14z "/><path id="_R_G_L_0_G_D_2_P_0" fill="#2279ea" fill-opacity="1" fill-rule="nonzero" d=" M126.91 12.64 C128.09,12.46 129.19,12.29 130.36,12.12 C130.34,11.59 130.32,11.13 130.29,10.62 C129.07,10.73 127.91,10.82 126.69,10.93 C126.77,11.52 126.84,12.06 126.91,12.64z "/><path id="_R_G_L_0_G_D_3_P_0" fill="#2279ea" fill-opacity="1" fill-rule="nonzero" d=" M96.32 16.54 C96.32,16.27 96.12,16.17 95.82,16.17 C95.69,16.17 95.62,16.17 95.56,16.21 C95.56,16.21 95.56,16.9 95.56,16.9 C95.56,16.9 95.82,16.9 95.82,16.9 C96.12,16.9 96.32,16.74 96.32,16.54z "/><path id="_R_G_L_0_G_D_4_P_0" fill="#2279ea" fill-opacity="1" fill-rule="nonzero" d=" M123.75 10.56 C123.98,10.55 124.2,10.54 124.43,10.52 C124.96,10.47 125.48,10.42 126.02,10.37 C125.93,9.7 125.85,9.11 125.77,8.52 C125.77,8.52 122.65,8.52 122.65,8.52 C122.74,9.02 122.82,9.47 122.91,9.91 C123.05,10.62 123.05,10.62 123.75,10.56z "/><path id="_R_G_L_0_G_D_5_P_0" fill="#2279ea" fill-opacity="1" fill-rule="nonzero" d=" M133.6 8.55 C133.6,8.55 130.85,8.55 130.85,8.55 C130.85,8.55 130.85,9.98 130.85,9.98 C131.78,9.9 132.63,9.83 133.52,9.76 C133.55,9.33 133.58,8.93 133.6,8.55z "/><path id="_R_G_L_0_G_D_6_P_0" fill="#2279ea" fill-opacity="1" fill-rule="nonzero" d=" M96.35 17.53 C96.35,17.23 96.09,17.1 95.79,17.1 C95.79,17.1 95.56,17.1 95.56,17.1 C95.56,17.1 95.56,17.96 95.56,17.96 C95.56,17.96 95.79,17.96 95.79,17.96 C96.09,17.96 96.35,17.86 96.35,17.53z "/><path id="_R_G_L_0_G_D_7_P_0" fill="#2279ea" fill-opacity="1" fill-rule="nonzero" d=" M130.2 10.03 C130.2,10.03 130.2,8.54 130.2,8.54 C130.2,8.54 126.39,8.54 126.39,8.54 C126.47,9.16 126.54,9.73 126.62,10.33 C127.87,10.23 129.05,10.13 130.2,10.03z "/><path id="_R_G_L_0_G_D_8_P_0" fill="#2279ea" fill-opacity="1" fill-rule="nonzero" d=" M86.27 16.24 C86.23,16.37 86.2,16.5 86.17,16.63 C86.17,16.63 85.94,17.26 85.94,17.26 C85.94,17.26 86.6,17.26 86.6,17.26 C86.6,17.26 86.37,16.63 86.37,16.63 C86.33,16.5 86.3,16.37 86.27,16.24z "/><path id="_R_G_L_0_G_D_9_P_0" fill="#2279ea" fill-opacity="1" fill-rule="nonzero" d=" M156.23 18.11 C156.21,7.09 149.14,0.05 138.16,0.03 C117.32,-0.01 96.47,-0.01 75.62,0.03 C64.79,0.05 57.64,7.08 57.63,17.88 C57.58,72.63 57.58,127.37 57.62,182.12 C57.63,192.96 64.99,200.16 75.84,200.17 C96.59,200.19 117.33,200.2 138.08,200.13 C140.19,200.12 142.37,199.8 144.38,199.18 C151.96,196.83 156.23,190.52 156.24,181.76 C156.26,154.58 156.25,127.4 156.25,100.23 C156.25,72.85 156.28,45.48 156.23,18.11z  M118.9 4.7 C119.06,4.31 119.39,4.27 119.76,4.41 C120.35,4.64 120.93,4.9 121.53,5.11 C121.96,5.27 122.14,5.56 122.2,5.98 C122.26,6.42 122.35,6.85 122.44,7.33 C122.44,7.33 123.13,7.33 123.13,7.33 C126.72,7.33 130.31,7.33 133.9,7.33 C134.72,7.33 134.89,7.52 134.82,8.32 C134.72,9.56 134.6,10.79 134.51,12.03 C134.47,12.53 134.22,12.73 133.74,12.8 C130.48,13.28 127.23,13.78 123.97,14.27 C123.89,14.28 123.82,14.31 123.7,14.33 C123.74,14.5 123.77,14.66 123.81,14.84 C123.81,14.84 124.42,14.84 124.42,14.84 C127.39,14.84 130.36,14.84 133.33,14.84 C133.49,14.84 133.69,14.8 133.81,14.88 C133.99,15 134.22,15.21 134.23,15.39 C134.24,15.57 134.04,15.81 133.87,15.95 C133.75,16.04 133.53,16.01 133.35,16.01 C130.12,16.02 126.89,16.02 123.66,16.02 C122.88,16.02 122.78,15.93 122.64,15.15 C122.13,12.31 121.62,9.47 121.12,6.62 C121.07,6.33 120.98,6.13 120.65,6.03 C120.2,5.89 119.77,5.68 119.33,5.5 C118.97,5.36 118.75,5.1 118.9,4.7z  M132.38 17.03 C132.38,17.5 132,17.88 131.53,17.88 C131.06,17.88 130.68,17.5 130.68,17.03 C130.68,16.56 131.06,16.17 131.53,16.17 C132,16.17 132.38,16.56 132.38,17.03z  M125.63 17.03 C125.63,17.5 125.25,17.88 124.78,17.88 C124.31,17.88 123.93,17.5 123.93,17.03 C123.93,16.56 124.31,16.17 124.78,16.17 C125.25,16.17 125.63,16.56 125.63,17.03z  M108.88 5.95 C108.92,4.96 109.74,4.33 110.77,4.33 C110.77,4.33 114.57,4.33 114.57,4.33 C115.89,4.3 117.08,5.23 117.35,6.55 C117.61,7.87 116.89,9.16 115.66,9.66 C115.63,9.63 115.6,9.66 115.56,9.69 C116.09,10.72 116.66,11.74 117.18,12.77 C117.22,12.87 117.28,12.93 117.32,13.03 C117.55,13.49 117.51,13.79 117.18,13.96 C116.85,14.16 116.59,14.02 116.32,13.56 C115.79,12.57 115.27,11.54 114.74,10.52 C114.41,9.92 114.11,9.33 113.78,8.67 C113.78,8.67 114.64,8.67 114.64,8.67 C115.53,8.7 116.29,8 116.32,7.11 C116.36,6.22 115.66,5.46 114.77,5.46 C114.77,5.46 114.74,5.46 114.74,5.46 C113.61,5.42 112.52,5.46 111.4,5.46 C110.07,5.46 109.98,5.56 109.98,6.88 C109.98,6.88 109.98,13.06 109.98,13.06 C109.98,13.2 109.98,13.33 109.94,13.49 C109.91,13.76 109.68,13.99 109.38,13.96 C109.11,13.96 108.88,13.76 108.85,13.49 C108.85,13.49 108.85,13.46 108.85,13.46 C108.85,10.95 108.82,8.47 108.88,5.95z  M115.43 17.13 C115.43,17.13 115.43,18.19 115.43,18.19 C115.43,18.19 115.13,18.19 115.13,18.19 C115.13,18.19 115.13,15.97 115.13,15.97 C115.13,15.97 115.43,15.97 115.43,15.97 C115.43,15.97 115.43,16.9 115.43,16.9 C115.43,16.9 116.52,16.9 116.52,16.9 C116.52,16.9 116.52,15.97 116.52,15.97 C116.52,15.97 116.82,15.97 116.82,15.97 C116.82,15.97 116.82,18.19 116.82,18.19 C116.82,18.19 116.52,18.19 116.52,18.19 C116.52,18.19 116.52,17.13 116.52,17.13 C116.52,17.13 115.43,17.13 115.43,17.13z  M112.95 17.99 C113.12,17.99 113.32,17.96 113.41,17.89 C113.41,17.89 113.48,18.12 113.48,18.12 C113.38,18.19 113.15,18.22 112.89,18.22 C112.26,18.22 111.79,17.83 111.79,17.1 C111.79,16.4 112.26,15.94 112.95,15.94 C113.22,15.94 113.41,16.01 113.48,16.04 C113.48,16.04 113.41,16.27 113.41,16.27 C113.32,16.2 113.15,16.17 112.95,16.17 C112.42,16.17 112.09,16.5 112.09,17.1 C112.09,17.63 112.39,17.99 112.95,17.99z  M110.11 16.87 C110.11,16.87 110.11,17.13 110.11,17.13 C110.11,17.13 109.28,17.13 109.28,17.13 C109.28,17.13 109.28,17.92 109.28,17.92 C109.28,17.92 110.24,17.92 110.24,17.92 C110.24,17.92 110.24,18.16 110.24,18.16 C110.24,18.16 108.98,18.16 108.98,18.16 C108.98,18.16 108.98,15.94 108.98,15.94 C108.98,15.94 110.17,15.94 110.17,15.94 C110.17,15.94 110.17,16.17 110.17,16.17 C110.17,16.17 109.25,16.17 109.25,16.17 C109.25,16.17 109.25,16.87 109.25,16.87 C109.25,16.87 110.11,16.87 110.11,16.87z  M100.29 5.49 C100.62,4.8 101.31,4.37 102.11,4.37 C102.87,4.33 103.59,4.76 103.96,5.46 C105.31,7.97 106.67,10.48 107.99,13 C108.22,13.39 108.16,13.76 107.83,13.89 C107.49,14.02 107.2,13.92 107,13.49 C105.68,11.05 104.39,8.6 103.06,6.19 C102.87,5.79 102.6,5.49 102.11,5.49 C101.61,5.49 101.38,5.79 101.18,6.15 C99.86,8.6 98.53,11.01 97.21,13.43 C97.11,13.59 97.01,13.82 96.85,13.86 C96.62,13.92 96.42,13.86 96.22,13.76 C95.99,13.59 96.02,13.3 96.15,13.03 C96.65,12.11 97.18,11.18 97.67,10.25 C98.53,8.67 99.43,7.08 100.29,5.49z  M105.81 16.2 C105.81,16.2 105.81,15.97 105.81,15.97 C105.81,15.97 107.46,15.97 107.46,15.97 C107.46,15.97 107.46,16.2 107.46,16.2 C107.46,16.2 106.77,16.2 106.77,16.2 C106.77,16.2 106.77,18.19 106.77,18.19 C106.77,18.19 106.47,18.19 106.47,18.19 C106.47,18.19 106.47,16.2 106.47,16.2 C106.47,16.2 105.81,16.2 105.81,16.2z  M102.37 16.87 C102.37,16.87 102.37,17.13 102.37,17.13 C102.37,17.13 101.54,17.13 101.54,17.13 C101.54,17.13 101.54,17.92 101.54,17.92 C101.54,17.92 102.5,17.92 102.5,17.92 C102.5,17.92 102.5,18.16 102.5,18.16 C102.5,18.16 101.25,18.16 101.25,18.16 C101.25,18.16 101.25,15.94 101.25,15.94 C101.25,15.94 102.44,15.94 102.44,15.94 C102.44,15.94 102.44,16.17 102.44,16.17 C102.44,16.17 101.51,16.17 101.51,16.17 C101.51,16.17 101.51,16.87 101.51,16.87 C101.51,16.87 102.37,16.87 102.37,16.87z  M99.63 17.96 C99.63,17.96 99.63,18.19 99.63,18.19 C99.63,18.19 98.4,18.19 98.4,18.19 C98.4,18.19 98.4,15.97 98.4,15.97 C98.4,15.97 98.67,15.97 98.67,15.97 C98.67,15.97 98.67,17.96 98.67,17.96 C98.67,17.96 99.63,17.96 99.63,17.96z  M95.26 15.97 C95.39,15.94 95.59,15.94 95.79,15.94 C96.09,15.94 96.25,15.97 96.38,16.11 C96.48,16.2 96.58,16.34 96.58,16.5 C96.58,16.7 96.45,16.9 96.22,17 C96.42,17.06 96.68,17.23 96.68,17.56 C96.68,17.76 96.62,17.89 96.48,17.99 C96.32,18.12 96.09,18.19 95.72,18.19 C95.53,18.19 95.36,18.19 95.29,18.16 C95.29,18.16 95.29,15.97 95.29,15.97 C95.29,15.97 95.26,15.97 95.26,15.97z  M84.81 10.98 C84.71,10.35 84.18,9.86 83.55,9.79 C82.33,9.72 81.14,9.76 79.92,9.72 C78.99,9.72 78.13,9.23 77.67,8.4 C76.88,7.18 77.27,5.56 78.5,4.8 C78.89,4.56 79.36,4.4 79.82,4.4 C80.74,4.37 81.7,4.4 82.63,4.4 C83.59,4.4 84.55,4.37 85.51,4.4 C86.89,4.47 88.02,5.59 88.02,6.98 C88.02,6.98 88.02,9.19 88.02,9.19 C88.02,11.24 89.67,12.9 91.72,12.9 C93.77,12.9 95.43,11.24 95.43,9.19 C95.43,8 94.83,6.88 93.87,6.19 C92.61,5.26 90.93,5.26 89.67,6.12 C89.57,6.19 89.51,6.25 89.41,6.32 C89.18,6.52 88.81,6.48 88.61,6.25 C88.42,6.05 88.42,5.72 88.61,5.52 C88.65,5.46 88.68,5.46 88.71,5.42 C90.76,3.77 93.81,4.1 95.46,6.15 C96.02,6.85 96.38,7.67 96.48,8.57 C96.75,11.21 95.13,13.43 92.61,13.89 C90,14.39 87.52,12.67 87.03,10.05 C86.99,9.79 86.96,9.52 86.96,9.26 C86.96,8.43 86.99,7.57 86.89,6.75 C86.8,5.99 86.13,5.46 85.37,5.49 C85.37,5.49 79.95,5.49 79.95,5.49 C79.09,5.49 78.4,6.19 78.4,7.05 C78.4,7.91 79.09,8.6 79.95,8.6 C79.95,8.6 83.26,8.6 83.26,8.6 C84.74,8.57 85.94,9.72 85.97,11.21 C86,12.7 84.84,13.89 83.36,13.92 C81.54,13.96 79.69,13.92 77.87,13.92 C77.54,13.96 77.24,13.69 77.21,13.36 C77.21,13.03 77.47,12.8 77.9,12.8 C77.9,12.8 83.03,12.8 83.03,12.8 C83.36,12.8 83.69,12.77 83.99,12.63 C84.61,12.34 84.98,11.64 84.81,10.98z  M90.33 9.16 C90.33,8.37 90.99,7.74 91.76,7.77 C92.55,7.77 93.18,8.43 93.14,9.19 C93.11,9.95 92.48,10.58 91.72,10.58 C90.96,10.55 90.33,9.92 90.33,9.16z  M93.64 18.19 C93.64,18.19 93.34,18.19 93.34,18.19 C93.34,18.19 93.11,17.49 93.11,17.49 C93.11,17.49 92.32,17.49 92.32,17.49 C92.32,17.49 92.09,18.19 92.09,18.19 C92.09,18.19 91.79,18.19 91.79,18.19 C91.79,18.19 92.55,15.97 92.55,15.97 C92.55,15.97 92.88,15.97 92.88,15.97 C92.88,15.97 93.64,18.19 93.64,18.19z  M90.1 17.56 C90.17,17.86 90.23,18.09 90.27,18.16 C90.27,18.16 89.97,18.16 89.97,18.16 C89.94,18.09 89.87,17.89 89.84,17.63 C89.77,17.33 89.64,17.2 89.41,17.2 C89.41,17.2 89.14,17.2 89.14,17.2 C89.14,17.2 89.14,18.16 89.14,18.16 C89.14,18.16 88.85,18.16 88.85,18.16 C88.85,18.16 88.85,15.97 88.85,15.97 C88.98,15.94 89.21,15.94 89.41,15.94 C89.7,15.94 89.9,16.01 90.04,16.11 C90.14,16.2 90.2,16.37 90.2,16.53 C90.2,16.83 90,17.03 89.77,17.1 C89.94,17.16 90.04,17.33 90.1,17.56z  M87.19 18.19 C87.19,18.19 86.89,18.19 86.89,18.19 C86.89,18.19 86.66,17.49 86.66,17.49 C86.66,17.49 85.87,17.49 85.87,17.49 C85.87,17.49 85.64,18.19 85.64,18.19 C85.64,18.19 85.34,18.19 85.34,18.19 C85.34,18.19 86.1,15.97 86.1,15.97 C86.1,15.97 86.43,15.97 86.43,15.97 C86.43,15.97 87.19,18.19 87.19,18.19z  M83.69 16.87 C83.69,16.87 83.69,17.13 83.69,17.13 C83.69,17.13 82.86,17.13 82.86,17.13 C82.86,17.13 82.86,17.92 82.86,17.92 C82.86,17.92 83.82,17.92 83.82,17.92 C83.82,17.92 83.82,18.16 83.82,18.16 C83.82,18.16 82.56,18.16 82.56,18.16 C82.56,18.16 82.56,15.94 82.56,15.94 C82.56,15.94 83.75,15.94 83.75,15.94 C83.75,15.94 83.75,16.17 83.75,16.17 C83.75,16.17 82.83,16.17 82.83,16.17 C82.83,16.17 82.83,16.87 82.83,16.87 C82.83,16.87 83.69,16.87 83.69,16.87z  M80.94 15.97 C80.94,15.97 80.31,18.19 80.31,18.19 C80.31,18.19 80.02,18.19 80.02,18.19 C80.02,18.19 79.78,17.03 79.78,17.03 C79.72,16.73 79.65,16.53 79.65,16.3 C79.62,16.53 79.55,16.73 79.49,17.03 C79.49,17.03 79.16,18.19 79.16,18.19 C79.16,18.19 78.83,18.19 78.83,18.19 C78.83,18.19 78.26,15.97 78.26,15.97 C78.26,15.97 78.56,15.97 78.56,15.97 C78.56,15.97 78.83,17.1 78.83,17.1 C78.89,17.36 78.96,17.63 78.99,17.86 C79.02,17.63 79.09,17.36 79.16,17.1 C79.16,17.1 79.45,15.97 79.45,15.97 C79.45,15.97 79.75,15.97 79.75,15.97 C79.75,15.97 80.02,17.1 80.02,17.1 C80.08,17.36 80.15,17.63 80.18,17.86 C80.22,17.63 80.28,17.36 80.35,17.1 C80.35,17.1 80.65,15.97 80.65,15.97 C80.65,15.97 80.94,15.97 80.94,15.97z  M106.81 196.11 C103.02,196.04 99.85,192.73 99.91,188.91 C99.97,184.99 103.05,182.04 107.04,182.08 C110.98,182.12 113.99,185.2 113.94,189.14 C113.89,192.94 110.58,196.18 106.81,196.11z  M147.09 178.37 C120.29,178.37 93.49,178.37 66.69,178.37 C62.78,178.36 62.49,178.08 62.49,174.27 C62.49,124.76 62.49,75.26 62.5,25.75 C62.5,21.92 62.59,21.82 66.47,21.82 C93.46,21.82 120.46,21.82 147.46,21.82 C151.24,21.82 151.35,21.94 151.36,25.82 C151.36,50.57 151.36,75.33 151.36,100.08 C151.36,124.74 151.36,149.39 151.36,174.05 C151.36,178.14 151.14,178.37 147.09,178.37z "/><path id="_R_G_L_0_G_D_10_P_0" fill="#2279ea" fill-opacity="1" fill-rule="nonzero" d=" M89.44 16.14 C89.31,16.14 89.21,16.14 89.14,16.17 C89.14,16.17 89.14,17 89.14,17 C89.14,17 89.44,17 89.44,17 C89.74,17 89.94,16.83 89.94,16.57 C89.94,16.27 89.74,16.17 89.44,16.14z "/><path id="_R_G_L_0_G_D_11_P_0" fill="#2279ea" fill-opacity="1" fill-rule="nonzero" d=" M130.95 12.03 C131.72,11.91 132.43,11.82 133.13,11.7 C133.22,11.68 133.34,11.58 133.35,11.5 C133.41,11.14 133.42,10.77 133.46,10.37 C132.57,10.44 131.75,10.51 130.95,10.58 C130.95,10.58 130.95,12.03 130.95,12.03z "/></g></g><g id="time_group"/></svg>